<?xml version="1.0" encoding="utf-8" standalone="no"?>
<!DOCTYPE svg PUBLIC "-//W3C//DTD SVG 1.1//EN"
  "http://www.w3.org/Graphics/SVG/1.1/DTD/svg11.dtd">
<svg xmlns:xlink="http://www.w3.org/1999/xlink" width="460.8pt" height="345.6pt" viewBox="0 0 460.8 345.6" xmlns="http://www.w3.org/2000/svg" version="1.1">
 <metadata>
  <rdf:RDF xmlns:dc="http://purl.org/dc/elements/1.1/" xmlns:cc="http://creativecommons.org/ns#" xmlns:rdf="http://www.w3.org/1999/02/22-rdf-syntax-ns#">
   <cc:Work>
    <dc:type rdf:resource="http://purl.org/dc/dcmitype/StillImage"/>
    <dc:date>2025-06-01T16:43:40.181074</dc:date>
    <dc:format>image/svg+xml</dc:format>
    <dc:creator>
     <cc:Agent>
      <dc:title>Matplotlib v3.10.3, https://matplotlib.org/</dc:title>
     </cc:Agent>
    </dc:creator>
   </cc:Work>
  </rdf:RDF>
 </metadata>
 <defs>
  <style type="text/css">*{stroke-linejoin: round; stroke-linecap: butt}</style>
 </defs>
 <g id="figure_1">
  <g id="patch_1">
   <path d="M 0 345.6 
L 460.8 345.6 
L 460.8 0 
L 0 0 
z
" style="fill: #ffffff"/>
  </g>
  <g id="axes_1">
   <g id="patch_2">
    <path d="M 47.961177 279.599698 
L 243.946343 279.599698 
L 243.946343 83.614532 
L 47.961177 83.614532 
z
" style="fill: #ffffff"/>
   </g>
   <g id="line2d_1">
    <path d="M 146.364231 246.932925 
L 150.055791 246.793706 
L 153.734237 246.446091 
L 157.38781 245.891192 
L 161.004829 245.130783 
L 164.573731 244.167294 
L 168.083107 243.003806 
L 171.521737 241.644038 
L 174.878629 240.092337 
L 178.143051 238.353665 
L 181.304566 236.433578 
L 184.353068 234.338217 
L 187.278811 232.074279 
L 190.072441 229.649002 
L 192.725028 227.070139 
L 195.228091 224.345935 
L 197.573629 221.485099 
L 199.754142 218.496777 
L 201.762661 215.390521 
L 203.592764 212.176264 
L 205.238599 208.864279 
L 206.694907 205.465156 
L 207.95703 201.98976 
L 209.020935 198.449203 
L 209.88322 194.854804 
L 210.541127 191.218053 
L 210.992555 187.550576 
L 211.23606 183.864099 
L 211.270863 180.170406 
L 211.096853 176.481307 
L 210.714586 172.808594 
L 210.125285 169.164009 
L 209.330833 165.559204 
L 208.33377 162.005702 
L 207.137285 158.514865 
L 205.7452 155.097851 
L 204.161968 151.765585 
L 202.39265 148.52872 
L 200.442902 145.397603 
L 198.318956 142.382245 
L 196.027604 139.492286 
L 193.57617 136.736963 
L 190.972492 134.125087 
L 188.224892 131.665006 
L 185.342156 129.364586 
L 182.333499 127.23118 
L 179.208539 125.27161 
L 175.977266 123.492139 
L 172.650011 121.898456 
L 169.23741 120.495657 
L 165.750374 119.288225 
L 162.200049 118.280021 
L 158.597787 117.474269 
L 154.955103 116.873543 
L 151.283642 116.479765 
L 147.595142 116.294193 
L 143.901395 116.31742 
L 140.214209 116.549373 
L 136.545372 116.98931 
L 132.906613 117.635824 
L 129.309564 118.486848 
L 125.765725 119.539663 
L 122.286426 120.790901 
L 118.882789 122.236563 
L 115.565695 123.872028 
L 112.345749 125.692067 
L 109.233246 127.690861 
L 106.238134 129.86202 
L 103.369989 132.198604 
L 100.637982 134.693142 
L 98.050844 137.33766 
L 95.616848 140.123704 
L 93.343774 143.042366 
L 91.23889 146.084317 
L 89.308925 149.23983 
L 87.560048 152.498819 
L 85.99785 155.850865 
L 84.627326 159.285251 
L 83.452857 162.790998 
L 82.478198 166.356898 
L 81.706465 169.971552 
L 81.140124 173.623404 
L 80.780987 177.300779 
L 80.630201 180.991921 
L 80.688249 184.68503 
L 80.954945 188.368298 
L 81.429436 192.029952 
L 82.110206 195.658286 
L 82.995078 199.241698 
L 84.081223 202.768735 
L 85.365169 206.22812 
L 86.842811 209.608793 
L 88.509426 212.899948 
L 90.359685 216.091063 
L 92.387673 219.171935 
L 94.586908 222.132716 
L 96.950357 224.96394 
L 99.470466 227.656557 
L 102.139178 230.201957 
L 104.947962 232.592004 
L 107.887837 234.819057 
L 110.949405 236.875996 
L 114.12288 238.756246 
L 117.398114 240.453795 
L 120.764639 241.963216 
L 124.211691 243.279684 
L 127.72825 244.398991 
L 131.303075 245.317558 
L 134.924737 246.032448 
L 138.581657 246.541376 
L 142.262145 246.842715 
L 145.954436 246.935501 
L 145.954436 246.935501 
" clip-path="url(#p07112cb3bf)" style="fill: none; stroke: #1f77b4; stroke-opacity: 0.5; stroke-width: 1.5; stroke-linecap: square"/>
   </g>
   <g id="line2d_2">
    <path d="M 146.233574 246.932925 
L 148.750074 246.793706 
L 151.257634 246.446091 
L 153.748239 245.891192 
L 156.213925 245.130783 
L 158.64681 244.167294 
L 161.302091 242.862339 
L 163.896798 241.315637 
L 166.420692 239.533292 
L 168.863812 237.522338 
L 171.216516 235.290711 
L 173.469519 232.84722 
L 175.61393 230.201506 
L 177.641286 227.364012 
L 179.543584 224.345935 
L 181.482728 220.831715 
L 183.252221 217.130197 
L 184.843613 213.259056 
L 186.249306 209.236777 
L 187.462588 205.082566 
L 188.477665 200.81626 
L 189.28969 196.45823 
L 189.894786 192.029286 
L 190.290064 187.550576 
L 190.473635 183.043486 
L 190.444624 178.529538 
L 190.203169 174.030284 
L 189.750423 169.567211 
L 189.088548 165.161628 
L 188.220704 160.834572 
L 187.151035 156.606705 
L 185.884649 152.498215 
L 184.427593 148.52872 
L 182.786825 144.717175 
L 180.970178 141.081779 
L 178.986328 137.639892 
L 177.04569 134.692672 
L 174.982347 131.930604 
L 172.80444 129.364586 
L 170.520566 127.004746 
L 168.139738 124.860398 
L 165.671351 122.940004 
L 163.125148 121.251143 
L 160.511177 119.80048 
L 157.839754 118.593741 
L 155.395062 117.720186 
L 152.920187 117.050872 
L 150.423041 116.587939 
L 147.911607 116.332866 
L 145.393914 116.286469 
L 142.878011 116.448896 
L 140.371941 116.819628 
L 137.883715 117.39748 
L 135.421288 118.180605 
L 132.992533 119.166498 
L 130.342847 120.495895 
L 127.75477 122.066471 
L 125.238517 123.872028 
L 122.804017 125.905439 
L 120.460879 128.158681 
L 118.21835 130.622859 
L 116.085281 133.28825 
L 114.070089 136.144333 
L 112.180728 139.179838 
L 110.256649 142.711808 
L 108.503024 146.429503 
L 106.928226 150.315171 
L 105.539775 154.350258 
L 104.344301 158.515496 
L 103.347513 162.790998 
L 102.554169 167.156346 
L 101.968058 171.590697 
L 101.59198 176.072876 
L 101.427729 180.581481 
L 101.47609 185.094983 
L 101.736832 189.591831 
L 102.20871 194.050552 
L 102.88947 198.449856 
L 103.775863 202.768735 
L 104.863656 206.986568 
L 106.147653 211.083213 
L 107.621725 215.03911 
L 109.278833 218.835369 
L 111.111063 222.453864 
L 113.109668 225.877314 
L 115.062939 228.806516 
L 117.138123 231.549441 
L 119.327029 234.095267 
L 121.621019 236.433946 
L 124.01104 238.556247 
L 126.487659 240.453795 
L 129.041102 242.119101 
L 131.661291 243.545594 
L 134.337887 244.727643 
L 136.786324 245.578611 
L 139.264068 246.225069 
L 141.763198 246.664949 
L 144.275725 246.896845 
L 145.954221 246.935501 
L 145.954221 246.935501 
" clip-path="url(#p07112cb3bf)" style="fill: none; stroke: #ff7f0e; stroke-opacity: 0.5; stroke-width: 1.5; stroke-linecap: square"/>
   </g>
   <g id="patch_3">
    <path d="M 168.818696 181.607115 
C 168.818696 177.085399 167.477391 172.663707 164.96526 168.904037 
C 162.453129 165.144368 158.881313 162.213054 154.703793 160.482669 
C 150.526272 158.752283 145.927865 158.299379 141.493033 159.181522 
C 137.0582 160.063665 132.983145 162.241828 129.785809 165.439164 
C 126.588473 168.6365 124.410311 172.711555 123.528168 177.146387 
C 122.646025 181.58122 123.098928 186.179626 124.829314 190.357147 
C 126.5597 194.534668 129.491013 198.106484 133.250683 200.618614 
C 137.010352 203.130745 141.432045 204.472051 145.95376 204.472051 
" clip-path="url(#p07112cb3bf)" style="fill: none; opacity: 0.5; stroke: #808080; stroke-width: 1.5; stroke-linejoin: miter"/>
   </g>
   <g id="patch_4">
    <path d="M 144.22018 201.972051 
Q 146.72018 203.222051 149.22018 204.472051 
Q 146.72018 205.722051 144.22018 206.972051 
z
" clip-path="url(#p07112cb3bf)" style="fill: #808080; opacity: 0.5; stroke: #808080; stroke-linecap: round"/>
   </g>
   <g id="matplotlib.axis_1">
    <g id="xtick_1">
     <g id="line2d_3">
      <defs>
       <path id="mf1436c1879" d="M 0 0 
L 0 3.5 
" style="stroke: #000000; stroke-width: 0.8"/>
      </defs>
      <g>
       <use xlink:href="#mf1436c1879" x="47.961178" y="279.599698" style="stroke: #000000; stroke-width: 0.8"/>
      </g>
     </g>
     <g id="text_1">
      <!-- −1.5 -->
      <g transform="translate(35.819771 294.198135) scale(0.1 -0.1)">
       <defs>
        <path id="DejaVuSans-2212" d="M 678 2272 
L 4684 2272 
L 4684 1741 
L 678 1741 
L 678 2272 
z
" transform="scale(0.015625)"/>
        <path id="DejaVuSans-31" d="M 794 531 
L 1825 531 
L 1825 4091 
L 703 3866 
L 703 4441 
L 1819 4666 
L 2450 4666 
L 2450 531 
L 3481 531 
L 3481 0 
L 794 0 
L 794 531 
z
" transform="scale(0.015625)"/>
        <path id="DejaVuSans-2e" d="M 684 794 
L 1344 794 
L 1344 0 
L 684 0 
L 684 794 
z
" transform="scale(0.015625)"/>
        <path id="DejaVuSans-35" d="M 691 4666 
L 3169 4666 
L 3169 4134 
L 1269 4134 
L 1269 2991 
Q 1406 3038 1543 3061 
Q 1681 3084 1819 3084 
Q 2600 3084 3056 2656 
Q 3513 2228 3513 1497 
Q 3513 744 3044 326 
Q 2575 -91 1722 -91 
Q 1428 -91 1123 -41 
Q 819 9 494 109 
L 494 744 
Q 775 591 1075 516 
Q 1375 441 1709 441 
Q 2250 441 2565 725 
Q 2881 1009 2881 1497 
Q 2881 1984 2565 2268 
Q 2250 2553 1709 2553 
Q 1456 2553 1204 2497 
Q 953 2441 691 2322 
L 691 4666 
z
" transform="scale(0.015625)"/>
       </defs>
       <use xlink:href="#DejaVuSans-2212"/>
       <use xlink:href="#DejaVuSans-31" transform="translate(83.789062 0)"/>
       <use xlink:href="#DejaVuSans-2e" transform="translate(147.412109 0)"/>
       <use xlink:href="#DejaVuSans-35" transform="translate(179.199219 0)"/>
      </g>
     </g>
    </g>
    <g id="xtick_2">
     <g id="line2d_4">
      <g>
       <use xlink:href="#mf1436c1879" x="80.625372" y="279.599698" style="stroke: #000000; stroke-width: 0.8"/>
      </g>
     </g>
     <g id="text_2">
      <!-- −1.0 -->
      <g transform="translate(68.483966 294.198135) scale(0.1 -0.1)">
       <defs>
        <path id="DejaVuSans-30" d="M 2034 4250 
Q 1547 4250 1301 3770 
Q 1056 3291 1056 2328 
Q 1056 1369 1301 889 
Q 1547 409 2034 409 
Q 2525 409 2770 889 
Q 3016 1369 3016 2328 
Q 3016 3291 2770 3770 
Q 2525 4250 2034 4250 
z
M 2034 4750 
Q 2819 4750 3233 4129 
Q 3647 3509 3647 2328 
Q 3647 1150 3233 529 
Q 2819 -91 2034 -91 
Q 1250 -91 836 529 
Q 422 1150 422 2328 
Q 422 3509 836 4129 
Q 1250 4750 2034 4750 
z
" transform="scale(0.015625)"/>
       </defs>
       <use xlink:href="#DejaVuSans-2212"/>
       <use xlink:href="#DejaVuSans-31" transform="translate(83.789062 0)"/>
       <use xlink:href="#DejaVuSans-2e" transform="translate(147.412109 0)"/>
       <use xlink:href="#DejaVuSans-30" transform="translate(179.199219 0)"/>
      </g>
     </g>
    </g>
    <g id="xtick_3">
     <g id="line2d_5">
      <g>
       <use xlink:href="#mf1436c1879" x="113.289566" y="279.599698" style="stroke: #000000; stroke-width: 0.8"/>
      </g>
     </g>
     <g id="text_3">
      <!-- −0.5 -->
      <g transform="translate(101.14816 294.198135) scale(0.1 -0.1)">
       <use xlink:href="#DejaVuSans-2212"/>
       <use xlink:href="#DejaVuSans-30" transform="translate(83.789062 0)"/>
       <use xlink:href="#DejaVuSans-2e" transform="translate(147.412109 0)"/>
       <use xlink:href="#DejaVuSans-35" transform="translate(179.199219 0)"/>
      </g>
     </g>
    </g>
    <g id="xtick_4">
     <g id="line2d_6">
      <g>
       <use xlink:href="#mf1436c1879" x="145.95376" y="279.599698" style="stroke: #000000; stroke-width: 0.8"/>
      </g>
     </g>
     <g id="text_4">
      <!-- 0.0 -->
      <g transform="translate(138.002198 294.198135) scale(0.1 -0.1)">
       <use xlink:href="#DejaVuSans-30"/>
       <use xlink:href="#DejaVuSans-2e" transform="translate(63.623047 0)"/>
       <use xlink:href="#DejaVuSans-30" transform="translate(95.410156 0)"/>
      </g>
     </g>
    </g>
    <g id="xtick_5">
     <g id="line2d_7">
      <g>
       <use xlink:href="#mf1436c1879" x="178.617955" y="279.599698" style="stroke: #000000; stroke-width: 0.8"/>
      </g>
     </g>
     <g id="text_5">
      <!-- 0.5 -->
      <g transform="translate(170.666392 294.198135) scale(0.1 -0.1)">
       <use xlink:href="#DejaVuSans-30"/>
       <use xlink:href="#DejaVuSans-2e" transform="translate(63.623047 0)"/>
       <use xlink:href="#DejaVuSans-35" transform="translate(95.410156 0)"/>
      </g>
     </g>
    </g>
    <g id="xtick_6">
     <g id="line2d_8">
      <g>
       <use xlink:href="#mf1436c1879" x="211.282149" y="279.599698" style="stroke: #000000; stroke-width: 0.8"/>
      </g>
     </g>
     <g id="text_6">
      <!-- 1.0 -->
      <g transform="translate(203.330586 294.198135) scale(0.1 -0.1)">
       <use xlink:href="#DejaVuSans-31"/>
       <use xlink:href="#DejaVuSans-2e" transform="translate(63.623047 0)"/>
       <use xlink:href="#DejaVuSans-30" transform="translate(95.410156 0)"/>
      </g>
     </g>
    </g>
    <g id="xtick_7">
     <g id="line2d_9">
      <g>
       <use xlink:href="#mf1436c1879" x="243.946343" y="279.599698" style="stroke: #000000; stroke-width: 0.8"/>
      </g>
     </g>
     <g id="text_7">
      <!-- 1.5 -->
      <g transform="translate(235.994781 294.198135) scale(0.1 -0.1)">
       <use xlink:href="#DejaVuSans-31"/>
       <use xlink:href="#DejaVuSans-2e" transform="translate(63.623047 0)"/>
       <use xlink:href="#DejaVuSans-35" transform="translate(95.410156 0)"/>
      </g>
     </g>
    </g>
    <g id="text_8">
     <!-- x [m] -->
     <g transform="translate(132.633448 307.87626) scale(0.1 -0.1)">
      <defs>
       <path id="DejaVuSans-78" d="M 3513 3500 
L 2247 1797 
L 3578 0 
L 2900 0 
L 1881 1375 
L 863 0 
L 184 0 
L 1544 1831 
L 300 3500 
L 978 3500 
L 1906 2253 
L 2834 3500 
L 3513 3500 
z
" transform="scale(0.015625)"/>
       <path id="DejaVuSans-20" transform="scale(0.015625)"/>
       <path id="DejaVuSans-5b" d="M 550 4863 
L 1875 4863 
L 1875 4416 
L 1125 4416 
L 1125 -397 
L 1875 -397 
L 1875 -844 
L 550 -844 
L 550 4863 
z
" transform="scale(0.015625)"/>
       <path id="DejaVuSans-6d" d="M 3328 2828 
Q 3544 3216 3844 3400 
Q 4144 3584 4550 3584 
Q 5097 3584 5394 3201 
Q 5691 2819 5691 2113 
L 5691 0 
L 5113 0 
L 5113 2094 
Q 5113 2597 4934 2840 
Q 4756 3084 4391 3084 
Q 3944 3084 3684 2787 
Q 3425 2491 3425 1978 
L 3425 0 
L 2847 0 
L 2847 2094 
Q 2847 2600 2669 2842 
Q 2491 3084 2119 3084 
Q 1678 3084 1418 2786 
Q 1159 2488 1159 1978 
L 1159 0 
L 581 0 
L 581 3500 
L 1159 3500 
L 1159 2956 
Q 1356 3278 1631 3431 
Q 1906 3584 2284 3584 
Q 2666 3584 2933 3390 
Q 3200 3197 3328 2828 
z
" transform="scale(0.015625)"/>
       <path id="DejaVuSans-5d" d="M 1947 4863 
L 1947 -844 
L 622 -844 
L 622 -397 
L 1369 -397 
L 1369 4416 
L 622 4416 
L 622 4863 
L 1947 4863 
z
" transform="scale(0.015625)"/>
      </defs>
      <use xlink:href="#DejaVuSans-78"/>
      <use xlink:href="#DejaVuSans-20" transform="translate(59.179688 0)"/>
      <use xlink:href="#DejaVuSans-5b" transform="translate(90.966797 0)"/>
      <use xlink:href="#DejaVuSans-6d" transform="translate(129.980469 0)"/>
      <use xlink:href="#DejaVuSans-5d" transform="translate(227.392578 0)"/>
     </g>
    </g>
   </g>
   <g id="matplotlib.axis_2">
    <g id="ytick_1">
     <g id="line2d_10">
      <defs>
       <path id="m215c72f00e" d="M 0 0 
L -3.5 0 
" style="stroke: #000000; stroke-width: 0.8"/>
      </defs>
      <g>
       <use xlink:href="#m215c72f00e" x="47.961177" y="279.599698" style="stroke: #000000; stroke-width: 0.8"/>
      </g>
     </g>
     <g id="text_9">
      <!-- −1.5 -->
      <g transform="translate(16.678365 283.398917) scale(0.1 -0.1)">
       <use xlink:href="#DejaVuSans-2212"/>
       <use xlink:href="#DejaVuSans-31" transform="translate(83.789062 0)"/>
       <use xlink:href="#DejaVuSans-2e" transform="translate(147.412109 0)"/>
       <use xlink:href="#DejaVuSans-35" transform="translate(179.199219 0)"/>
      </g>
     </g>
    </g>
    <g id="ytick_2">
     <g id="line2d_11">
      <g>
       <use xlink:href="#m215c72f00e" x="47.961177" y="246.935504" style="stroke: #000000; stroke-width: 0.8"/>
      </g>
     </g>
     <g id="text_10">
      <!-- −1.0 -->
      <g transform="translate(16.678365 250.734722) scale(0.1 -0.1)">
       <use xlink:href="#DejaVuSans-2212"/>
       <use xlink:href="#DejaVuSans-31" transform="translate(83.789062 0)"/>
       <use xlink:href="#DejaVuSans-2e" transform="translate(147.412109 0)"/>
       <use xlink:href="#DejaVuSans-30" transform="translate(179.199219 0)"/>
      </g>
     </g>
    </g>
    <g id="ytick_3">
     <g id="line2d_12">
      <g>
       <use xlink:href="#m215c72f00e" x="47.961177" y="214.271309" style="stroke: #000000; stroke-width: 0.8"/>
      </g>
     </g>
     <g id="text_11">
      <!-- −0.5 -->
      <g transform="translate(16.678365 218.070528) scale(0.1 -0.1)">
       <use xlink:href="#DejaVuSans-2212"/>
       <use xlink:href="#DejaVuSans-30" transform="translate(83.789062 0)"/>
       <use xlink:href="#DejaVuSans-2e" transform="translate(147.412109 0)"/>
       <use xlink:href="#DejaVuSans-35" transform="translate(179.199219 0)"/>
      </g>
     </g>
    </g>
    <g id="ytick_4">
     <g id="line2d_13">
      <g>
       <use xlink:href="#m215c72f00e" x="47.961177" y="181.607115" style="stroke: #000000; stroke-width: 0.8"/>
      </g>
     </g>
     <g id="text_12">
      <!-- 0.0 -->
      <g transform="translate(25.058052 185.406334) scale(0.1 -0.1)">
       <use xlink:href="#DejaVuSans-30"/>
       <use xlink:href="#DejaVuSans-2e" transform="translate(63.623047 0)"/>
       <use xlink:href="#DejaVuSans-30" transform="translate(95.410156 0)"/>
      </g>
     </g>
    </g>
    <g id="ytick_5">
     <g id="line2d_14">
      <g>
       <use xlink:href="#m215c72f00e" x="47.961177" y="148.942921" style="stroke: #000000; stroke-width: 0.8"/>
      </g>
     </g>
     <g id="text_13">
      <!-- 0.5 -->
      <g transform="translate(25.058052 152.742139) scale(0.1 -0.1)">
       <use xlink:href="#DejaVuSans-30"/>
       <use xlink:href="#DejaVuSans-2e" transform="translate(63.623047 0)"/>
       <use xlink:href="#DejaVuSans-35" transform="translate(95.410156 0)"/>
      </g>
     </g>
    </g>
    <g id="ytick_6">
     <g id="line2d_15">
      <g>
       <use xlink:href="#m215c72f00e" x="47.961177" y="116.278726" style="stroke: #000000; stroke-width: 0.8"/>
      </g>
     </g>
     <g id="text_14">
      <!-- 1.0 -->
      <g transform="translate(25.058052 120.077945) scale(0.1 -0.1)">
       <use xlink:href="#DejaVuSans-31"/>
       <use xlink:href="#DejaVuSans-2e" transform="translate(63.623047 0)"/>
       <use xlink:href="#DejaVuSans-30" transform="translate(95.410156 0)"/>
      </g>
     </g>
    </g>
    <g id="ytick_7">
     <g id="line2d_16">
      <g>
       <use xlink:href="#m215c72f00e" x="47.961177" y="83.614532" style="stroke: #000000; stroke-width: 0.8"/>
      </g>
     </g>
     <g id="text_15">
      <!-- 1.5 -->
      <g transform="translate(25.058052 87.413751) scale(0.1 -0.1)">
       <use xlink:href="#DejaVuSans-31"/>
       <use xlink:href="#DejaVuSans-2e" transform="translate(63.623047 0)"/>
       <use xlink:href="#DejaVuSans-35" transform="translate(95.410156 0)"/>
      </g>
     </g>
    </g>
    <g id="text_16">
     <!-- y [m] -->
     <g transform="translate(10.598677 194.927427) rotate(-90) scale(0.1 -0.1)">
      <defs>
       <path id="DejaVuSans-79" d="M 2059 -325 
Q 1816 -950 1584 -1140 
Q 1353 -1331 966 -1331 
L 506 -1331 
L 506 -850 
L 844 -850 
Q 1081 -850 1212 -737 
Q 1344 -625 1503 -206 
L 1606 56 
L 191 3500 
L 800 3500 
L 1894 763 
L 2988 3500 
L 3597 3500 
L 2059 -325 
z
" transform="scale(0.015625)"/>
      </defs>
      <use xlink:href="#DejaVuSans-79"/>
      <use xlink:href="#DejaVuSans-20" transform="translate(59.179688 0)"/>
      <use xlink:href="#DejaVuSans-5b" transform="translate(90.966797 0)"/>
      <use xlink:href="#DejaVuSans-6d" transform="translate(129.980469 0)"/>
      <use xlink:href="#DejaVuSans-5d" transform="translate(227.392578 0)"/>
     </g>
    </g>
   </g>
   <g id="line2d_17">
    <path d="M 146.364231 246.932925 
" clip-path="url(#p07112cb3bf)" style="fill: none; stroke: #ff7f0e; stroke-width: 1.5; stroke-linecap: square"/>
    <defs>
     <path id="mfda7510b66" d="M 0 -2.5 
L -2.5 2.5 
L 2.5 2.5 
z
" style="stroke: #ff7f0e; stroke-linejoin: miter"/>
    </defs>
    <g clip-path="url(#p07112cb3bf)">
     <use xlink:href="#mfda7510b66" x="146.364231" y="246.932925" style="fill: #ff7f0e; stroke: #ff7f0e; stroke-linejoin: miter"/>
    </g>
   </g>
   <g id="line2d_18">
    <path d="M 146.233574 246.932925 
" clip-path="url(#p07112cb3bf)" style="fill: none; stroke: #2ca02c; stroke-width: 1.5; stroke-linecap: square"/>
    <defs>
     <path id="mdf03a8412f" d="M 0 2.5 
C 0.663008 2.5 1.29895 2.236584 1.767767 1.767767 
C 2.236584 1.29895 2.5 0.663008 2.5 0 
C 2.5 -0.663008 2.236584 -1.29895 1.767767 -1.767767 
C 1.29895 -2.236584 0.663008 -2.5 0 -2.5 
C -0.663008 -2.5 -1.29895 -2.236584 -1.767767 -1.767767 
C -2.236584 -1.29895 -2.5 -0.663008 -2.5 0 
C -2.5 0.663008 -2.236584 1.29895 -1.767767 1.767767 
C -1.29895 2.236584 -0.663008 2.5 0 2.5 
z
" style="stroke: #ff7f0e"/>
    </defs>
    <g clip-path="url(#p07112cb3bf)">
     <use xlink:href="#mdf03a8412f" x="146.233574" y="246.932925" style="fill: #ff7f0e; stroke: #ff7f0e"/>
    </g>
   </g>
   <g id="line2d_19">
    <path d="M 145.95376 181.607115 
L 146.774701 312.258734 
" clip-path="url(#p07112cb3bf)" style="fill: none; stroke: #808080; stroke-width: 0.5; stroke-linecap: square"/>
   </g>
   <g id="line2d_20">
    <path d="M 166.531456 243.545379 
" clip-path="url(#p07112cb3bf)" style="fill: none; stroke: #2ca02c; stroke-width: 1.5; stroke-linecap: square"/>
    <defs>
     <path id="m5b3ee7c54b" d="M -0.772542 -2.377641 
L -1.605099 3.150184 
L 3.150184 1.605099 
z
" style="stroke: #2ca02c; stroke-linejoin: miter"/>
    </defs>
    <g clip-path="url(#p07112cb3bf)">
     <use xlink:href="#m5b3ee7c54b" x="166.531456" y="243.545379" style="fill: #2ca02c; stroke: #2ca02c; stroke-linejoin: miter"/>
    </g>
   </g>
   <g id="line2d_21">
    <path d="M 159.981372 243.545379 
" clip-path="url(#p07112cb3bf)" style="fill: none; stroke: #d62728; stroke-width: 1.5; stroke-linecap: square"/>
    <defs>
     <path id="md284a0a158" d="M 0.772542 2.377641 
C 1.4031 2.172761 1.926517 1.72572 2.227516 1.134976 
C 2.528516 0.544232 2.582522 -0.141985 2.377641 -0.772542 
C 2.172761 -1.4031 1.72572 -1.926517 1.134976 -2.227516 
C 0.544232 -2.528516 -0.141985 -2.582522 -0.772542 -2.377641 
C -1.4031 -2.172761 -1.926517 -1.72572 -2.227516 -1.134976 
C -2.528516 -0.544232 -2.582522 0.141985 -2.377641 0.772542 
C -2.172761 1.4031 -1.72572 1.926517 -1.134976 2.227516 
C -0.544232 2.528516 0.141985 2.582522 0.772542 2.377641 
z
" style="stroke: #2ca02c"/>
    </defs>
    <g clip-path="url(#p07112cb3bf)">
     <use xlink:href="#md284a0a158" x="159.981372" y="243.545379" style="fill: #2ca02c; stroke: #2ca02c"/>
    </g>
   </g>
   <g id="line2d_22">
    <path d="M 145.95376 181.607115 
L 187.109152 305.483643 
" clip-path="url(#p07112cb3bf)" style="fill: none; stroke: #808080; stroke-width: 0.5; stroke-linecap: square"/>
   </g>
   <g id="line2d_23">
    <path d="M 184.684387 234.094865 
" clip-path="url(#p07112cb3bf)" style="fill: none; stroke: #d62728; stroke-width: 1.5; stroke-linecap: square"/>
    <defs>
     <path id="m7518a0d8ce" d="M -1.469463 -2.022542 
L -0.553079 3.492006 
L 3.492006 0.553079 
z
" style="stroke: #d62728; stroke-linejoin: miter"/>
    </defs>
    <g clip-path="url(#p07112cb3bf)">
     <use xlink:href="#m7518a0d8ce" x="184.684387" y="234.094865" style="fill: #d62728; stroke: #d62728; stroke-linejoin: miter"/>
    </g>
   </g>
   <g id="line2d_24">
    <path d="M 172.356046 234.094865 
" clip-path="url(#p07112cb3bf)" style="fill: none; stroke: #9467bd; stroke-width: 1.5; stroke-linecap: square"/>
    <defs>
     <path id="m5abe73329d" d="M 1.469463 2.022542 
C 2.005848 1.632836 2.365504 1.045931 2.469221 0.391086 
C 2.572938 -0.263759 2.412249 -0.933079 2.022542 -1.469463 
C 1.632836 -2.005848 1.045931 -2.365504 0.391086 -2.469221 
C -0.263759 -2.572938 -0.933079 -2.412249 -1.469463 -2.022542 
C -2.005848 -1.632836 -2.365504 -1.045931 -2.469221 -0.391086 
C -2.572938 0.263759 -2.412249 0.933079 -2.022542 1.469463 
C -1.632836 2.005848 -1.045931 2.365504 -0.391086 2.469221 
C 0.263759 2.572938 0.933079 2.412249 1.469463 2.022542 
z
" style="stroke: #d62728"/>
    </defs>
    <g clip-path="url(#p07112cb3bf)">
     <use xlink:href="#m5abe73329d" x="172.356046" y="234.094865" style="fill: #d62728; stroke: #d62728"/>
    </g>
   </g>
   <g id="line2d_25">
    <path d="M 145.95376 181.607115 
L 223.415014 286.582615 
" clip-path="url(#p07112cb3bf)" style="fill: none; stroke: #808080; stroke-width: 0.5; stroke-linecap: square"/>
   </g>
   <g id="line2d_26">
    <path d="M 199.046082 219.506468 
" clip-path="url(#p07112cb3bf)" style="fill: none; stroke: #9467bd; stroke-width: 1.5; stroke-linecap: square"/>
    <defs>
     <path id="md810729652" d="M -2.022542 -1.469463 
L 0.553079 3.492006 
L 3.492006 -0.553079 
z
" style="stroke: #9467bd; stroke-linejoin: miter"/>
    </defs>
    <g clip-path="url(#p07112cb3bf)">
     <use xlink:href="#md810729652" x="199.046082" y="219.506468" style="fill: #9467bd; stroke: #9467bd; stroke-linejoin: miter"/>
    </g>
   </g>
   <g id="line2d_27">
    <path d="M 182.146271 219.506468 
" clip-path="url(#p07112cb3bf)" style="fill: none; stroke: #8c564b; stroke-width: 1.5; stroke-linecap: square"/>
    <defs>
     <path id="m284d7d68ee" d="M 2.022542 1.469463 
C 2.412249 0.933079 2.572938 0.263759 2.469221 -0.391086 
C 2.365504 -1.045931 2.005848 -1.632836 1.469463 -2.022542 
C 0.933079 -2.412249 0.263759 -2.572938 -0.391086 -2.469221 
C -1.045931 -2.365504 -1.632836 -2.005848 -2.022542 -1.469463 
C -2.412249 -0.933079 -2.572938 -0.263759 -2.469221 0.391086 
C -2.365504 1.045931 -2.005848 1.632836 -1.469463 2.022542 
C -0.933079 2.412249 -0.263759 2.572938 0.391086 2.469221 
C 1.045931 2.365504 1.632836 2.005848 2.022542 1.469463 
z
" style="stroke: #9467bd"/>
    </defs>
    <g clip-path="url(#p07112cb3bf)">
     <use xlink:href="#m284d7d68ee" x="182.146271" y="219.506468" style="fill: #9467bd; stroke: #9467bd"/>
    </g>
   </g>
   <g id="line2d_28">
    <path d="M 145.95376 181.607115 
L 252.138404 257.405821 
" clip-path="url(#p07112cb3bf)" style="fill: none; stroke: #808080; stroke-width: 0.5; stroke-linecap: square"/>
   </g>
   <g id="line2d_29">
    <path d="M 208.210713 201.208206 
" clip-path="url(#p07112cb3bf)" style="fill: none; stroke: #1f77b4; stroke-width: 1.5; stroke-linecap: square"/>
    <defs>
     <path id="m05a06b6f4b" d="M -2.377641 -0.772542 
L 1.605099 3.150184 
L 3.150184 -1.605099 
z
" style="stroke: #1f77b4; stroke-linejoin: miter"/>
    </defs>
    <g clip-path="url(#p07112cb3bf)">
     <use xlink:href="#m05a06b6f4b" x="208.210713" y="201.208206" style="fill: #1f77b4; stroke: #1f77b4; stroke-linejoin: miter"/>
    </g>
   </g>
   <g id="line2d_30">
    <path d="M 188.39371 201.208206 
" clip-path="url(#p07112cb3bf)" style="fill: none; stroke: #e377c2; stroke-width: 1.5; stroke-linecap: square"/>
    <defs>
     <path id="m8615197d31" d="M 2.377641 0.772542 
C 2.582522 0.141985 2.528516 -0.544232 2.227516 -1.134976 
C 1.926517 -1.72572 1.4031 -2.172761 0.772542 -2.377641 
C 0.141985 -2.582522 -0.544232 -2.528516 -1.134976 -2.227516 
C -1.72572 -1.926517 -2.172761 -1.4031 -2.377641 -0.772542 
C -2.582522 -0.141985 -2.528516 0.544232 -2.227516 1.134976 
C -1.926517 1.72572 -1.4031 2.172761 -0.772542 2.377641 
C -0.141985 2.582522 0.544232 2.528516 1.134976 2.227516 
C 1.72572 1.926517 2.172761 1.4031 2.377641 0.772542 
z
" style="stroke: #1f77b4"/>
    </defs>
    <g clip-path="url(#p07112cb3bf)">
     <use xlink:href="#m8615197d31" x="188.39371" y="201.208206" style="fill: #1f77b4; stroke: #1f77b4"/>
    </g>
   </g>
   <g id="line2d_31">
    <path d="M 145.95376 181.607115 
L 270.467667 220.809296 
" clip-path="url(#p07112cb3bf)" style="fill: none; stroke: #808080; stroke-width: 0.5; stroke-linecap: square"/>
   </g>
   <g id="line2d_32">
    <path d="M 211.281181 180.991246 
" clip-path="url(#p07112cb3bf)" style="fill: none; stroke: #ff7f0e; stroke-width: 1.5; stroke-linecap: square"/>
    <defs>
     <path id="mc2dffee5f9" d="M -2.5 -0 
L 2.5 2.5 
L 2.5 -2.5 
z
" style="stroke: #ff7f0e; stroke-linejoin: miter"/>
    </defs>
    <g clip-path="url(#p07112cb3bf)">
     <use xlink:href="#mc2dffee5f9" x="211.281181" y="180.991246" style="fill: #ff7f0e; stroke: #ff7f0e; stroke-linejoin: miter"/>
    </g>
   </g>
   <g id="line2d_33">
    <path d="M 190.486817 180.991246 
" clip-path="url(#p07112cb3bf)" style="fill: none; stroke: #7f7f7f; stroke-width: 1.5; stroke-linecap: square"/>
    <defs>
     <path id="m61e0fc9438" d="M 2.5 0 
C 2.5 -0.663008 2.236584 -1.29895 1.767767 -1.767767 
C 1.29895 -2.236584 0.663008 -2.5 0 -2.5 
C -0.663008 -2.5 -1.29895 -2.236584 -1.767767 -1.767767 
C -2.236584 -1.29895 -2.5 -0.663008 -2.5 -0 
C -2.5 0.663008 -2.236584 1.29895 -1.767767 1.767767 
C -1.29895 2.236584 -0.663008 2.5 -0 2.5 
C 0.663008 2.5 1.29895 2.236584 1.767767 1.767767 
C 2.236584 1.29895 2.5 0.663008 2.5 0 
z
" style="stroke: #ff7f0e"/>
    </defs>
    <g clip-path="url(#p07112cb3bf)">
     <use xlink:href="#m61e0fc9438" x="190.486817" y="180.991246" style="fill: #ff7f0e; stroke: #ff7f0e"/>
    </g>
   </g>
   <g id="line2d_34">
    <path d="M 145.95376 181.607115 
L 276.608601 180.375376 
" clip-path="url(#p07112cb3bf)" style="fill: none; stroke: #808080; stroke-width: 0.5; stroke-linecap: square"/>
   </g>
   <g id="line2d_35">
    <path d="M 207.956924 160.834572 
" clip-path="url(#p07112cb3bf)" style="fill: none; stroke: #2ca02c; stroke-width: 1.5; stroke-linecap: square"/>
    <defs>
     <path id="mc84fee7e24" d="M -2.377641 0.772542 
L 3.150184 1.605099 
L 1.605099 -3.150184 
z
" style="stroke: #2ca02c; stroke-linejoin: miter"/>
    </defs>
    <g clip-path="url(#p07112cb3bf)">
     <use xlink:href="#mc84fee7e24" x="207.956924" y="160.834572" style="fill: #2ca02c; stroke: #2ca02c; stroke-linejoin: miter"/>
    </g>
   </g>
   <g id="line2d_36">
    <path d="M 188.220704 160.834572 
" clip-path="url(#p07112cb3bf)" style="fill: none; stroke: #bcbd22; stroke-width: 1.5; stroke-linecap: square"/>
    <defs>
     <path id="m024a16c7d1" d="M 2.377641 -0.772542 
C 2.172761 -1.4031 1.72572 -1.926517 1.134976 -2.227516 
C 0.544232 -2.528516 -0.141985 -2.582522 -0.772542 -2.377641 
C -1.4031 -2.172761 -1.926517 -1.72572 -2.227516 -1.134976 
C -2.528516 -0.544232 -2.582522 0.141985 -2.377641 0.772542 
C -2.172761 1.4031 -1.72572 1.926517 -1.134976 2.227516 
C -0.544232 2.528516 0.141985 2.582522 0.772542 2.377641 
C 1.4031 2.172761 1.926517 1.72572 2.227516 1.134976 
C 2.528516 0.544232 2.582522 -0.141985 2.377641 -0.772542 
z
" style="stroke: #2ca02c"/>
    </defs>
    <g clip-path="url(#p07112cb3bf)">
     <use xlink:href="#m024a16c7d1" x="188.220704" y="160.834572" style="fill: #2ca02c; stroke: #2ca02c"/>
    </g>
   </g>
   <g id="line2d_37">
    <path d="M 145.95376 181.607115 
L 269.960088 140.062028 
" clip-path="url(#p07112cb3bf)" style="fill: none; stroke: #808080; stroke-width: 0.5; stroke-linecap: square"/>
   </g>
   <g id="line2d_38">
    <path d="M 198.563346 142.711266 
" clip-path="url(#p07112cb3bf)" style="fill: none; stroke: #d62728; stroke-width: 1.5; stroke-linecap: square"/>
    <defs>
     <path id="m2acc8724c7" d="M -2.022542 1.469463 
L 3.492006 0.553079 
L 0.553079 -3.492006 
z
" style="stroke: #d62728; stroke-linejoin: miter"/>
    </defs>
    <g clip-path="url(#p07112cb3bf)">
     <use xlink:href="#m2acc8724c7" x="198.563346" y="142.711266" style="fill: #d62728; stroke: #d62728; stroke-linejoin: miter"/>
    </g>
   </g>
   <g id="line2d_39">
    <path d="M 181.817195 142.711266 
" clip-path="url(#p07112cb3bf)" style="fill: none; stroke: #17becf; stroke-width: 1.5; stroke-linecap: square"/>
    <defs>
     <path id="md755aafcd3" d="M 2.022542 -1.469463 
C 1.632836 -2.005848 1.045931 -2.365504 0.391086 -2.469221 
C -0.263759 -2.572938 -0.933079 -2.412249 -1.469463 -2.022542 
C -2.005848 -1.632836 -2.365504 -1.045931 -2.469221 -0.391086 
C -2.572938 0.263759 -2.412249 0.933079 -2.022542 1.469463 
C -1.632836 2.005848 -1.045931 2.365504 -0.391086 2.469221 
C 0.263759 2.572938 0.933079 2.412249 1.469463 2.022542 
C 2.005848 1.632836 2.365504 1.045931 2.469221 0.391086 
C 2.572938 -0.263759 2.412249 -0.933079 2.022542 -1.469463 
z
" style="stroke: #d62728"/>
    </defs>
    <g clip-path="url(#p07112cb3bf)">
     <use xlink:href="#md755aafcd3" x="181.817195" y="142.711266" style="fill: #d62728; stroke: #d62728"/>
    </g>
   </g>
   <g id="line2d_40">
    <path d="M 145.95376 181.607115 
L 251.172932 103.815416 
" clip-path="url(#p07112cb3bf)" style="fill: none; stroke: #808080; stroke-width: 0.5; stroke-linecap: square"/>
   </g>
   <g id="line2d_41">
    <path d="M 184.019958 128.395369 
" clip-path="url(#p07112cb3bf)" style="fill: none; stroke: #9467bd; stroke-width: 1.5; stroke-linecap: square"/>
    <defs>
     <path id="m1731779ced" d="M -1.469463 2.022542 
L 3.492006 -0.553079 
L -0.553079 -3.492006 
z
" style="stroke: #9467bd; stroke-linejoin: miter"/>
    </defs>
    <g clip-path="url(#p07112cb3bf)">
     <use xlink:href="#m1731779ced" x="184.019958" y="128.395369" style="fill: #9467bd; stroke: #9467bd; stroke-linejoin: miter"/>
    </g>
   </g>
   <g id="line2d_42">
    <path d="M 171.903111 128.395369 
" clip-path="url(#p07112cb3bf)" style="fill: none; stroke: #1f77b4; stroke-width: 1.5; stroke-linecap: square"/>
    <defs>
     <path id="m4c14b646b2" d="M 1.469463 -2.022542 
C 0.933079 -2.412249 0.263759 -2.572938 -0.391086 -2.469221 
C -1.045931 -2.365504 -1.632836 -2.005848 -2.022542 -1.469463 
C -2.412249 -0.933079 -2.572938 -0.263759 -2.469221 0.391086 
C -2.365504 1.045931 -2.005848 1.632836 -1.469463 2.022542 
C -0.933079 2.412249 -0.263759 2.572938 0.391086 2.469221 
C 1.045931 2.365504 1.632836 2.005848 2.022542 1.469463 
C 2.412249 0.933079 2.572938 0.263759 2.469221 -0.391086 
C 2.365504 -1.045931 2.005848 -1.632836 1.469463 -2.022542 
z
" style="stroke: #9467bd"/>
    </defs>
    <g clip-path="url(#p07112cb3bf)">
     <use xlink:href="#m4c14b646b2" x="171.903111" y="128.395369" style="fill: #9467bd; stroke: #9467bd"/>
    </g>
   </g>
   <g id="line2d_43">
    <path d="M 145.95376 181.607115 
L 222.086156 75.183622 
" clip-path="url(#p07112cb3bf)" style="fill: none; stroke: #808080; stroke-width: 0.5; stroke-linecap: square"/>
   </g>
   <g id="line2d_44">
    <path d="M 165.750374 119.288225 
" clip-path="url(#p07112cb3bf)" style="fill: none; stroke: #1f77b4; stroke-width: 1.5; stroke-linecap: square"/>
    <defs>
     <path id="m4f96402059" d="M -0.772542 2.377641 
L 3.150184 -1.605099 
L -1.605099 -3.150184 
z
" style="stroke: #1f77b4; stroke-linejoin: miter"/>
    </defs>
    <g clip-path="url(#p07112cb3bf)">
     <use xlink:href="#m4f96402059" x="165.750374" y="119.288225" style="fill: #1f77b4; stroke: #1f77b4; stroke-linejoin: miter"/>
    </g>
   </g>
   <g id="line2d_45">
    <path d="M 159.448916 119.288225 
" clip-path="url(#p07112cb3bf)" style="fill: none; stroke: #ff7f0e; stroke-width: 1.5; stroke-linecap: square"/>
    <defs>
     <path id="m2e3c12b2aa" d="M 0.772542 -2.377641 
C 0.141985 -2.582522 -0.544232 -2.528516 -1.134976 -2.227516 
C -1.72572 -1.926517 -2.172761 -1.4031 -2.377641 -0.772542 
C -2.582522 -0.141985 -2.528516 0.544232 -2.227516 1.134976 
C -1.926517 1.72572 -1.4031 2.172761 -0.772542 2.377641 
C -0.141985 2.582522 0.544232 2.528516 1.134976 2.227516 
C 1.72572 1.926517 2.172761 1.4031 2.377641 0.772542 
C 2.582522 0.141985 2.528516 -0.544232 2.227516 -1.134976 
C 1.926517 -1.72572 1.4031 -2.172761 0.772542 -2.377641 
z
" style="stroke: #1f77b4"/>
    </defs>
    <g clip-path="url(#p07112cb3bf)">
     <use xlink:href="#m2e3c12b2aa" x="159.448916" y="119.288225" style="fill: #1f77b4; stroke: #1f77b4"/>
    </g>
   </g>
   <g id="line2d_46">
    <path d="M 145.95376 181.607115 
L 185.546987 56.969335 
" clip-path="url(#p07112cb3bf)" style="fill: none; stroke: #808080; stroke-width: 0.5; stroke-linecap: square"/>
   </g>
   <g id="patch_5">
    <path d="M 47.961177 279.599698 
L 47.961177 83.614532 
" style="fill: none; stroke: #000000; stroke-width: 0.8; stroke-linejoin: miter; stroke-linecap: square"/>
   </g>
   <g id="patch_6">
    <path d="M 243.946343 279.599698 
L 243.946343 83.614532 
" style="fill: none; stroke: #000000; stroke-width: 0.8; stroke-linejoin: miter; stroke-linecap: square"/>
   </g>
   <g id="patch_7">
    <path d="M 47.961178 279.599698 
L 243.946343 279.599698 
" style="fill: none; stroke: #000000; stroke-width: 0.8; stroke-linejoin: miter; stroke-linecap: square"/>
   </g>
   <g id="patch_8">
    <path d="M 47.961178 83.614532 
L 243.946343 83.614532 
" style="fill: none; stroke: #000000; stroke-width: 0.8; stroke-linejoin: miter; stroke-linecap: square"/>
   </g>
   <g id="text_17">
    <!--  1 -->
    <g style="fill: #ff7f0e" transform="translate(146.233574 246.932925) scale(0.1 -0.1)">
     <use xlink:href="#DejaVuSans-20"/>
     <use xlink:href="#DejaVuSans-31" transform="translate(31.787109 0)"/>
    </g>
   </g>
   <g id="text_18">
    <!--  2 -->
    <g style="fill: #2ca02c" transform="translate(159.981372 243.545379) scale(0.1 -0.1)">
     <defs>
      <path id="DejaVuSans-32" d="M 1228 531 
L 3431 531 
L 3431 0 
L 469 0 
L 469 531 
Q 828 903 1448 1529 
Q 2069 2156 2228 2338 
Q 2531 2678 2651 2914 
Q 2772 3150 2772 3378 
Q 2772 3750 2511 3984 
Q 2250 4219 1831 4219 
Q 1534 4219 1204 4116 
Q 875 4013 500 3803 
L 500 4441 
Q 881 4594 1212 4672 
Q 1544 4750 1819 4750 
Q 2544 4750 2975 4387 
Q 3406 4025 3406 3419 
Q 3406 3131 3298 2873 
Q 3191 2616 2906 2266 
Q 2828 2175 2409 1742 
Q 1991 1309 1228 531 
z
" transform="scale(0.015625)"/>
     </defs>
     <use xlink:href="#DejaVuSans-20"/>
     <use xlink:href="#DejaVuSans-32" transform="translate(31.787109 0)"/>
    </g>
   </g>
   <g id="text_19">
    <!--  3 -->
    <g style="fill: #d62728" transform="translate(172.356046 234.094865) scale(0.1 -0.1)">
     <defs>
      <path id="DejaVuSans-33" d="M 2597 2516 
Q 3050 2419 3304 2112 
Q 3559 1806 3559 1356 
Q 3559 666 3084 287 
Q 2609 -91 1734 -91 
Q 1441 -91 1130 -33 
Q 819 25 488 141 
L 488 750 
Q 750 597 1062 519 
Q 1375 441 1716 441 
Q 2309 441 2620 675 
Q 2931 909 2931 1356 
Q 2931 1769 2642 2001 
Q 2353 2234 1838 2234 
L 1294 2234 
L 1294 2753 
L 1863 2753 
Q 2328 2753 2575 2939 
Q 2822 3125 2822 3475 
Q 2822 3834 2567 4026 
Q 2313 4219 1838 4219 
Q 1578 4219 1281 4162 
Q 984 4106 628 3988 
L 628 4550 
Q 988 4650 1302 4700 
Q 1616 4750 1894 4750 
Q 2613 4750 3031 4423 
Q 3450 4097 3450 3541 
Q 3450 3153 3228 2886 
Q 3006 2619 2597 2516 
z
" transform="scale(0.015625)"/>
     </defs>
     <use xlink:href="#DejaVuSans-20"/>
     <use xlink:href="#DejaVuSans-33" transform="translate(31.787109 0)"/>
    </g>
   </g>
   <g id="text_20">
    <!--  4 -->
    <g style="fill: #9467bd" transform="translate(182.146271 219.506468) scale(0.1 -0.1)">
     <defs>
      <path id="DejaVuSans-34" d="M 2419 4116 
L 825 1625 
L 2419 1625 
L 2419 4116 
z
M 2253 4666 
L 3047 4666 
L 3047 1625 
L 3713 1625 
L 3713 1100 
L 3047 1100 
L 3047 0 
L 2419 0 
L 2419 1100 
L 313 1100 
L 313 1709 
L 2253 4666 
z
" transform="scale(0.015625)"/>
     </defs>
     <use xlink:href="#DejaVuSans-20"/>
     <use xlink:href="#DejaVuSans-34" transform="translate(31.787109 0)"/>
    </g>
   </g>
   <g id="text_21">
    <!--  5 -->
    <g style="fill: #1f77b4" transform="translate(188.39371 201.208206) scale(0.1 -0.1)">
     <use xlink:href="#DejaVuSans-20"/>
     <use xlink:href="#DejaVuSans-35" transform="translate(31.787109 0)"/>
    </g>
   </g>
   <g id="text_22">
    <!--  6 -->
    <g style="fill: #ff7f0e" transform="translate(190.486817 180.991246) scale(0.1 -0.1)">
     <defs>
      <path id="DejaVuSans-36" d="M 2113 2584 
Q 1688 2584 1439 2293 
Q 1191 2003 1191 1497 
Q 1191 994 1439 701 
Q 1688 409 2113 409 
Q 2538 409 2786 701 
Q 3034 994 3034 1497 
Q 3034 2003 2786 2293 
Q 2538 2584 2113 2584 
z
M 3366 4563 
L 3366 3988 
Q 3128 4100 2886 4159 
Q 2644 4219 2406 4219 
Q 1781 4219 1451 3797 
Q 1122 3375 1075 2522 
Q 1259 2794 1537 2939 
Q 1816 3084 2150 3084 
Q 2853 3084 3261 2657 
Q 3669 2231 3669 1497 
Q 3669 778 3244 343 
Q 2819 -91 2113 -91 
Q 1303 -91 875 529 
Q 447 1150 447 2328 
Q 447 3434 972 4092 
Q 1497 4750 2381 4750 
Q 2619 4750 2861 4703 
Q 3103 4656 3366 4563 
z
" transform="scale(0.015625)"/>
     </defs>
     <use xlink:href="#DejaVuSans-20"/>
     <use xlink:href="#DejaVuSans-36" transform="translate(31.787109 0)"/>
    </g>
   </g>
   <g id="text_23">
    <!--  7 -->
    <g style="fill: #2ca02c" transform="translate(188.220704 160.834572) scale(0.1 -0.1)">
     <defs>
      <path id="DejaVuSans-37" d="M 525 4666 
L 3525 4666 
L 3525 4397 
L 1831 0 
L 1172 0 
L 2766 4134 
L 525 4134 
L 525 4666 
z
" transform="scale(0.015625)"/>
     </defs>
     <use xlink:href="#DejaVuSans-20"/>
     <use xlink:href="#DejaVuSans-37" transform="translate(31.787109 0)"/>
    </g>
   </g>
   <g id="text_24">
    <!--  8 -->
    <g style="fill: #d62728" transform="translate(181.817195 142.711266) scale(0.1 -0.1)">
     <defs>
      <path id="DejaVuSans-38" d="M 2034 2216 
Q 1584 2216 1326 1975 
Q 1069 1734 1069 1313 
Q 1069 891 1326 650 
Q 1584 409 2034 409 
Q 2484 409 2743 651 
Q 3003 894 3003 1313 
Q 3003 1734 2745 1975 
Q 2488 2216 2034 2216 
z
M 1403 2484 
Q 997 2584 770 2862 
Q 544 3141 544 3541 
Q 544 4100 942 4425 
Q 1341 4750 2034 4750 
Q 2731 4750 3128 4425 
Q 3525 4100 3525 3541 
Q 3525 3141 3298 2862 
Q 3072 2584 2669 2484 
Q 3125 2378 3379 2068 
Q 3634 1759 3634 1313 
Q 3634 634 3220 271 
Q 2806 -91 2034 -91 
Q 1263 -91 848 271 
Q 434 634 434 1313 
Q 434 1759 690 2068 
Q 947 2378 1403 2484 
z
M 1172 3481 
Q 1172 3119 1398 2916 
Q 1625 2713 2034 2713 
Q 2441 2713 2670 2916 
Q 2900 3119 2900 3481 
Q 2900 3844 2670 4047 
Q 2441 4250 2034 4250 
Q 1625 4250 1398 4047 
Q 1172 3844 1172 3481 
z
" transform="scale(0.015625)"/>
     </defs>
     <use xlink:href="#DejaVuSans-20"/>
     <use xlink:href="#DejaVuSans-38" transform="translate(31.787109 0)"/>
    </g>
   </g>
   <g id="text_25">
    <!--  9 -->
    <g style="fill: #9467bd" transform="translate(171.903111 128.395369) scale(0.1 -0.1)">
     <defs>
      <path id="DejaVuSans-39" d="M 703 97 
L 703 672 
Q 941 559 1184 500 
Q 1428 441 1663 441 
Q 2288 441 2617 861 
Q 2947 1281 2994 2138 
Q 2813 1869 2534 1725 
Q 2256 1581 1919 1581 
Q 1219 1581 811 2004 
Q 403 2428 403 3163 
Q 403 3881 828 4315 
Q 1253 4750 1959 4750 
Q 2769 4750 3195 4129 
Q 3622 3509 3622 2328 
Q 3622 1225 3098 567 
Q 2575 -91 1691 -91 
Q 1453 -91 1209 -44 
Q 966 3 703 97 
z
M 1959 2075 
Q 2384 2075 2632 2365 
Q 2881 2656 2881 3163 
Q 2881 3666 2632 3958 
Q 2384 4250 1959 4250 
Q 1534 4250 1286 3958 
Q 1038 3666 1038 3163 
Q 1038 2656 1286 2365 
Q 1534 2075 1959 2075 
z
" transform="scale(0.015625)"/>
     </defs>
     <use xlink:href="#DejaVuSans-20"/>
     <use xlink:href="#DejaVuSans-39" transform="translate(31.787109 0)"/>
    </g>
   </g>
   <g id="text_26">
    <!--  10 -->
    <g style="fill: #1f77b4" transform="translate(159.448916 119.288225) scale(0.1 -0.1)">
     <use xlink:href="#DejaVuSans-20"/>
     <use xlink:href="#DejaVuSans-31" transform="translate(31.787109 0)"/>
     <use xlink:href="#DejaVuSans-30" transform="translate(95.410156 0)"/>
    </g>
   </g>
   <g id="text_27">
    <!-- $\Omega$ -->
    <g style="fill: #808080" transform="translate(152.486599 178.385526) scale(0.12 -0.12)">
     <defs>
      <path id="DejaVuSans-3a9" d="M 4647 556 
L 4647 0 
L 2772 0 
L 2772 556 
Q 3325 859 3634 1378 
Q 3944 1897 3944 2528 
Q 3944 3278 3531 3731 
Q 3119 4184 2444 4184 
Q 1769 4184 1355 3729 
Q 941 3275 941 2528 
Q 941 1897 1250 1378 
Q 1563 859 2119 556 
L 2119 0 
L 244 0 
L 244 556 
L 1241 556 
Q 747 991 519 1456 
Q 294 1922 294 2497 
Q 294 3491 894 4106 
Q 1491 4722 2444 4722 
Q 3391 4722 3994 4106 
Q 4594 3494 4594 2528 
Q 4594 1922 4372 1459 
Q 4150 997 3647 556 
L 4647 556 
z
" transform="scale(0.015625)"/>
     </defs>
     <use xlink:href="#DejaVuSans-3a9" transform="translate(0 0.21875)"/>
    </g>
   </g>
   <g id="text_28">
    <!-- trajectory in inertial frame -->
    <g transform="translate(66.786573 77.614532) scale(0.12 -0.12)">
     <defs>
      <path id="DejaVuSans-74" d="M 1172 4494 
L 1172 3500 
L 2356 3500 
L 2356 3053 
L 1172 3053 
L 1172 1153 
Q 1172 725 1289 603 
Q 1406 481 1766 481 
L 2356 481 
L 2356 0 
L 1766 0 
Q 1100 0 847 248 
Q 594 497 594 1153 
L 594 3053 
L 172 3053 
L 172 3500 
L 594 3500 
L 594 4494 
L 1172 4494 
z
" transform="scale(0.015625)"/>
      <path id="DejaVuSans-72" d="M 2631 2963 
Q 2534 3019 2420 3045 
Q 2306 3072 2169 3072 
Q 1681 3072 1420 2755 
Q 1159 2438 1159 1844 
L 1159 0 
L 581 0 
L 581 3500 
L 1159 3500 
L 1159 2956 
Q 1341 3275 1631 3429 
Q 1922 3584 2338 3584 
Q 2397 3584 2469 3576 
Q 2541 3569 2628 3553 
L 2631 2963 
z
" transform="scale(0.015625)"/>
      <path id="DejaVuSans-61" d="M 2194 1759 
Q 1497 1759 1228 1600 
Q 959 1441 959 1056 
Q 959 750 1161 570 
Q 1363 391 1709 391 
Q 2188 391 2477 730 
Q 2766 1069 2766 1631 
L 2766 1759 
L 2194 1759 
z
M 3341 1997 
L 3341 0 
L 2766 0 
L 2766 531 
Q 2569 213 2275 61 
Q 1981 -91 1556 -91 
Q 1019 -91 701 211 
Q 384 513 384 1019 
Q 384 1609 779 1909 
Q 1175 2209 1959 2209 
L 2766 2209 
L 2766 2266 
Q 2766 2663 2505 2880 
Q 2244 3097 1772 3097 
Q 1472 3097 1187 3025 
Q 903 2953 641 2809 
L 641 3341 
Q 956 3463 1253 3523 
Q 1550 3584 1831 3584 
Q 2591 3584 2966 3190 
Q 3341 2797 3341 1997 
z
" transform="scale(0.015625)"/>
      <path id="DejaVuSans-6a" d="M 603 3500 
L 1178 3500 
L 1178 -63 
Q 1178 -731 923 -1031 
Q 669 -1331 103 -1331 
L -116 -1331 
L -116 -844 
L 38 -844 
Q 366 -844 484 -692 
Q 603 -541 603 -63 
L 603 3500 
z
M 603 4863 
L 1178 4863 
L 1178 4134 
L 603 4134 
L 603 4863 
z
" transform="scale(0.015625)"/>
      <path id="DejaVuSans-65" d="M 3597 1894 
L 3597 1613 
L 953 1613 
Q 991 1019 1311 708 
Q 1631 397 2203 397 
Q 2534 397 2845 478 
Q 3156 559 3463 722 
L 3463 178 
Q 3153 47 2828 -22 
Q 2503 -91 2169 -91 
Q 1331 -91 842 396 
Q 353 884 353 1716 
Q 353 2575 817 3079 
Q 1281 3584 2069 3584 
Q 2775 3584 3186 3129 
Q 3597 2675 3597 1894 
z
M 3022 2063 
Q 3016 2534 2758 2815 
Q 2500 3097 2075 3097 
Q 1594 3097 1305 2825 
Q 1016 2553 972 2059 
L 3022 2063 
z
" transform="scale(0.015625)"/>
      <path id="DejaVuSans-63" d="M 3122 3366 
L 3122 2828 
Q 2878 2963 2633 3030 
Q 2388 3097 2138 3097 
Q 1578 3097 1268 2742 
Q 959 2388 959 1747 
Q 959 1106 1268 751 
Q 1578 397 2138 397 
Q 2388 397 2633 464 
Q 2878 531 3122 666 
L 3122 134 
Q 2881 22 2623 -34 
Q 2366 -91 2075 -91 
Q 1284 -91 818 406 
Q 353 903 353 1747 
Q 353 2603 823 3093 
Q 1294 3584 2113 3584 
Q 2378 3584 2631 3529 
Q 2884 3475 3122 3366 
z
" transform="scale(0.015625)"/>
      <path id="DejaVuSans-6f" d="M 1959 3097 
Q 1497 3097 1228 2736 
Q 959 2375 959 1747 
Q 959 1119 1226 758 
Q 1494 397 1959 397 
Q 2419 397 2687 759 
Q 2956 1122 2956 1747 
Q 2956 2369 2687 2733 
Q 2419 3097 1959 3097 
z
M 1959 3584 
Q 2709 3584 3137 3096 
Q 3566 2609 3566 1747 
Q 3566 888 3137 398 
Q 2709 -91 1959 -91 
Q 1206 -91 779 398 
Q 353 888 353 1747 
Q 353 2609 779 3096 
Q 1206 3584 1959 3584 
z
" transform="scale(0.015625)"/>
      <path id="DejaVuSans-69" d="M 603 3500 
L 1178 3500 
L 1178 0 
L 603 0 
L 603 3500 
z
M 603 4863 
L 1178 4863 
L 1178 4134 
L 603 4134 
L 603 4863 
z
" transform="scale(0.015625)"/>
      <path id="DejaVuSans-6e" d="M 3513 2113 
L 3513 0 
L 2938 0 
L 2938 2094 
Q 2938 2591 2744 2837 
Q 2550 3084 2163 3084 
Q 1697 3084 1428 2787 
Q 1159 2491 1159 1978 
L 1159 0 
L 581 0 
L 581 3500 
L 1159 3500 
L 1159 2956 
Q 1366 3272 1645 3428 
Q 1925 3584 2291 3584 
Q 2894 3584 3203 3211 
Q 3513 2838 3513 2113 
z
" transform="scale(0.015625)"/>
      <path id="DejaVuSans-6c" d="M 603 4863 
L 1178 4863 
L 1178 0 
L 603 0 
L 603 4863 
z
" transform="scale(0.015625)"/>
      <path id="DejaVuSans-66" d="M 2375 4863 
L 2375 4384 
L 1825 4384 
Q 1516 4384 1395 4259 
Q 1275 4134 1275 3809 
L 1275 3500 
L 2222 3500 
L 2222 3053 
L 1275 3053 
L 1275 0 
L 697 0 
L 697 3053 
L 147 3053 
L 147 3500 
L 697 3500 
L 697 3744 
Q 697 4328 969 4595 
Q 1241 4863 1831 4863 
L 2375 4863 
z
" transform="scale(0.015625)"/>
     </defs>
     <use xlink:href="#DejaVuSans-74"/>
     <use xlink:href="#DejaVuSans-72" transform="translate(39.208984 0)"/>
     <use xlink:href="#DejaVuSans-61" transform="translate(80.322266 0)"/>
     <use xlink:href="#DejaVuSans-6a" transform="translate(141.601562 0)"/>
     <use xlink:href="#DejaVuSans-65" transform="translate(169.384766 0)"/>
     <use xlink:href="#DejaVuSans-63" transform="translate(230.908203 0)"/>
     <use xlink:href="#DejaVuSans-74" transform="translate(285.888672 0)"/>
     <use xlink:href="#DejaVuSans-6f" transform="translate(325.097656 0)"/>
     <use xlink:href="#DejaVuSans-72" transform="translate(386.279297 0)"/>
     <use xlink:href="#DejaVuSans-79" transform="translate(427.392578 0)"/>
     <use xlink:href="#DejaVuSans-20" transform="translate(486.572266 0)"/>
     <use xlink:href="#DejaVuSans-69" transform="translate(518.359375 0)"/>
     <use xlink:href="#DejaVuSans-6e" transform="translate(546.142578 0)"/>
     <use xlink:href="#DejaVuSans-20" transform="translate(609.521484 0)"/>
     <use xlink:href="#DejaVuSans-69" transform="translate(641.308594 0)"/>
     <use xlink:href="#DejaVuSans-6e" transform="translate(669.091797 0)"/>
     <use xlink:href="#DejaVuSans-65" transform="translate(732.470703 0)"/>
     <use xlink:href="#DejaVuSans-72" transform="translate(793.994141 0)"/>
     <use xlink:href="#DejaVuSans-74" transform="translate(835.107422 0)"/>
     <use xlink:href="#DejaVuSans-69" transform="translate(874.316406 0)"/>
     <use xlink:href="#DejaVuSans-61" transform="translate(902.099609 0)"/>
     <use xlink:href="#DejaVuSans-6c" transform="translate(963.378906 0)"/>
     <use xlink:href="#DejaVuSans-20" transform="translate(991.162109 0)"/>
     <use xlink:href="#DejaVuSans-66" transform="translate(1022.949219 0)"/>
     <use xlink:href="#DejaVuSans-72" transform="translate(1058.154297 0)"/>
     <use xlink:href="#DejaVuSans-61" transform="translate(1099.267578 0)"/>
     <use xlink:href="#DejaVuSans-6d" transform="translate(1160.546875 0)"/>
     <use xlink:href="#DejaVuSans-65" transform="translate(1257.958984 0)"/>
    </g>
   </g>
   <g id="patch_9">
    <path d="M 146.109117 217.876939 
L 147.756303 221.136333 
L 146.155772 221.143189 
L 146.266238 246.932785 
L 146.20091 246.933064 
L 146.090444 221.143469 
L 144.489913 221.150324 
z
" clip-path="url(#p07112cb3bf)" style="fill: #ff7f0e; opacity: 0.5; stroke: #ff7f0e; stroke-linejoin: miter"/>
   </g>
   <g id="patch_10">
    <path d="M 100.223888 246.935504 
L 106.756727 244.975652 
L 106.756727 246.902839 
L 145.95376 246.902839 
L 145.95376 246.968168 
L 106.756727 246.968168 
L 106.756727 248.895355 
z
" clip-path="url(#p07112cb3bf)" style="fill: #ff7f0e; opacity: 0.5; stroke: #ff7f0e; stroke-linejoin: miter"/>
   </g>
   <g id="patch_11">
    <path d="M 153.721995 215.907393 
L 156.036363 218.732384 
L 154.47535 219.085918 
L 160.01323 243.538164 
L 159.949515 243.552594 
L 154.411636 219.100348 
L 152.850623 219.453881 
z
" clip-path="url(#p07112cb3bf)" style="fill: #2ca02c; opacity: 0.5; stroke: #2ca02c; stroke-linejoin: miter"/>
   </g>
   <g id="patch_12">
    <path d="M 100.223888 246.935504 
L 106.756727 244.975652 
L 106.756727 246.902839 
L 145.95376 246.902839 
L 145.95376 246.968168 
L 106.756727 246.968168 
L 106.756727 248.895355 
z
" clip-path="url(#p07112cb3bf)" style="fill: #ff7f0e; opacity: 0.5; stroke: #ff7f0e; stroke-linejoin: miter"/>
   </g>
   <g id="patch_13">
    <path d="M 160.465013 210.455489 
L 163.391863 212.639618 
L 161.962022 213.358854 
L 172.385226 234.080187 
L 172.326865 234.109543 
L 161.903661 213.38821 
L 160.47382 214.107446 
z
" clip-path="url(#p07112cb3bf)" style="fill: #d62728; opacity: 0.5; stroke: #d62728; stroke-linejoin: miter"/>
   </g>
   <g id="patch_14">
    <path d="M 100.223888 246.935504 
L 106.756727 244.975652 
L 106.756727 246.902839 
L 145.95376 246.902839 
L 145.95376 246.968168 
L 106.756727 246.968168 
L 106.756727 248.895355 
z
" clip-path="url(#p07112cb3bf)" style="fill: #ff7f0e; opacity: 0.5; stroke: #ff7f0e; stroke-linejoin: miter"/>
   </g>
   <g id="patch_15">
    <path d="M 165.60214 202.182114 
L 169.039185 203.416453 
L 167.881663 204.521844 
L 182.169894 219.483909 
L 182.122648 219.529027 
L 167.834418 204.566962 
L 166.676896 205.672353 
z
" clip-path="url(#p07112cb3bf)" style="fill: #9467bd; opacity: 0.5; stroke: #9467bd; stroke-linejoin: miter"/>
   </g>
   <g id="patch_16">
    <path d="M 100.223888 246.935504 
L 106.756727 244.975652 
L 106.756727 246.902839 
L 145.95376 246.902839 
L 145.95376 246.968168 
L 106.756727 246.968168 
L 106.756727 248.895355 
z
" clip-path="url(#p07112cb3bf)" style="fill: #ff7f0e; opacity: 0.5; stroke: #ff7f0e; stroke-linejoin: miter"/>
   </g>
   <g id="patch_17">
    <path d="M 168.67367 192.100412 
L 172.323886 191.987296 
L 171.652785 193.440351 
L 188.407406 201.178551 
L 188.380014 201.23786 
L 171.625393 193.499659 
L 170.954293 194.952715 
z
" clip-path="url(#p07112cb3bf)" style="fill: #1f77b4; opacity: 0.5; stroke: #1f77b4; stroke-linejoin: miter"/>
   </g>
   <g id="patch_18">
    <path d="M 100.223888 246.935504 
L 106.756727 244.975652 
L 106.756727 246.902839 
L 145.95376 246.902839 
L 145.95376 246.968168 
L 106.756727 246.968168 
L 106.756727 248.895355 
z
" clip-path="url(#p07112cb3bf)" style="fill: #ff7f0e; opacity: 0.5; stroke: #ff7f0e; stroke-linejoin: miter"/>
   </g>
   <g id="patch_19">
    <path d="M 169.639764 181.27955 
L 172.883287 179.601328 
L 172.905419 181.20172 
L 190.486365 180.958585 
L 190.487269 181.023907 
L 172.906323 181.267042 
L 172.928455 182.867435 
z
" clip-path="url(#p07112cb3bf)" style="fill: #ff7f0e; opacity: 0.5; stroke: #ff7f0e; stroke-linejoin: miter"/>
   </g>
   <g id="patch_20">
    <path d="M 100.223888 246.935504 
L 106.756727 244.975652 
L 106.756727 246.902839 
L 145.95376 246.902839 
L 145.95376 246.968168 
L 106.756727 246.968168 
L 106.756727 248.895355 
z
" clip-path="url(#p07112cb3bf)" style="fill: #ff7f0e; opacity: 0.5; stroke: #ff7f0e; stroke-linejoin: miter"/>
   </g>
   <g id="patch_21">
    <path d="M 168.602865 170.47597 
L 170.81402 167.569484 
L 171.519976 169.005928 
L 188.206297 160.805256 
L 188.235111 160.863887 
L 171.548791 169.064558 
L 172.254747 170.501003 
z
" clip-path="url(#p07112cb3bf)" style="fill: #2ca02c; opacity: 0.5; stroke: #2ca02c; stroke-linejoin: miter"/>
   </g>
   <g id="patch_22">
    <path d="M 100.223888 246.935504 
L 106.756727 244.975652 
L 106.756727 246.902839 
L 145.95376 246.902839 
L 145.95376 246.968168 
L 106.756727 246.968168 
L 106.756727 248.895355 
z
" clip-path="url(#p07112cb3bf)" style="fill: #ff7f0e; opacity: 0.5; stroke: #ff7f0e; stroke-linejoin: miter"/>
   </g>
   <g id="patch_23">
    <path d="M 165.444679 160.468151 
L 166.458168 156.959632 
L 167.634864 158.044589 
L 181.793181 142.689124 
L 181.841209 142.733408 
L 167.682893 158.088873 
L 168.859588 159.173831 
z
" clip-path="url(#p07112cb3bf)" style="fill: #d62728; opacity: 0.5; stroke: #d62728; stroke-linejoin: miter"/>
   </g>
   <g id="patch_24">
    <path d="M 100.223888 246.935504 
L 106.756727 244.975652 
L 106.756727 246.902839 
L 145.95376 246.902839 
L 145.95376 246.968168 
L 106.756727 246.968168 
L 106.756727 248.895355 
z
" clip-path="url(#p07112cb3bf)" style="fill: #ff7f0e; opacity: 0.5; stroke: #ff7f0e; stroke-linejoin: miter"/>
   </g>
   <g id="patch_25">
    <path d="M 160.226981 152.338444 
L 160.190758 148.686656 
L 161.629359 149.388207 
L 171.873752 128.381051 
L 171.93247 128.409686 
L 161.688077 149.416841 
L 163.126678 150.118392 
z
" clip-path="url(#p07112cb3bf)" style="fill: #9467bd; opacity: 0.5; stroke: #9467bd; stroke-linejoin: miter"/>
   </g>
   <g id="patch_26">
    <path d="M 100.223888 246.935504 
L 106.756727 244.975652 
L 106.756727 246.902839 
L 145.95376 246.902839 
L 145.95376 246.968168 
L 106.756727 246.968168 
L 106.756727 248.895355 
z
" clip-path="url(#p07112cb3bf)" style="fill: #ff7f0e; opacity: 0.5; stroke: #ff7f0e; stroke-linejoin: miter"/>
   </g>
   <g id="patch_27">
    <path d="M 153.429923 147.083161 
L 152.52503 143.545077 
L 154.089318 143.883824 
L 159.416992 119.281312 
L 159.48084 119.295138 
L 154.153166 143.89765 
L 155.717454 144.236396 
z
" clip-path="url(#p07112cb3bf)" style="fill: #1f77b4; opacity: 0.5; stroke: #1f77b4; stroke-linejoin: miter"/>
   </g>
   <g id="patch_28">
    <path d="M 100.223888 246.935504 
L 106.756727 244.975652 
L 106.756727 246.902839 
L 145.95376 246.902839 
L 145.95376 246.968168 
L 106.756727 246.968168 
L 106.756727 248.895355 
z
" clip-path="url(#p07112cb3bf)" style="fill: #ff7f0e; opacity: 0.5; stroke: #ff7f0e; stroke-linejoin: miter"/>
   </g>
  </g>
  <g id="axes_2">
   <g id="patch_29">
    <path d="M 302.859323 255.101552 
L 449.848197 255.101552 
L 449.848197 108.112678 
L 302.859323 108.112678 
z
" style="fill: #ffffff"/>
   </g>
   <g id="matplotlib.axis_3">
    <g id="xtick_8">
     <g id="line2d_47">
      <g>
       <use xlink:href="#mf1436c1879" x="302.859323" y="255.101552" style="stroke: #000000; stroke-width: 0.8"/>
      </g>
     </g>
     <g id="text_29">
      <!-- −0.4 -->
      <g transform="translate(290.717917 269.69999) scale(0.1 -0.1)">
       <use xlink:href="#DejaVuSans-2212"/>
       <use xlink:href="#DejaVuSans-30" transform="translate(83.789062 0)"/>
       <use xlink:href="#DejaVuSans-2e" transform="translate(147.412109 0)"/>
       <use xlink:href="#DejaVuSans-34" transform="translate(179.199219 0)"/>
      </g>
     </g>
    </g>
    <g id="xtick_9">
     <g id="line2d_48">
      <g>
       <use xlink:href="#mf1436c1879" x="339.606542" y="255.101552" style="stroke: #000000; stroke-width: 0.8"/>
      </g>
     </g>
     <g id="text_30">
      <!-- −0.2 -->
      <g transform="translate(327.465136 269.69999) scale(0.1 -0.1)">
       <use xlink:href="#DejaVuSans-2212"/>
       <use xlink:href="#DejaVuSans-30" transform="translate(83.789062 0)"/>
       <use xlink:href="#DejaVuSans-2e" transform="translate(147.412109 0)"/>
       <use xlink:href="#DejaVuSans-32" transform="translate(179.199219 0)"/>
      </g>
     </g>
    </g>
    <g id="xtick_10">
     <g id="line2d_49">
      <g>
       <use xlink:href="#mf1436c1879" x="376.35376" y="255.101552" style="stroke: #000000; stroke-width: 0.8"/>
      </g>
     </g>
     <g id="text_31">
      <!-- 0.0 -->
      <g transform="translate(368.402198 269.69999) scale(0.1 -0.1)">
       <use xlink:href="#DejaVuSans-30"/>
       <use xlink:href="#DejaVuSans-2e" transform="translate(63.623047 0)"/>
       <use xlink:href="#DejaVuSans-30" transform="translate(95.410156 0)"/>
      </g>
     </g>
    </g>
    <g id="xtick_11">
     <g id="line2d_50">
      <g>
       <use xlink:href="#mf1436c1879" x="413.100979" y="255.101552" style="stroke: #000000; stroke-width: 0.8"/>
      </g>
     </g>
     <g id="text_32">
      <!-- 0.2 -->
      <g transform="translate(405.149416 269.69999) scale(0.1 -0.1)">
       <use xlink:href="#DejaVuSans-30"/>
       <use xlink:href="#DejaVuSans-2e" transform="translate(63.623047 0)"/>
       <use xlink:href="#DejaVuSans-32" transform="translate(95.410156 0)"/>
      </g>
     </g>
    </g>
    <g id="xtick_12">
     <g id="line2d_51">
      <g>
       <use xlink:href="#mf1436c1879" x="449.848197" y="255.101552" style="stroke: #000000; stroke-width: 0.8"/>
      </g>
     </g>
     <g id="text_33">
      <!-- 0.4 -->
      <g transform="translate(441.896635 269.69999) scale(0.1 -0.1)">
       <use xlink:href="#DejaVuSans-30"/>
       <use xlink:href="#DejaVuSans-2e" transform="translate(63.623047 0)"/>
       <use xlink:href="#DejaVuSans-34" transform="translate(95.410156 0)"/>
      </g>
     </g>
    </g>
    <g id="text_34">
     <!-- EAST [m] -->
     <g transform="translate(353.18501 283.378115) scale(0.1 -0.1)">
      <defs>
       <path id="DejaVuSans-45" d="M 628 4666 
L 3578 4666 
L 3578 4134 
L 1259 4134 
L 1259 2753 
L 3481 2753 
L 3481 2222 
L 1259 2222 
L 1259 531 
L 3634 531 
L 3634 0 
L 628 0 
L 628 4666 
z
" transform="scale(0.015625)"/>
       <path id="DejaVuSans-41" d="M 2188 4044 
L 1331 1722 
L 3047 1722 
L 2188 4044 
z
M 1831 4666 
L 2547 4666 
L 4325 0 
L 3669 0 
L 3244 1197 
L 1141 1197 
L 716 0 
L 50 0 
L 1831 4666 
z
" transform="scale(0.015625)"/>
       <path id="DejaVuSans-53" d="M 3425 4513 
L 3425 3897 
Q 3066 4069 2747 4153 
Q 2428 4238 2131 4238 
Q 1616 4238 1336 4038 
Q 1056 3838 1056 3469 
Q 1056 3159 1242 3001 
Q 1428 2844 1947 2747 
L 2328 2669 
Q 3034 2534 3370 2195 
Q 3706 1856 3706 1288 
Q 3706 609 3251 259 
Q 2797 -91 1919 -91 
Q 1588 -91 1214 -16 
Q 841 59 441 206 
L 441 856 
Q 825 641 1194 531 
Q 1563 422 1919 422 
Q 2459 422 2753 634 
Q 3047 847 3047 1241 
Q 3047 1584 2836 1778 
Q 2625 1972 2144 2069 
L 1759 2144 
Q 1053 2284 737 2584 
Q 422 2884 422 3419 
Q 422 4038 858 4394 
Q 1294 4750 2059 4750 
Q 2388 4750 2728 4690 
Q 3069 4631 3425 4513 
z
" transform="scale(0.015625)"/>
       <path id="DejaVuSans-54" d="M -19 4666 
L 3928 4666 
L 3928 4134 
L 2272 4134 
L 2272 0 
L 1638 0 
L 1638 4134 
L -19 4134 
L -19 4666 
z
" transform="scale(0.015625)"/>
      </defs>
      <use xlink:href="#DejaVuSans-45"/>
      <use xlink:href="#DejaVuSans-41" transform="translate(63.183594 0)"/>
      <use xlink:href="#DejaVuSans-53" transform="translate(131.591797 0)"/>
      <use xlink:href="#DejaVuSans-54" transform="translate(195.068359 0)"/>
      <use xlink:href="#DejaVuSans-20" transform="translate(256.152344 0)"/>
      <use xlink:href="#DejaVuSans-5b" transform="translate(287.939453 0)"/>
      <use xlink:href="#DejaVuSans-6d" transform="translate(326.953125 0)"/>
      <use xlink:href="#DejaVuSans-5d" transform="translate(424.365234 0)"/>
     </g>
    </g>
   </g>
   <g id="matplotlib.axis_4">
    <g id="ytick_8">
     <g id="line2d_52">
      <g>
       <use xlink:href="#m215c72f00e" x="302.859323" y="255.101552" style="stroke: #000000; stroke-width: 0.8"/>
      </g>
     </g>
     <g id="text_35">
      <!-- −0.4 -->
      <g transform="translate(271.576511 258.900771) scale(0.1 -0.1)">
       <use xlink:href="#DejaVuSans-2212"/>
       <use xlink:href="#DejaVuSans-30" transform="translate(83.789062 0)"/>
       <use xlink:href="#DejaVuSans-2e" transform="translate(147.412109 0)"/>
       <use xlink:href="#DejaVuSans-34" transform="translate(179.199219 0)"/>
      </g>
     </g>
    </g>
    <g id="ytick_9">
     <g id="line2d_53">
      <g>
       <use xlink:href="#m215c72f00e" x="302.859323" y="218.354334" style="stroke: #000000; stroke-width: 0.8"/>
      </g>
     </g>
     <g id="text_36">
      <!-- −0.2 -->
      <g transform="translate(271.576511 222.153552) scale(0.1 -0.1)">
       <use xlink:href="#DejaVuSans-2212"/>
       <use xlink:href="#DejaVuSans-30" transform="translate(83.789062 0)"/>
       <use xlink:href="#DejaVuSans-2e" transform="translate(147.412109 0)"/>
       <use xlink:href="#DejaVuSans-32" transform="translate(179.199219 0)"/>
      </g>
     </g>
    </g>
    <g id="ytick_10">
     <g id="line2d_54">
      <g>
       <use xlink:href="#m215c72f00e" x="302.859323" y="181.607115" style="stroke: #000000; stroke-width: 0.8"/>
      </g>
     </g>
     <g id="text_37">
      <!-- 0.0 -->
      <g transform="translate(279.956198 185.406334) scale(0.1 -0.1)">
       <use xlink:href="#DejaVuSans-30"/>
       <use xlink:href="#DejaVuSans-2e" transform="translate(63.623047 0)"/>
       <use xlink:href="#DejaVuSans-30" transform="translate(95.410156 0)"/>
      </g>
     </g>
    </g>
    <g id="ytick_11">
     <g id="line2d_55">
      <g>
       <use xlink:href="#m215c72f00e" x="302.859323" y="144.859896" style="stroke: #000000; stroke-width: 0.8"/>
      </g>
     </g>
     <g id="text_38">
      <!-- 0.2 -->
      <g transform="translate(279.956198 148.659115) scale(0.1 -0.1)">
       <use xlink:href="#DejaVuSans-30"/>
       <use xlink:href="#DejaVuSans-2e" transform="translate(63.623047 0)"/>
       <use xlink:href="#DejaVuSans-32" transform="translate(95.410156 0)"/>
      </g>
     </g>
    </g>
    <g id="ytick_12">
     <g id="line2d_56">
      <g>
       <use xlink:href="#m215c72f00e" x="302.859323" y="108.112678" style="stroke: #000000; stroke-width: 0.8"/>
      </g>
     </g>
     <g id="text_39">
      <!-- 0.4 -->
      <g transform="translate(279.956198 111.911897) scale(0.1 -0.1)">
       <use xlink:href="#DejaVuSans-30"/>
       <use xlink:href="#DejaVuSans-2e" transform="translate(63.623047 0)"/>
       <use xlink:href="#DejaVuSans-34" transform="translate(95.410156 0)"/>
      </g>
     </g>
    </g>
    <g id="text_40">
     <!-- NORTH [m] -->
     <g transform="translate(265.496823 209.570396) rotate(-90) scale(0.1 -0.1)">
      <defs>
       <path id="DejaVuSans-4e" d="M 628 4666 
L 1478 4666 
L 3547 763 
L 3547 4666 
L 4159 4666 
L 4159 0 
L 3309 0 
L 1241 3903 
L 1241 0 
L 628 0 
L 628 4666 
z
" transform="scale(0.015625)"/>
       <path id="DejaVuSans-4f" d="M 2522 4238 
Q 1834 4238 1429 3725 
Q 1025 3213 1025 2328 
Q 1025 1447 1429 934 
Q 1834 422 2522 422 
Q 3209 422 3611 934 
Q 4013 1447 4013 2328 
Q 4013 3213 3611 3725 
Q 3209 4238 2522 4238 
z
M 2522 4750 
Q 3503 4750 4090 4092 
Q 4678 3434 4678 2328 
Q 4678 1225 4090 567 
Q 3503 -91 2522 -91 
Q 1538 -91 948 565 
Q 359 1222 359 2328 
Q 359 3434 948 4092 
Q 1538 4750 2522 4750 
z
" transform="scale(0.015625)"/>
       <path id="DejaVuSans-52" d="M 2841 2188 
Q 3044 2119 3236 1894 
Q 3428 1669 3622 1275 
L 4263 0 
L 3584 0 
L 2988 1197 
Q 2756 1666 2539 1819 
Q 2322 1972 1947 1972 
L 1259 1972 
L 1259 0 
L 628 0 
L 628 4666 
L 2053 4666 
Q 2853 4666 3247 4331 
Q 3641 3997 3641 3322 
Q 3641 2881 3436 2590 
Q 3231 2300 2841 2188 
z
M 1259 4147 
L 1259 2491 
L 2053 2491 
Q 2509 2491 2742 2702 
Q 2975 2913 2975 3322 
Q 2975 3731 2742 3939 
Q 2509 4147 2053 4147 
L 1259 4147 
z
" transform="scale(0.015625)"/>
       <path id="DejaVuSans-48" d="M 628 4666 
L 1259 4666 
L 1259 2753 
L 3553 2753 
L 3553 4666 
L 4184 4666 
L 4184 0 
L 3553 0 
L 3553 2222 
L 1259 2222 
L 1259 0 
L 628 0 
L 628 4666 
z
" transform="scale(0.015625)"/>
      </defs>
      <use xlink:href="#DejaVuSans-4e"/>
      <use xlink:href="#DejaVuSans-4f" transform="translate(74.804688 0)"/>
      <use xlink:href="#DejaVuSans-52" transform="translate(153.515625 0)"/>
      <use xlink:href="#DejaVuSans-54" transform="translate(215.748047 0)"/>
      <use xlink:href="#DejaVuSans-48" transform="translate(276.832031 0)"/>
      <use xlink:href="#DejaVuSans-20" transform="translate(352.027344 0)"/>
      <use xlink:href="#DejaVuSans-5b" transform="translate(383.814453 0)"/>
      <use xlink:href="#DejaVuSans-6d" transform="translate(422.828125 0)"/>
      <use xlink:href="#DejaVuSans-5d" transform="translate(520.240234 0)"/>
     </g>
    </g>
   </g>
   <g id="line2d_57">
    <path d="M 375.986288 181.607115 
L 373.418043 181.477912 
L 370.871079 181.123585 
L 368.36509 180.546875 
L 365.919455 179.75224 
L 363.553085 178.745825 
L 361.28428 177.535413 
L 359.130582 176.130364 
L 357.108648 174.541543 
L 355.23411 172.781235 
L 353.521466 170.863053 
L 351.983959 168.80183 
L 350.633477 166.613504 
L 349.480463 164.314998 
L 348.533835 161.924085 
L 347.800911 159.459254 
L 347.287359 156.939566 
L 346.997151 154.384503 
L 346.93253 151.813824 
L 347.093997 149.247408 
L 347.480302 146.705099 
L 348.088459 144.206558 
L 348.913764 141.771105 
L 349.949836 139.417572 
L 351.188663 137.16416 
L 352.620665 135.028293 
L 354.234769 133.026487 
L 356.018494 131.174222 
L 357.958045 129.485822 
L 360.038426 127.974342 
L 362.243549 126.65147 
L 364.556362 125.527436 
L 366.95898 124.610932 
L 369.432825 123.909044 
L 371.958767 123.427201 
L 374.517273 123.169128 
L 377.088558 123.136821 
L 379.652741 123.33053 
L 382.189991 123.748757 
L 384.68069 124.388268 
L 387.105577 125.244117 
L 389.445901 126.309687 
L 391.683565 127.576738 
L 393.801265 129.035471 
L 395.782625 130.674607 
L 397.612325 132.481471 
L 399.276215 134.442091 
L 400.761428 136.541305 
L 402.056481 138.76288 
L 403.151358 141.089639 
L 404.037594 143.503587 
L 404.708334 145.98606 
L 405.158393 148.51786 
L 405.384289 151.079409 
L 405.384277 153.6509 
L 405.158356 156.212448 
L 404.708274 158.744244 
L 404.03751 161.226711 
L 403.151252 163.640653 
L 402.056352 165.967403 
L 400.761278 168.188969 
L 399.276044 170.288171 
L 397.612134 172.248778 
L 395.782417 174.055627 
L 393.801039 175.694748 
L 391.683324 177.153465 
L 389.445646 178.420498 
L 387.10531 179.48605 
L 384.680412 180.341881 
L 382.189704 180.981372 
L 379.652446 181.399579 
L 377.088258 181.593268 
L 374.516968 181.560942 
L 371.95846 181.302849 
L 369.432517 180.820986 
L 366.958674 180.119079 
L 364.556058 179.202556 
L 362.24325 178.078504 
L 360.038133 176.755615 
L 357.95776 175.244119 
L 356.018217 173.555704 
L 354.234503 171.703425 
L 352.62041 169.701607 
L 351.18842 167.565729 
L 349.949606 165.312307 
L 348.913548 162.958766 
L 348.088258 160.523306 
L 347.480116 158.02476 
L 347.093827 155.482449 
L 346.932376 152.916031 
L 346.997012 150.345353 
L 347.287236 147.790293 
L 347.800803 145.270608 
L 348.533742 142.805783 
L 349.480385 140.414877 
L 350.633412 138.11638 
L 351.983906 135.928065 
L 353.521426 133.866854 
L 355.234081 131.948685 
L 357.108627 130.188392 
L 359.13057 128.599586 
L 361.284274 127.194554 
L 363.553085 125.984159 
L 365.919458 124.977763 
L 368.365095 124.183147 
L 370.871084 123.606456 
L 373.418047 123.252149 
L 375.986289 123.122966 
L 378.55595 123.219906 
L 381.107159 123.542219 
L 383.620188 124.087414 
L 386.075606 124.851273 
L 388.454423 125.827891 
L 390.738246 127.009715 
L 392.909414 128.387606 
L 394.951138 129.95091 
L 396.84763 131.687538 
L 398.584224 133.584061 
L 400.147492 135.625814 
L 401.525345 137.797007 
L 402.707128 140.080852 
L 403.683704 142.459688 
L 404.44752 144.91512 
L 404.99267 147.428161 
L 405.314938 149.979378 
L 405.411833 152.549043 
L 405.282604 155.117285 
L 404.928252 157.664244 
L 404.351517 160.170225 
L 403.556858 162.615851 
L 402.55042 164.98221 
L 401.339985 167.251002 
L 399.934914 169.404684 
L 398.346073 171.426603 
L 396.585746 173.301122 
L 394.667546 175.013746 
L 392.606307 176.551233 
L 390.417967 177.901694 
L 388.119448 179.054684 
L 385.728525 180.001289 
L 383.263685 180.734188 
L 380.74399 181.247715 
L 378.188922 181.537898 
L 376.353156 181.607119 
L 376.353156 181.607119 
" clip-path="url(#pd03e09db74)" style="fill: none; stroke: #ff7f0e; stroke-opacity: 0.5; stroke-width: 1.5; stroke-linecap: square"/>
   </g>
   <g id="line2d_58">
    <defs>
     <path id="mf0ea6b8a67" d="M 0 -5 
L -5 5 
L 5 5 
z
" style="stroke: #ff7f0e; stroke-linejoin: miter"/>
    </defs>
    <g clip-path="url(#pd03e09db74)">
     <use xlink:href="#mf0ea6b8a67" x="376.35376" y="181.607115" style="fill: #ff7f0e; stroke: #ff7f0e; stroke-linejoin: miter"/>
    </g>
   </g>
   <g id="line2d_59">
    <defs>
     <path id="m21f18e0f83" d="M 0 3 
C 0.795609 3 1.55874 2.683901 2.12132 2.12132 
C 2.683901 1.55874 3 0.795609 3 0 
C 3 -0.795609 2.683901 -1.55874 2.12132 -2.12132 
C 1.55874 -2.683901 0.795609 -3 0 -3 
C -0.795609 -3 -1.55874 -2.683901 -2.12132 -2.12132 
C -2.683901 -1.55874 -3 -0.795609 -3 0 
C -3 0.795609 -2.683901 1.55874 -2.12132 2.12132 
C -1.55874 2.683901 -0.795609 3 0 3 
z
" style="stroke: #ff7f0e"/>
    </defs>
    <g clip-path="url(#pd03e09db74)">
     <use xlink:href="#m21f18e0f83" x="375.985986" y="181.607115" style="fill: #ff7f0e; stroke: #ff7f0e"/>
    </g>
   </g>
   <g id="line2d_60">
    <defs>
     <path id="m947a6ad0c0" d="M 0 3 
C 0.795609 3 1.55874 2.683901 2.12132 2.12132 
C 2.683901 1.55874 3 0.795609 3 0 
C 3 -0.795609 2.683901 -1.55874 2.12132 -2.12132 
C 1.55874 -2.683901 0.795609 -3 0 -3 
C -0.795609 -3 -1.55874 -2.683901 -2.12132 -2.12132 
C -2.683901 -1.55874 -3 -0.795609 -3 0 
C -3 0.795609 -2.683901 1.55874 -2.12132 2.12132 
C -1.55874 2.683901 -0.795609 3 0 3 
z
" style="stroke: #2ca02c"/>
    </defs>
    <g clip-path="url(#pd03e09db74)">
     <use xlink:href="#m947a6ad0c0" x="358.833018" y="175.914281" style="fill: #2ca02c; stroke: #2ca02c"/>
    </g>
   </g>
   <g id="line2d_61">
    <defs>
     <path id="mc296d33c0c" d="M 0 3 
C 0.795609 3 1.55874 2.683901 2.12132 2.12132 
C 2.683901 1.55874 3 0.795609 3 0 
C 3 -0.795609 2.683901 -1.55874 2.12132 -2.12132 
C 1.55874 -2.683901 0.795609 -3 0 -3 
C -0.795609 -3 -1.55874 -2.683901 -2.12132 -2.12132 
C -2.683901 -1.55874 -3 -0.795609 -3 0 
C -3 0.795609 -2.683901 1.55874 -2.12132 2.12132 
C -1.55874 2.683901 -0.795609 3 0 3 
z
" style="stroke: #d62728"/>
    </defs>
    <g clip-path="url(#pd03e09db74)">
     <use xlink:href="#mc296d33c0c" x="348.302145" y="161.226423" style="fill: #d62728; stroke: #d62728"/>
    </g>
   </g>
   <g id="line2d_62">
    <defs>
     <path id="m67796f24c8" d="M 0 3 
C 0.795609 3 1.55874 2.683901 2.12132 2.12132 
C 2.683901 1.55874 3 0.795609 3 0 
C 3 -0.795609 2.683901 -1.55874 2.12132 -2.12132 
C 1.55874 -2.683901 0.795609 -3 0 -3 
C -0.795609 -3 -1.55874 -2.683901 -2.12132 -2.12132 
C -2.683901 -1.55874 -3 -0.795609 -3 0 
C -3 0.795609 -2.683901 1.55874 -2.12132 2.12132 
C -1.55874 2.683901 -0.795609 3 0 3 
z
" style="stroke: #9467bd"/>
    </defs>
    <g clip-path="url(#pd03e09db74)">
     <use xlink:href="#m67796f24c8" x="348.415802" y="143.153814" style="fill: #9467bd; stroke: #9467bd"/>
    </g>
   </g>
   <g id="line2d_63">
    <defs>
     <path id="m8da8106fa6" d="M 0 3 
C 0.795609 3 1.55874 2.683901 2.12132 2.12132 
C 2.683901 1.55874 3 0.795609 3 0 
C 3 -0.795609 2.683901 -1.55874 2.12132 -2.12132 
C 1.55874 -2.683901 0.795609 -3 0 -3 
C -0.795609 -3 -1.55874 -2.683901 -2.12132 -2.12132 
C -2.683901 -1.55874 -3 -0.795609 -3 0 
C -3 0.795609 -2.683901 1.55874 -2.12132 2.12132 
C -1.55874 2.683901 -0.795609 3 0 3 
z
" style="stroke: #1f77b4"/>
    </defs>
    <g clip-path="url(#pd03e09db74)">
     <use xlink:href="#m8da8106fa6" x="359.13057" y="128.599586" style="fill: #1f77b4; stroke: #1f77b4"/>
    </g>
   </g>
   <g id="line2d_64">
    <g clip-path="url(#pd03e09db74)">
     <use xlink:href="#m21f18e0f83" x="376.35376" y="123.122969" style="fill: #ff7f0e; stroke: #ff7f0e"/>
    </g>
   </g>
   <g id="line2d_65">
    <g clip-path="url(#pd03e09db74)">
     <use xlink:href="#m947a6ad0c0" x="393.506683" y="128.815848" style="fill: #2ca02c; stroke: #2ca02c"/>
    </g>
   </g>
   <g id="line2d_66">
    <g clip-path="url(#pd03e09db74)">
     <use xlink:href="#mc296d33c0c" x="404.037488" y="143.503732" style="fill: #d62728; stroke: #d62728"/>
    </g>
   </g>
   <g id="line2d_67">
    <g clip-path="url(#pd03e09db74)">
     <use xlink:href="#m67796f24c8" x="403.923754" y="161.576342" style="fill: #9467bd; stroke: #9467bd"/>
    </g>
   </g>
   <g id="line2d_68">
    <g clip-path="url(#pd03e09db74)">
     <use xlink:href="#m8da8106fa6" x="393.208918" y="176.130542" style="fill: #1f77b4; stroke: #1f77b4"/>
    </g>
   </g>
   <g id="patch_30">
    <path d="M 302.859323 255.101552 
L 302.859323 108.112678 
" style="fill: none; stroke: #000000; stroke-width: 0.8; stroke-linejoin: miter; stroke-linecap: square"/>
   </g>
   <g id="patch_31">
    <path d="M 449.848197 255.101552 
L 449.848197 108.112678 
" style="fill: none; stroke: #000000; stroke-width: 0.8; stroke-linejoin: miter; stroke-linecap: square"/>
   </g>
   <g id="patch_32">
    <path d="M 302.859323 255.101552 
L 449.848197 255.101552 
" style="fill: none; stroke: #000000; stroke-width: 0.8; stroke-linejoin: miter; stroke-linecap: square"/>
   </g>
   <g id="patch_33">
    <path d="M 302.859323 108.112678 
L 449.848197 108.112678 
" style="fill: none; stroke: #000000; stroke-width: 0.8; stroke-linejoin: miter; stroke-linecap: square"/>
   </g>
   <g id="text_41">
    <!--  1 -->
    <g style="fill: #ff7f0e" transform="translate(375.985986 181.607115) scale(0.1 -0.1)">
     <use xlink:href="#DejaVuSans-20"/>
     <use xlink:href="#DejaVuSans-31" transform="translate(31.787109 0)"/>
    </g>
   </g>
   <g id="text_42">
    <!--  2 -->
    <g style="fill: #2ca02c" transform="translate(358.833018 175.914281) scale(0.1 -0.1)">
     <use xlink:href="#DejaVuSans-20"/>
     <use xlink:href="#DejaVuSans-32" transform="translate(31.787109 0)"/>
    </g>
   </g>
   <g id="text_43">
    <!--  3 -->
    <g style="fill: #d62728" transform="translate(348.302145 161.226423) scale(0.1 -0.1)">
     <use xlink:href="#DejaVuSans-20"/>
     <use xlink:href="#DejaVuSans-33" transform="translate(31.787109 0)"/>
    </g>
   </g>
   <g id="text_44">
    <!--  4 -->
    <g style="fill: #9467bd" transform="translate(348.415802 143.153814) scale(0.1 -0.1)">
     <use xlink:href="#DejaVuSans-20"/>
     <use xlink:href="#DejaVuSans-34" transform="translate(31.787109 0)"/>
    </g>
   </g>
   <g id="text_45">
    <!--  5 -->
    <g style="fill: #1f77b4" transform="translate(359.13057 128.599586) scale(0.1 -0.1)">
     <use xlink:href="#DejaVuSans-20"/>
     <use xlink:href="#DejaVuSans-35" transform="translate(31.787109 0)"/>
    </g>
   </g>
   <g id="text_46">
    <!--  6 -->
    <g style="fill: #ff7f0e" transform="translate(376.35376 123.122969) scale(0.1 -0.1)">
     <use xlink:href="#DejaVuSans-20"/>
     <use xlink:href="#DejaVuSans-36" transform="translate(31.787109 0)"/>
    </g>
   </g>
   <g id="text_47">
    <!--  7 -->
    <g style="fill: #2ca02c" transform="translate(393.506683 128.815848) scale(0.1 -0.1)">
     <use xlink:href="#DejaVuSans-20"/>
     <use xlink:href="#DejaVuSans-37" transform="translate(31.787109 0)"/>
    </g>
   </g>
   <g id="text_48">
    <!--  8 -->
    <g style="fill: #d62728" transform="translate(404.037488 143.503732) scale(0.1 -0.1)">
     <use xlink:href="#DejaVuSans-20"/>
     <use xlink:href="#DejaVuSans-38" transform="translate(31.787109 0)"/>
    </g>
   </g>
   <g id="text_49">
    <!--  9 -->
    <g style="fill: #9467bd" transform="translate(403.923754 161.576342) scale(0.1 -0.1)">
     <use xlink:href="#DejaVuSans-20"/>
     <use xlink:href="#DejaVuSans-39" transform="translate(31.787109 0)"/>
    </g>
   </g>
   <g id="text_50">
    <!--  10 -->
    <g style="fill: #1f77b4" transform="translate(393.208918 176.130542) scale(0.1 -0.1)">
     <use xlink:href="#DejaVuSans-20"/>
     <use xlink:href="#DejaVuSans-31" transform="translate(31.787109 0)"/>
     <use xlink:href="#DejaVuSans-30" transform="translate(95.410156 0)"/>
    </g>
   </g>
   <g id="text_51">
    <!-- trajectory in rotating frame -->
    <g transform="translate(294.514698 102.112678) scale(0.12 -0.12)">
     <defs>
      <path id="DejaVuSans-67" d="M 2906 1791 
Q 2906 2416 2648 2759 
Q 2391 3103 1925 3103 
Q 1463 3103 1205 2759 
Q 947 2416 947 1791 
Q 947 1169 1205 825 
Q 1463 481 1925 481 
Q 2391 481 2648 825 
Q 2906 1169 2906 1791 
z
M 3481 434 
Q 3481 -459 3084 -895 
Q 2688 -1331 1869 -1331 
Q 1566 -1331 1297 -1286 
Q 1028 -1241 775 -1147 
L 775 -588 
Q 1028 -725 1275 -790 
Q 1522 -856 1778 -856 
Q 2344 -856 2625 -561 
Q 2906 -266 2906 331 
L 2906 616 
Q 2728 306 2450 153 
Q 2172 0 1784 0 
Q 1141 0 747 490 
Q 353 981 353 1791 
Q 353 2603 747 3093 
Q 1141 3584 1784 3584 
Q 2172 3584 2450 3431 
Q 2728 3278 2906 2969 
L 2906 3500 
L 3481 3500 
L 3481 434 
z
" transform="scale(0.015625)"/>
     </defs>
     <use xlink:href="#DejaVuSans-74"/>
     <use xlink:href="#DejaVuSans-72" transform="translate(39.208984 0)"/>
     <use xlink:href="#DejaVuSans-61" transform="translate(80.322266 0)"/>
     <use xlink:href="#DejaVuSans-6a" transform="translate(141.601562 0)"/>
     <use xlink:href="#DejaVuSans-65" transform="translate(169.384766 0)"/>
     <use xlink:href="#DejaVuSans-63" transform="translate(230.908203 0)"/>
     <use xlink:href="#DejaVuSans-74" transform="translate(285.888672 0)"/>
     <use xlink:href="#DejaVuSans-6f" transform="translate(325.097656 0)"/>
     <use xlink:href="#DejaVuSans-72" transform="translate(386.279297 0)"/>
     <use xlink:href="#DejaVuSans-79" transform="translate(427.392578 0)"/>
     <use xlink:href="#DejaVuSans-20" transform="translate(486.572266 0)"/>
     <use xlink:href="#DejaVuSans-69" transform="translate(518.359375 0)"/>
     <use xlink:href="#DejaVuSans-6e" transform="translate(546.142578 0)"/>
     <use xlink:href="#DejaVuSans-20" transform="translate(609.521484 0)"/>
     <use xlink:href="#DejaVuSans-72" transform="translate(641.308594 0)"/>
     <use xlink:href="#DejaVuSans-6f" transform="translate(680.171875 0)"/>
     <use xlink:href="#DejaVuSans-74" transform="translate(741.353516 0)"/>
     <use xlink:href="#DejaVuSans-61" transform="translate(780.5625 0)"/>
     <use xlink:href="#DejaVuSans-74" transform="translate(841.841797 0)"/>
     <use xlink:href="#DejaVuSans-69" transform="translate(881.050781 0)"/>
     <use xlink:href="#DejaVuSans-6e" transform="translate(908.833984 0)"/>
     <use xlink:href="#DejaVuSans-67" transform="translate(972.212891 0)"/>
     <use xlink:href="#DejaVuSans-20" transform="translate(1035.689453 0)"/>
     <use xlink:href="#DejaVuSans-66" transform="translate(1067.476562 0)"/>
     <use xlink:href="#DejaVuSans-72" transform="translate(1102.681641 0)"/>
     <use xlink:href="#DejaVuSans-61" transform="translate(1143.794922 0)"/>
     <use xlink:href="#DejaVuSans-6d" transform="translate(1205.074219 0)"/>
     <use xlink:href="#DejaVuSans-65" transform="translate(1302.486328 0)"/>
    </g>
   </g>
   <g id="patch_34">
    <path d="M 330.419737 181.607115 
L 339.606542 178.851074 
L 339.606542 181.515247 
L 376.35376 181.515247 
L 376.35376 181.698983 
L 339.606542 181.698983 
L 339.606542 184.363156 
z
" clip-path="url(#pd03e09db74)" style="fill: #ff7f0e; opacity: 0.5; stroke: #ff7f0e; stroke-linejoin: miter"/>
   </g>
  </g>
  <g id="text_52">
   <!-- west initial u,v = -0.20, 0.00 m/s, period 10.00 s -->
   <g transform="translate(85.268438 12.118365) scale(0.12 -0.12)">
    <defs>
     <path id="DejaVuSans-77" d="M 269 3500 
L 844 3500 
L 1563 769 
L 2278 3500 
L 2956 3500 
L 3675 769 
L 4391 3500 
L 4966 3500 
L 4050 0 
L 3372 0 
L 2619 2869 
L 1863 0 
L 1184 0 
L 269 3500 
z
" transform="scale(0.015625)"/>
     <path id="DejaVuSans-73" d="M 2834 3397 
L 2834 2853 
Q 2591 2978 2328 3040 
Q 2066 3103 1784 3103 
Q 1356 3103 1142 2972 
Q 928 2841 928 2578 
Q 928 2378 1081 2264 
Q 1234 2150 1697 2047 
L 1894 2003 
Q 2506 1872 2764 1633 
Q 3022 1394 3022 966 
Q 3022 478 2636 193 
Q 2250 -91 1575 -91 
Q 1294 -91 989 -36 
Q 684 19 347 128 
L 347 722 
Q 666 556 975 473 
Q 1284 391 1588 391 
Q 1994 391 2212 530 
Q 2431 669 2431 922 
Q 2431 1156 2273 1281 
Q 2116 1406 1581 1522 
L 1381 1569 
Q 847 1681 609 1914 
Q 372 2147 372 2553 
Q 372 3047 722 3315 
Q 1072 3584 1716 3584 
Q 2034 3584 2315 3537 
Q 2597 3491 2834 3397 
z
" transform="scale(0.015625)"/>
     <path id="DejaVuSans-75" d="M 544 1381 
L 544 3500 
L 1119 3500 
L 1119 1403 
Q 1119 906 1312 657 
Q 1506 409 1894 409 
Q 2359 409 2629 706 
Q 2900 1003 2900 1516 
L 2900 3500 
L 3475 3500 
L 3475 0 
L 2900 0 
L 2900 538 
Q 2691 219 2414 64 
Q 2138 -91 1772 -91 
Q 1169 -91 856 284 
Q 544 659 544 1381 
z
M 1991 3584 
L 1991 3584 
z
" transform="scale(0.015625)"/>
     <path id="DejaVuSans-2c" d="M 750 794 
L 1409 794 
L 1409 256 
L 897 -744 
L 494 -744 
L 750 256 
L 750 794 
z
" transform="scale(0.015625)"/>
     <path id="DejaVuSans-76" d="M 191 3500 
L 800 3500 
L 1894 563 
L 2988 3500 
L 3597 3500 
L 2284 0 
L 1503 0 
L 191 3500 
z
" transform="scale(0.015625)"/>
     <path id="DejaVuSans-3d" d="M 678 2906 
L 4684 2906 
L 4684 2381 
L 678 2381 
L 678 2906 
z
M 678 1631 
L 4684 1631 
L 4684 1100 
L 678 1100 
L 678 1631 
z
" transform="scale(0.015625)"/>
     <path id="DejaVuSans-2d" d="M 313 2009 
L 1997 2009 
L 1997 1497 
L 313 1497 
L 313 2009 
z
" transform="scale(0.015625)"/>
     <path id="DejaVuSans-2f" d="M 1625 4666 
L 2156 4666 
L 531 -594 
L 0 -594 
L 1625 4666 
z
" transform="scale(0.015625)"/>
     <path id="DejaVuSans-70" d="M 1159 525 
L 1159 -1331 
L 581 -1331 
L 581 3500 
L 1159 3500 
L 1159 2969 
Q 1341 3281 1617 3432 
Q 1894 3584 2278 3584 
Q 2916 3584 3314 3078 
Q 3713 2572 3713 1747 
Q 3713 922 3314 415 
Q 2916 -91 2278 -91 
Q 1894 -91 1617 61 
Q 1341 213 1159 525 
z
M 3116 1747 
Q 3116 2381 2855 2742 
Q 2594 3103 2138 3103 
Q 1681 3103 1420 2742 
Q 1159 2381 1159 1747 
Q 1159 1113 1420 752 
Q 1681 391 2138 391 
Q 2594 391 2855 752 
Q 3116 1113 3116 1747 
z
" transform="scale(0.015625)"/>
     <path id="DejaVuSans-64" d="M 2906 2969 
L 2906 4863 
L 3481 4863 
L 3481 0 
L 2906 0 
L 2906 525 
Q 2725 213 2448 61 
Q 2172 -91 1784 -91 
Q 1150 -91 751 415 
Q 353 922 353 1747 
Q 353 2572 751 3078 
Q 1150 3584 1784 3584 
Q 2172 3584 2448 3432 
Q 2725 3281 2906 2969 
z
M 947 1747 
Q 947 1113 1208 752 
Q 1469 391 1925 391 
Q 2381 391 2643 752 
Q 2906 1113 2906 1747 
Q 2906 2381 2643 2742 
Q 2381 3103 1925 3103 
Q 1469 3103 1208 2742 
Q 947 2381 947 1747 
z
" transform="scale(0.015625)"/>
    </defs>
    <use xlink:href="#DejaVuSans-77"/>
    <use xlink:href="#DejaVuSans-65" transform="translate(81.787109 0)"/>
    <use xlink:href="#DejaVuSans-73" transform="translate(143.310547 0)"/>
    <use xlink:href="#DejaVuSans-74" transform="translate(195.410156 0)"/>
    <use xlink:href="#DejaVuSans-20" transform="translate(234.619141 0)"/>
    <use xlink:href="#DejaVuSans-69" transform="translate(266.40625 0)"/>
    <use xlink:href="#DejaVuSans-6e" transform="translate(294.189453 0)"/>
    <use xlink:href="#DejaVuSans-69" transform="translate(357.568359 0)"/>
    <use xlink:href="#DejaVuSans-74" transform="translate(385.351562 0)"/>
    <use xlink:href="#DejaVuSans-69" transform="translate(424.560547 0)"/>
    <use xlink:href="#DejaVuSans-61" transform="translate(452.34375 0)"/>
    <use xlink:href="#DejaVuSans-6c" transform="translate(513.623047 0)"/>
    <use xlink:href="#DejaVuSans-20" transform="translate(541.40625 0)"/>
    <use xlink:href="#DejaVuSans-75" transform="translate(573.193359 0)"/>
    <use xlink:href="#DejaVuSans-2c" transform="translate(636.572266 0)"/>
    <use xlink:href="#DejaVuSans-76" transform="translate(668.359375 0)"/>
    <use xlink:href="#DejaVuSans-20" transform="translate(727.539062 0)"/>
    <use xlink:href="#DejaVuSans-3d" transform="translate(759.326172 0)"/>
    <use xlink:href="#DejaVuSans-20" transform="translate(843.115234 0)"/>
    <use xlink:href="#DejaVuSans-2d" transform="translate(874.902344 0)"/>
    <use xlink:href="#DejaVuSans-30" transform="translate(910.986328 0)"/>
    <use xlink:href="#DejaVuSans-2e" transform="translate(974.609375 0)"/>
    <use xlink:href="#DejaVuSans-32" transform="translate(1006.396484 0)"/>
    <use xlink:href="#DejaVuSans-30" transform="translate(1070.019531 0)"/>
    <use xlink:href="#DejaVuSans-2c" transform="translate(1133.642578 0)"/>
    <use xlink:href="#DejaVuSans-20" transform="translate(1165.429688 0)"/>
    <use xlink:href="#DejaVuSans-30" transform="translate(1197.216797 0)"/>
    <use xlink:href="#DejaVuSans-2e" transform="translate(1260.839844 0)"/>
    <use xlink:href="#DejaVuSans-30" transform="translate(1292.626953 0)"/>
    <use xlink:href="#DejaVuSans-30" transform="translate(1356.25 0)"/>
    <use xlink:href="#DejaVuSans-20" transform="translate(1419.873047 0)"/>
    <use xlink:href="#DejaVuSans-6d" transform="translate(1451.660156 0)"/>
    <use xlink:href="#DejaVuSans-2f" transform="translate(1549.072266 0)"/>
    <use xlink:href="#DejaVuSans-73" transform="translate(1582.763672 0)"/>
    <use xlink:href="#DejaVuSans-2c" transform="translate(1634.863281 0)"/>
    <use xlink:href="#DejaVuSans-20" transform="translate(1666.650391 0)"/>
    <use xlink:href="#DejaVuSans-70" transform="translate(1698.4375 0)"/>
    <use xlink:href="#DejaVuSans-65" transform="translate(1761.914062 0)"/>
    <use xlink:href="#DejaVuSans-72" transform="translate(1823.4375 0)"/>
    <use xlink:href="#DejaVuSans-69" transform="translate(1864.550781 0)"/>
    <use xlink:href="#DejaVuSans-6f" transform="translate(1892.333984 0)"/>
    <use xlink:href="#DejaVuSans-64" transform="translate(1953.515625 0)"/>
    <use xlink:href="#DejaVuSans-20" transform="translate(2016.992188 0)"/>
    <use xlink:href="#DejaVuSans-31" transform="translate(2048.779297 0)"/>
    <use xlink:href="#DejaVuSans-30" transform="translate(2112.402344 0)"/>
    <use xlink:href="#DejaVuSans-2e" transform="translate(2176.025391 0)"/>
    <use xlink:href="#DejaVuSans-30" transform="translate(2207.8125 0)"/>
    <use xlink:href="#DejaVuSans-30" transform="translate(2271.435547 0)"/>
    <use xlink:href="#DejaVuSans-20" transform="translate(2335.058594 0)"/>
    <use xlink:href="#DejaVuSans-73" transform="translate(2366.845703 0)"/>
   </g>
  </g>
 </g>
 <defs>
  <clipPath id="p07112cb3bf">
   <rect x="47.961177" y="83.614532" width="195.985166" height="195.985166"/>
  </clipPath>
  <clipPath id="pd03e09db74">
   <rect x="302.859323" y="108.112678" width="146.988874" height="146.988874"/>
  </clipPath>
 </defs>
</svg>
