<?xml version="1.0" encoding="utf-8" standalone="no"?>
<!DOCTYPE svg PUBLIC "-//W3C//DTD SVG 1.1//EN"
  "http://www.w3.org/Graphics/SVG/1.1/DTD/svg11.dtd">
<svg xmlns:xlink="http://www.w3.org/1999/xlink" width="460.8pt" height="345.6pt" viewBox="0 0 460.8 345.6" xmlns="http://www.w3.org/2000/svg" version="1.1">
 <metadata>
  <rdf:RDF xmlns:dc="http://purl.org/dc/elements/1.1/" xmlns:cc="http://creativecommons.org/ns#" xmlns:rdf="http://www.w3.org/1999/02/22-rdf-syntax-ns#">
   <cc:Work>
    <dc:type rdf:resource="http://purl.org/dc/dcmitype/StillImage"/>
    <dc:date>2025-06-01T16:43:57.704251</dc:date>
    <dc:format>image/svg+xml</dc:format>
    <dc:creator>
     <cc:Agent>
      <dc:title>Matplotlib v3.10.3, https://matplotlib.org/</dc:title>
     </cc:Agent>
    </dc:creator>
   </cc:Work>
  </rdf:RDF>
 </metadata>
 <defs>
  <style type="text/css">*{stroke-linejoin: round; stroke-linecap: butt}</style>
 </defs>
 <g id="figure_1">
  <g id="patch_1">
   <path d="M 0 345.6 
L 460.8 345.6 
L 460.8 0 
L 0 0 
z
" style="fill: #ffffff"/>
  </g>
  <g id="axes_1">
   <g id="patch_2">
    <path d="M 47.961177 279.599698 
L 243.946343 279.599698 
L 243.946343 83.614532 
L 47.961177 83.614532 
z
" style="fill: #ffffff"/>
   </g>
   <g id="line2d_1">
    <path d="M 146.364231 246.932925 
L 150.055791 246.793706 
L 153.734237 246.446091 
L 157.38781 245.891192 
L 161.004829 245.130783 
L 164.573731 244.167294 
L 168.083107 243.003806 
L 171.521737 241.644038 
L 174.878629 240.092337 
L 178.143051 238.353665 
L 181.304566 236.433578 
L 184.353068 234.338217 
L 187.278811 232.074279 
L 190.072441 229.649002 
L 192.725028 227.070139 
L 195.228091 224.345935 
L 197.573629 221.485099 
L 199.754142 218.496777 
L 201.762661 215.390521 
L 203.592764 212.176264 
L 205.238599 208.864279 
L 206.694907 205.465156 
L 207.95703 201.98976 
L 209.020935 198.449203 
L 209.88322 194.854804 
L 210.541127 191.218053 
L 210.992555 187.550576 
L 211.23606 183.864099 
L 211.270863 180.170406 
L 211.096853 176.481307 
L 210.714586 172.808594 
L 210.125285 169.164009 
L 209.330833 165.559204 
L 208.33377 162.005702 
L 207.137285 158.514865 
L 205.7452 155.097851 
L 204.161968 151.765585 
L 202.39265 148.52872 
L 200.442902 145.397603 
L 198.318956 142.382245 
L 196.027604 139.492286 
L 193.57617 136.736963 
L 190.972492 134.125087 
L 188.224892 131.665006 
L 185.342156 129.364586 
L 182.333499 127.23118 
L 179.208539 125.27161 
L 175.977266 123.492139 
L 172.650011 121.898456 
L 169.23741 120.495657 
L 165.750374 119.288225 
L 162.200049 118.280021 
L 158.597787 117.474269 
L 154.955103 116.873543 
L 151.283642 116.479765 
L 147.595142 116.294193 
L 143.901395 116.31742 
L 140.214209 116.549373 
L 136.545372 116.98931 
L 132.906613 117.635824 
L 129.309564 118.486848 
L 125.765725 119.539663 
L 122.286426 120.790901 
L 118.882789 122.236563 
L 115.565695 123.872028 
L 112.345749 125.692067 
L 109.233246 127.690861 
L 106.238134 129.86202 
L 103.369989 132.198604 
L 100.637982 134.693142 
L 98.050844 137.33766 
L 95.616848 140.123704 
L 93.343774 143.042366 
L 91.23889 146.084317 
L 89.308925 149.23983 
L 87.560048 152.498819 
L 85.99785 155.850865 
L 84.627326 159.285251 
L 83.452857 162.790998 
L 82.478198 166.356898 
L 81.706465 169.971552 
L 81.140124 173.623404 
L 80.780987 177.300779 
L 80.630201 180.991921 
L 80.688249 184.68503 
L 80.954945 188.368298 
L 81.429436 192.029952 
L 82.110206 195.658286 
L 82.995078 199.241698 
L 84.081223 202.768735 
L 85.365169 206.22812 
L 86.842811 209.608793 
L 88.509426 212.899948 
L 90.359685 216.091063 
L 92.387673 219.171935 
L 94.586908 222.132716 
L 96.950357 224.96394 
L 99.470466 227.656557 
L 102.139178 230.201957 
L 104.947962 232.592004 
L 107.887837 234.819057 
L 110.949405 236.875996 
L 114.12288 238.756246 
L 117.398114 240.453795 
L 120.764639 241.963216 
L 124.211691 243.279684 
L 127.72825 244.398991 
L 131.303075 245.317558 
L 134.924737 246.032448 
L 138.581657 246.541376 
L 142.262145 246.842715 
L 145.954436 246.935501 
L 145.954436 246.935501 
" clip-path="url(#pf41f02139b)" style="fill: none; stroke: #1f77b4; stroke-opacity: 0.5; stroke-width: 1.5; stroke-linecap: square"/>
   </g>
   <g id="line2d_2">
    <path d="M 146.494888 246.932925 
L 151.361508 246.793706 
L 156.21084 246.446091 
L 161.027381 245.891192 
L 165.795733 245.130783 
L 170.500652 244.167294 
L 175.127097 243.003806 
L 179.660277 241.644038 
L 184.085701 240.092337 
L 188.38922 238.353665 
L 192.557077 236.433578 
L 196.575947 234.338217 
L 200.432983 232.074279 
L 204.115853 229.649002 
L 207.612785 227.070139 
L 210.912598 224.345935 
L 214.004743 221.485099 
L 216.879336 218.496777 
L 219.527186 215.390521 
L 221.683618 212.53842 
L 223.64875 209.608183 
L 225.417617 206.607213 
L 226.98575 203.543091 
L 228.349189 200.423556 
L 229.50449 197.256488 
L 230.448733 194.049889 
L 231.179534 190.811859 
L 231.695046 187.550576 
L 231.993968 184.27428 
L 232.075544 180.991246 
L 231.939569 177.709768 
L 231.586385 174.438134 
L 231.016885 171.184611 
L 230.232507 167.957415 
L 229.235233 164.7647 
L 228.027582 161.614531 
L 226.612605 158.514865 
L 224.993876 155.473532 
L 223.175484 152.498215 
L 221.162023 149.59643 
L 218.958579 146.775506 
L 216.570717 144.042571 
L 213.671465 141.081779 
L 210.555725 138.250542 
L 207.233459 135.557913 
L 203.715287 133.012498 
L 200.012457 130.622437 
L 196.136805 128.395369 
L 192.100723 126.338414 
L 187.917114 124.458148 
L 183.599351 122.760582 
L 179.161239 121.251143 
L 174.616965 119.934657 
L 169.981058 118.815332 
L 165.268337 117.896747 
L 160.49387 117.181838 
L 155.672919 116.672891 
L 150.820897 116.371533 
L 145.953315 116.278727 
L 141.085735 116.394771 
L 136.233717 116.719292 
L 131.412773 117.251254 
L 126.638316 117.988956 
L 121.925608 118.930039 
L 117.289716 120.071495 
L 112.745461 121.409675 
L 108.307369 122.940301 
L 103.98963 124.65848 
L 99.806046 126.558718 
L 95.769992 128.634941 
L 91.894371 130.880511 
L 88.191573 133.28825 
L 84.673436 135.850459 
L 81.351207 138.558949 
L 78.235506 141.40506 
L 75.336294 144.379693 
L 72.66284 147.473339 
L 70.482887 150.315171 
L 68.493581 153.236049 
L 66.699947 156.228596 
L 65.106516 159.285251 
L 63.717312 162.398293 
L 62.535845 165.559858 
L 61.5651 168.761961 
L 60.807529 171.996511 
L 60.265045 175.255339 
L 59.939019 178.530212 
L 59.830275 181.812858 
L 59.939086 185.094983 
L 60.265179 188.368298 
L 60.80773 191.624534 
L 61.565367 194.855465 
L 62.536177 198.052929 
L 63.717709 201.20885 
L 65.106976 204.315254 
L 66.70047 207.364296 
L 68.494165 210.348273 
L 70.483531 213.259646 
L 72.663541 216.091063 
L 75.02869 218.835369 
L 77.903323 221.809969 
L 80.995507 224.656043 
L 84.295358 227.364494 
L 87.792324 229.926662 
L 91.475227 232.334357 
L 95.332294 234.579882 
L 99.351192 236.656058 
L 103.519075 238.556247 
L 107.822618 240.274374 
L 112.248063 241.804948 
L 116.781261 243.143075 
L 121.407722 244.284477 
L 126.112654 245.225505 
L 130.881016 245.96315 
L 135.697565 246.495055 
L 140.546901 246.81952 
L 145.413523 246.935506 
L 145.95465 246.935501 
L 145.95465 246.935501 
" clip-path="url(#pf41f02139b)" style="fill: none; stroke: #ff7f0e; stroke-opacity: 0.5; stroke-width: 1.5; stroke-linecap: square"/>
   </g>
   <g id="patch_3">
    <path d="M 168.818696 181.607115 
C 168.818696 177.085399 167.477391 172.663707 164.96526 168.904037 
C 162.453129 165.144368 158.881313 162.213054 154.703793 160.482669 
C 150.526272 158.752283 145.927865 158.299379 141.493033 159.181522 
C 137.0582 160.063665 132.983145 162.241828 129.785809 165.439164 
C 126.588473 168.6365 124.410311 172.711555 123.528168 177.146387 
C 122.646025 181.58122 123.098928 186.179626 124.829314 190.357147 
C 126.5597 194.534668 129.491013 198.106484 133.250683 200.618614 
C 137.010352 203.130745 141.432045 204.472051 145.95376 204.472051 
" clip-path="url(#pf41f02139b)" style="fill: none; opacity: 0.5; stroke: #808080; stroke-width: 1.5; stroke-linejoin: miter"/>
   </g>
   <g id="patch_4">
    <path d="M 144.22018 201.972051 
Q 146.72018 203.222051 149.22018 204.472051 
Q 146.72018 205.722051 144.22018 206.972051 
z
" clip-path="url(#pf41f02139b)" style="fill: #808080; opacity: 0.5; stroke: #808080; stroke-linecap: round"/>
   </g>
   <g id="matplotlib.axis_1">
    <g id="xtick_1">
     <g id="line2d_3">
      <defs>
       <path id="m23e3686825" d="M 0 0 
L 0 3.5 
" style="stroke: #000000; stroke-width: 0.8"/>
      </defs>
      <g>
       <use xlink:href="#m23e3686825" x="47.961178" y="279.599698" style="stroke: #000000; stroke-width: 0.8"/>
      </g>
     </g>
     <g id="text_1">
      <!-- −1.5 -->
      <g transform="translate(35.819771 294.198135) scale(0.1 -0.1)">
       <defs>
        <path id="DejaVuSans-2212" d="M 678 2272 
L 4684 2272 
L 4684 1741 
L 678 1741 
L 678 2272 
z
" transform="scale(0.015625)"/>
        <path id="DejaVuSans-31" d="M 794 531 
L 1825 531 
L 1825 4091 
L 703 3866 
L 703 4441 
L 1819 4666 
L 2450 4666 
L 2450 531 
L 3481 531 
L 3481 0 
L 794 0 
L 794 531 
z
" transform="scale(0.015625)"/>
        <path id="DejaVuSans-2e" d="M 684 794 
L 1344 794 
L 1344 0 
L 684 0 
L 684 794 
z
" transform="scale(0.015625)"/>
        <path id="DejaVuSans-35" d="M 691 4666 
L 3169 4666 
L 3169 4134 
L 1269 4134 
L 1269 2991 
Q 1406 3038 1543 3061 
Q 1681 3084 1819 3084 
Q 2600 3084 3056 2656 
Q 3513 2228 3513 1497 
Q 3513 744 3044 326 
Q 2575 -91 1722 -91 
Q 1428 -91 1123 -41 
Q 819 9 494 109 
L 494 744 
Q 775 591 1075 516 
Q 1375 441 1709 441 
Q 2250 441 2565 725 
Q 2881 1009 2881 1497 
Q 2881 1984 2565 2268 
Q 2250 2553 1709 2553 
Q 1456 2553 1204 2497 
Q 953 2441 691 2322 
L 691 4666 
z
" transform="scale(0.015625)"/>
       </defs>
       <use xlink:href="#DejaVuSans-2212"/>
       <use xlink:href="#DejaVuSans-31" transform="translate(83.789062 0)"/>
       <use xlink:href="#DejaVuSans-2e" transform="translate(147.412109 0)"/>
       <use xlink:href="#DejaVuSans-35" transform="translate(179.199219 0)"/>
      </g>
     </g>
    </g>
    <g id="xtick_2">
     <g id="line2d_4">
      <g>
       <use xlink:href="#m23e3686825" x="80.625372" y="279.599698" style="stroke: #000000; stroke-width: 0.8"/>
      </g>
     </g>
     <g id="text_2">
      <!-- −1.0 -->
      <g transform="translate(68.483966 294.198135) scale(0.1 -0.1)">
       <defs>
        <path id="DejaVuSans-30" d="M 2034 4250 
Q 1547 4250 1301 3770 
Q 1056 3291 1056 2328 
Q 1056 1369 1301 889 
Q 1547 409 2034 409 
Q 2525 409 2770 889 
Q 3016 1369 3016 2328 
Q 3016 3291 2770 3770 
Q 2525 4250 2034 4250 
z
M 2034 4750 
Q 2819 4750 3233 4129 
Q 3647 3509 3647 2328 
Q 3647 1150 3233 529 
Q 2819 -91 2034 -91 
Q 1250 -91 836 529 
Q 422 1150 422 2328 
Q 422 3509 836 4129 
Q 1250 4750 2034 4750 
z
" transform="scale(0.015625)"/>
       </defs>
       <use xlink:href="#DejaVuSans-2212"/>
       <use xlink:href="#DejaVuSans-31" transform="translate(83.789062 0)"/>
       <use xlink:href="#DejaVuSans-2e" transform="translate(147.412109 0)"/>
       <use xlink:href="#DejaVuSans-30" transform="translate(179.199219 0)"/>
      </g>
     </g>
    </g>
    <g id="xtick_3">
     <g id="line2d_5">
      <g>
       <use xlink:href="#m23e3686825" x="113.289566" y="279.599698" style="stroke: #000000; stroke-width: 0.8"/>
      </g>
     </g>
     <g id="text_3">
      <!-- −0.5 -->
      <g transform="translate(101.14816 294.198135) scale(0.1 -0.1)">
       <use xlink:href="#DejaVuSans-2212"/>
       <use xlink:href="#DejaVuSans-30" transform="translate(83.789062 0)"/>
       <use xlink:href="#DejaVuSans-2e" transform="translate(147.412109 0)"/>
       <use xlink:href="#DejaVuSans-35" transform="translate(179.199219 0)"/>
      </g>
     </g>
    </g>
    <g id="xtick_4">
     <g id="line2d_6">
      <g>
       <use xlink:href="#m23e3686825" x="145.95376" y="279.599698" style="stroke: #000000; stroke-width: 0.8"/>
      </g>
     </g>
     <g id="text_4">
      <!-- 0.0 -->
      <g transform="translate(138.002198 294.198135) scale(0.1 -0.1)">
       <use xlink:href="#DejaVuSans-30"/>
       <use xlink:href="#DejaVuSans-2e" transform="translate(63.623047 0)"/>
       <use xlink:href="#DejaVuSans-30" transform="translate(95.410156 0)"/>
      </g>
     </g>
    </g>
    <g id="xtick_5">
     <g id="line2d_7">
      <g>
       <use xlink:href="#m23e3686825" x="178.617955" y="279.599698" style="stroke: #000000; stroke-width: 0.8"/>
      </g>
     </g>
     <g id="text_5">
      <!-- 0.5 -->
      <g transform="translate(170.666392 294.198135) scale(0.1 -0.1)">
       <use xlink:href="#DejaVuSans-30"/>
       <use xlink:href="#DejaVuSans-2e" transform="translate(63.623047 0)"/>
       <use xlink:href="#DejaVuSans-35" transform="translate(95.410156 0)"/>
      </g>
     </g>
    </g>
    <g id="xtick_6">
     <g id="line2d_8">
      <g>
       <use xlink:href="#m23e3686825" x="211.282149" y="279.599698" style="stroke: #000000; stroke-width: 0.8"/>
      </g>
     </g>
     <g id="text_6">
      <!-- 1.0 -->
      <g transform="translate(203.330586 294.198135) scale(0.1 -0.1)">
       <use xlink:href="#DejaVuSans-31"/>
       <use xlink:href="#DejaVuSans-2e" transform="translate(63.623047 0)"/>
       <use xlink:href="#DejaVuSans-30" transform="translate(95.410156 0)"/>
      </g>
     </g>
    </g>
    <g id="xtick_7">
     <g id="line2d_9">
      <g>
       <use xlink:href="#m23e3686825" x="243.946343" y="279.599698" style="stroke: #000000; stroke-width: 0.8"/>
      </g>
     </g>
     <g id="text_7">
      <!-- 1.5 -->
      <g transform="translate(235.994781 294.198135) scale(0.1 -0.1)">
       <use xlink:href="#DejaVuSans-31"/>
       <use xlink:href="#DejaVuSans-2e" transform="translate(63.623047 0)"/>
       <use xlink:href="#DejaVuSans-35" transform="translate(95.410156 0)"/>
      </g>
     </g>
    </g>
    <g id="text_8">
     <!-- x [m] -->
     <g transform="translate(132.633448 307.87626) scale(0.1 -0.1)">
      <defs>
       <path id="DejaVuSans-78" d="M 3513 3500 
L 2247 1797 
L 3578 0 
L 2900 0 
L 1881 1375 
L 863 0 
L 184 0 
L 1544 1831 
L 300 3500 
L 978 3500 
L 1906 2253 
L 2834 3500 
L 3513 3500 
z
" transform="scale(0.015625)"/>
       <path id="DejaVuSans-20" transform="scale(0.015625)"/>
       <path id="DejaVuSans-5b" d="M 550 4863 
L 1875 4863 
L 1875 4416 
L 1125 4416 
L 1125 -397 
L 1875 -397 
L 1875 -844 
L 550 -844 
L 550 4863 
z
" transform="scale(0.015625)"/>
       <path id="DejaVuSans-6d" d="M 3328 2828 
Q 3544 3216 3844 3400 
Q 4144 3584 4550 3584 
Q 5097 3584 5394 3201 
Q 5691 2819 5691 2113 
L 5691 0 
L 5113 0 
L 5113 2094 
Q 5113 2597 4934 2840 
Q 4756 3084 4391 3084 
Q 3944 3084 3684 2787 
Q 3425 2491 3425 1978 
L 3425 0 
L 2847 0 
L 2847 2094 
Q 2847 2600 2669 2842 
Q 2491 3084 2119 3084 
Q 1678 3084 1418 2786 
Q 1159 2488 1159 1978 
L 1159 0 
L 581 0 
L 581 3500 
L 1159 3500 
L 1159 2956 
Q 1356 3278 1631 3431 
Q 1906 3584 2284 3584 
Q 2666 3584 2933 3390 
Q 3200 3197 3328 2828 
z
" transform="scale(0.015625)"/>
       <path id="DejaVuSans-5d" d="M 1947 4863 
L 1947 -844 
L 622 -844 
L 622 -397 
L 1369 -397 
L 1369 4416 
L 622 4416 
L 622 4863 
L 1947 4863 
z
" transform="scale(0.015625)"/>
      </defs>
      <use xlink:href="#DejaVuSans-78"/>
      <use xlink:href="#DejaVuSans-20" transform="translate(59.179688 0)"/>
      <use xlink:href="#DejaVuSans-5b" transform="translate(90.966797 0)"/>
      <use xlink:href="#DejaVuSans-6d" transform="translate(129.980469 0)"/>
      <use xlink:href="#DejaVuSans-5d" transform="translate(227.392578 0)"/>
     </g>
    </g>
   </g>
   <g id="matplotlib.axis_2">
    <g id="ytick_1">
     <g id="line2d_10">
      <defs>
       <path id="mcb4f7d5471" d="M 0 0 
L -3.5 0 
" style="stroke: #000000; stroke-width: 0.8"/>
      </defs>
      <g>
       <use xlink:href="#mcb4f7d5471" x="47.961177" y="279.599698" style="stroke: #000000; stroke-width: 0.8"/>
      </g>
     </g>
     <g id="text_9">
      <!-- −1.5 -->
      <g transform="translate(16.678365 283.398917) scale(0.1 -0.1)">
       <use xlink:href="#DejaVuSans-2212"/>
       <use xlink:href="#DejaVuSans-31" transform="translate(83.789062 0)"/>
       <use xlink:href="#DejaVuSans-2e" transform="translate(147.412109 0)"/>
       <use xlink:href="#DejaVuSans-35" transform="translate(179.199219 0)"/>
      </g>
     </g>
    </g>
    <g id="ytick_2">
     <g id="line2d_11">
      <g>
       <use xlink:href="#mcb4f7d5471" x="47.961177" y="246.935504" style="stroke: #000000; stroke-width: 0.8"/>
      </g>
     </g>
     <g id="text_10">
      <!-- −1.0 -->
      <g transform="translate(16.678365 250.734722) scale(0.1 -0.1)">
       <use xlink:href="#DejaVuSans-2212"/>
       <use xlink:href="#DejaVuSans-31" transform="translate(83.789062 0)"/>
       <use xlink:href="#DejaVuSans-2e" transform="translate(147.412109 0)"/>
       <use xlink:href="#DejaVuSans-30" transform="translate(179.199219 0)"/>
      </g>
     </g>
    </g>
    <g id="ytick_3">
     <g id="line2d_12">
      <g>
       <use xlink:href="#mcb4f7d5471" x="47.961177" y="214.271309" style="stroke: #000000; stroke-width: 0.8"/>
      </g>
     </g>
     <g id="text_11">
      <!-- −0.5 -->
      <g transform="translate(16.678365 218.070528) scale(0.1 -0.1)">
       <use xlink:href="#DejaVuSans-2212"/>
       <use xlink:href="#DejaVuSans-30" transform="translate(83.789062 0)"/>
       <use xlink:href="#DejaVuSans-2e" transform="translate(147.412109 0)"/>
       <use xlink:href="#DejaVuSans-35" transform="translate(179.199219 0)"/>
      </g>
     </g>
    </g>
    <g id="ytick_4">
     <g id="line2d_13">
      <g>
       <use xlink:href="#mcb4f7d5471" x="47.961177" y="181.607115" style="stroke: #000000; stroke-width: 0.8"/>
      </g>
     </g>
     <g id="text_12">
      <!-- 0.0 -->
      <g transform="translate(25.058052 185.406334) scale(0.1 -0.1)">
       <use xlink:href="#DejaVuSans-30"/>
       <use xlink:href="#DejaVuSans-2e" transform="translate(63.623047 0)"/>
       <use xlink:href="#DejaVuSans-30" transform="translate(95.410156 0)"/>
      </g>
     </g>
    </g>
    <g id="ytick_5">
     <g id="line2d_14">
      <g>
       <use xlink:href="#mcb4f7d5471" x="47.961177" y="148.942921" style="stroke: #000000; stroke-width: 0.8"/>
      </g>
     </g>
     <g id="text_13">
      <!-- 0.5 -->
      <g transform="translate(25.058052 152.742139) scale(0.1 -0.1)">
       <use xlink:href="#DejaVuSans-30"/>
       <use xlink:href="#DejaVuSans-2e" transform="translate(63.623047 0)"/>
       <use xlink:href="#DejaVuSans-35" transform="translate(95.410156 0)"/>
      </g>
     </g>
    </g>
    <g id="ytick_6">
     <g id="line2d_15">
      <g>
       <use xlink:href="#mcb4f7d5471" x="47.961177" y="116.278726" style="stroke: #000000; stroke-width: 0.8"/>
      </g>
     </g>
     <g id="text_14">
      <!-- 1.0 -->
      <g transform="translate(25.058052 120.077945) scale(0.1 -0.1)">
       <use xlink:href="#DejaVuSans-31"/>
       <use xlink:href="#DejaVuSans-2e" transform="translate(63.623047 0)"/>
       <use xlink:href="#DejaVuSans-30" transform="translate(95.410156 0)"/>
      </g>
     </g>
    </g>
    <g id="ytick_7">
     <g id="line2d_16">
      <g>
       <use xlink:href="#mcb4f7d5471" x="47.961177" y="83.614532" style="stroke: #000000; stroke-width: 0.8"/>
      </g>
     </g>
     <g id="text_15">
      <!-- 1.5 -->
      <g transform="translate(25.058052 87.413751) scale(0.1 -0.1)">
       <use xlink:href="#DejaVuSans-31"/>
       <use xlink:href="#DejaVuSans-2e" transform="translate(63.623047 0)"/>
       <use xlink:href="#DejaVuSans-35" transform="translate(95.410156 0)"/>
      </g>
     </g>
    </g>
    <g id="text_16">
     <!-- y [m] -->
     <g transform="translate(10.598677 194.927427) rotate(-90) scale(0.1 -0.1)">
      <defs>
       <path id="DejaVuSans-79" d="M 2059 -325 
Q 1816 -950 1584 -1140 
Q 1353 -1331 966 -1331 
L 506 -1331 
L 506 -850 
L 844 -850 
Q 1081 -850 1212 -737 
Q 1344 -625 1503 -206 
L 1606 56 
L 191 3500 
L 800 3500 
L 1894 763 
L 2988 3500 
L 3597 3500 
L 2059 -325 
z
" transform="scale(0.015625)"/>
      </defs>
      <use xlink:href="#DejaVuSans-79"/>
      <use xlink:href="#DejaVuSans-20" transform="translate(59.179688 0)"/>
      <use xlink:href="#DejaVuSans-5b" transform="translate(90.966797 0)"/>
      <use xlink:href="#DejaVuSans-6d" transform="translate(129.980469 0)"/>
      <use xlink:href="#DejaVuSans-5d" transform="translate(227.392578 0)"/>
     </g>
    </g>
   </g>
   <g id="line2d_17">
    <path d="M 146.364231 246.932925 
" clip-path="url(#pf41f02139b)" style="fill: none; stroke: #ff7f0e; stroke-width: 1.5; stroke-linecap: square"/>
    <defs>
     <path id="m1bfc5b4fc9" d="M 0 -2.5 
L -2.5 2.5 
L 2.5 2.5 
z
" style="stroke: #ff7f0e; stroke-linejoin: miter"/>
    </defs>
    <g clip-path="url(#pf41f02139b)">
     <use xlink:href="#m1bfc5b4fc9" x="146.364231" y="246.932925" style="fill: #ff7f0e; stroke: #ff7f0e; stroke-linejoin: miter"/>
    </g>
   </g>
   <g id="line2d_18">
    <path d="M 146.494888 246.932925 
" clip-path="url(#pf41f02139b)" style="fill: none; stroke: #2ca02c; stroke-width: 1.5; stroke-linecap: square"/>
    <defs>
     <path id="mde20194c4c" d="M 0 2.5 
C 0.663008 2.5 1.29895 2.236584 1.767767 1.767767 
C 2.236584 1.29895 2.5 0.663008 2.5 0 
C 2.5 -0.663008 2.236584 -1.29895 1.767767 -1.767767 
C 1.29895 -2.236584 0.663008 -2.5 0 -2.5 
C -0.663008 -2.5 -1.29895 -2.236584 -1.767767 -1.767767 
C -2.236584 -1.29895 -2.5 -0.663008 -2.5 0 
C -2.5 0.663008 -2.236584 1.29895 -1.767767 1.767767 
C -1.29895 2.236584 -0.663008 2.5 0 2.5 
z
" style="stroke: #ff7f0e"/>
    </defs>
    <g clip-path="url(#pf41f02139b)">
     <use xlink:href="#mde20194c4c" x="146.494888" y="246.932925" style="fill: #ff7f0e; stroke: #ff7f0e"/>
    </g>
   </g>
   <g id="line2d_19">
    <path d="M 145.95376 181.607115 
L 146.774701 312.258734 
" clip-path="url(#pf41f02139b)" style="fill: none; stroke: #808080; stroke-width: 0.5; stroke-linecap: square"/>
   </g>
   <g id="line2d_20">
    <path d="M 166.531456 243.545379 
" clip-path="url(#pf41f02139b)" style="fill: none; stroke: #2ca02c; stroke-width: 1.5; stroke-linecap: square"/>
    <defs>
     <path id="mc9150431a6" d="M -0.772542 -2.377641 
L -1.605099 3.150184 
L 3.150184 1.605099 
z
" style="stroke: #2ca02c; stroke-linejoin: miter"/>
    </defs>
    <g clip-path="url(#pf41f02139b)">
     <use xlink:href="#mc9150431a6" x="166.531456" y="243.545379" style="fill: #2ca02c; stroke: #2ca02c; stroke-linejoin: miter"/>
    </g>
   </g>
   <g id="line2d_21">
    <path d="M 173.08154 243.545379 
" clip-path="url(#pf41f02139b)" style="fill: none; stroke: #d62728; stroke-width: 1.5; stroke-linecap: square"/>
    <defs>
     <path id="md89d9cde88" d="M 0.772542 2.377641 
C 1.4031 2.172761 1.926517 1.72572 2.227516 1.134976 
C 2.528516 0.544232 2.582522 -0.141985 2.377641 -0.772542 
C 2.172761 -1.4031 1.72572 -1.926517 1.134976 -2.227516 
C 0.544232 -2.528516 -0.141985 -2.582522 -0.772542 -2.377641 
C -1.4031 -2.172761 -1.926517 -1.72572 -2.227516 -1.134976 
C -2.528516 -0.544232 -2.582522 0.141985 -2.377641 0.772542 
C -2.172761 1.4031 -1.72572 1.926517 -1.134976 2.227516 
C -0.544232 2.528516 0.141985 2.582522 0.772542 2.377641 
z
" style="stroke: #2ca02c"/>
    </defs>
    <g clip-path="url(#pf41f02139b)">
     <use xlink:href="#md89d9cde88" x="173.08154" y="243.545379" style="fill: #2ca02c; stroke: #2ca02c"/>
    </g>
   </g>
   <g id="line2d_22">
    <path d="M 145.95376 181.607115 
L 187.109152 305.483643 
" clip-path="url(#pf41f02139b)" style="fill: none; stroke: #808080; stroke-width: 0.5; stroke-linecap: square"/>
   </g>
   <g id="line2d_23">
    <path d="M 184.684387 234.094865 
" clip-path="url(#pf41f02139b)" style="fill: none; stroke: #d62728; stroke-width: 1.5; stroke-linecap: square"/>
    <defs>
     <path id="m4a8a310509" d="M -1.469463 -2.022542 
L -0.553079 3.492006 
L 3.492006 0.553079 
z
" style="stroke: #d62728; stroke-linejoin: miter"/>
    </defs>
    <g clip-path="url(#pf41f02139b)">
     <use xlink:href="#m4a8a310509" x="184.684387" y="234.094865" style="fill: #d62728; stroke: #d62728; stroke-linejoin: miter"/>
    </g>
   </g>
   <g id="line2d_24">
    <path d="M 197.012729 234.094865 
" clip-path="url(#pf41f02139b)" style="fill: none; stroke: #9467bd; stroke-width: 1.5; stroke-linecap: square"/>
    <defs>
     <path id="m3278a94049" d="M 1.469463 2.022542 
C 2.005848 1.632836 2.365504 1.045931 2.469221 0.391086 
C 2.572938 -0.263759 2.412249 -0.933079 2.022542 -1.469463 
C 1.632836 -2.005848 1.045931 -2.365504 0.391086 -2.469221 
C -0.263759 -2.572938 -0.933079 -2.412249 -1.469463 -2.022542 
C -2.005848 -1.632836 -2.365504 -1.045931 -2.469221 -0.391086 
C -2.572938 0.263759 -2.412249 0.933079 -2.022542 1.469463 
C -1.632836 2.005848 -1.045931 2.365504 -0.391086 2.469221 
C 0.263759 2.572938 0.933079 2.412249 1.469463 2.022542 
z
" style="stroke: #d62728"/>
    </defs>
    <g clip-path="url(#pf41f02139b)">
     <use xlink:href="#m3278a94049" x="197.012729" y="234.094865" style="fill: #d62728; stroke: #d62728"/>
    </g>
   </g>
   <g id="line2d_25">
    <path d="M 145.95376 181.607115 
L 223.415014 286.582615 
" clip-path="url(#pf41f02139b)" style="fill: none; stroke: #808080; stroke-width: 0.5; stroke-linecap: square"/>
   </g>
   <g id="line2d_26">
    <path d="M 199.046082 219.506468 
" clip-path="url(#pf41f02139b)" style="fill: none; stroke: #9467bd; stroke-width: 1.5; stroke-linecap: square"/>
    <defs>
     <path id="m0fcdced9ec" d="M -2.022542 -1.469463 
L 0.553079 3.492006 
L 3.492006 -0.553079 
z
" style="stroke: #9467bd; stroke-linejoin: miter"/>
    </defs>
    <g clip-path="url(#pf41f02139b)">
     <use xlink:href="#m0fcdced9ec" x="199.046082" y="219.506468" style="fill: #9467bd; stroke: #9467bd; stroke-linejoin: miter"/>
    </g>
   </g>
   <g id="line2d_27">
    <path d="M 215.945893 219.506468 
" clip-path="url(#pf41f02139b)" style="fill: none; stroke: #8c564b; stroke-width: 1.5; stroke-linecap: square"/>
    <defs>
     <path id="ma231750f63" d="M 2.022542 1.469463 
C 2.412249 0.933079 2.572938 0.263759 2.469221 -0.391086 
C 2.365504 -1.045931 2.005848 -1.632836 1.469463 -2.022542 
C 0.933079 -2.412249 0.263759 -2.572938 -0.391086 -2.469221 
C -1.045931 -2.365504 -1.632836 -2.005848 -2.022542 -1.469463 
C -2.412249 -0.933079 -2.572938 -0.263759 -2.469221 0.391086 
C -2.365504 1.045931 -2.005848 1.632836 -1.469463 2.022542 
C -0.933079 2.412249 -0.263759 2.572938 0.391086 2.469221 
C 1.045931 2.365504 1.632836 2.005848 2.022542 1.469463 
z
" style="stroke: #9467bd"/>
    </defs>
    <g clip-path="url(#pf41f02139b)">
     <use xlink:href="#ma231750f63" x="215.945893" y="219.506468" style="fill: #9467bd; stroke: #9467bd"/>
    </g>
   </g>
   <g id="line2d_28">
    <path d="M 145.95376 181.607115 
L 252.138404 257.405821 
" clip-path="url(#pf41f02139b)" style="fill: none; stroke: #808080; stroke-width: 0.5; stroke-linecap: square"/>
   </g>
   <g id="line2d_29">
    <path d="M 208.210713 201.208206 
" clip-path="url(#pf41f02139b)" style="fill: none; stroke: #1f77b4; stroke-width: 1.5; stroke-linecap: square"/>
    <defs>
     <path id="m003eb1881e" d="M -2.377641 -0.772542 
L 1.605099 3.150184 
L 3.150184 -1.605099 
z
" style="stroke: #1f77b4; stroke-linejoin: miter"/>
    </defs>
    <g clip-path="url(#pf41f02139b)">
     <use xlink:href="#m003eb1881e" x="208.210713" y="201.208206" style="fill: #1f77b4; stroke: #1f77b4; stroke-linejoin: miter"/>
    </g>
   </g>
   <g id="line2d_30">
    <path d="M 228.027717 201.208206 
" clip-path="url(#pf41f02139b)" style="fill: none; stroke: #e377c2; stroke-width: 1.5; stroke-linecap: square"/>
    <defs>
     <path id="m63026cacc7" d="M 2.377641 0.772542 
C 2.582522 0.141985 2.528516 -0.544232 2.227516 -1.134976 
C 1.926517 -1.72572 1.4031 -2.172761 0.772542 -2.377641 
C 0.141985 -2.582522 -0.544232 -2.528516 -1.134976 -2.227516 
C -1.72572 -1.926517 -2.172761 -1.4031 -2.377641 -0.772542 
C -2.582522 -0.141985 -2.528516 0.544232 -2.227516 1.134976 
C -1.926517 1.72572 -1.4031 2.172761 -0.772542 2.377641 
C -0.141985 2.582522 0.544232 2.528516 1.134976 2.227516 
C 1.72572 1.926517 2.172761 1.4031 2.377641 0.772542 
z
" style="stroke: #1f77b4"/>
    </defs>
    <g clip-path="url(#pf41f02139b)">
     <use xlink:href="#m63026cacc7" x="228.027717" y="201.208206" style="fill: #1f77b4; stroke: #1f77b4"/>
    </g>
   </g>
   <g id="line2d_31">
    <path d="M 145.95376 181.607115 
L 270.467667 220.809296 
" clip-path="url(#pf41f02139b)" style="fill: none; stroke: #808080; stroke-width: 0.5; stroke-linecap: square"/>
   </g>
   <g id="line2d_32">
    <path d="M 211.281181 180.991246 
" clip-path="url(#pf41f02139b)" style="fill: none; stroke: #ff7f0e; stroke-width: 1.5; stroke-linecap: square"/>
    <defs>
     <path id="m816696c6d4" d="M -2.5 -0 
L 2.5 2.5 
L 2.5 -2.5 
z
" style="stroke: #ff7f0e; stroke-linejoin: miter"/>
    </defs>
    <g clip-path="url(#pf41f02139b)">
     <use xlink:href="#m816696c6d4" x="211.281181" y="180.991246" style="fill: #ff7f0e; stroke: #ff7f0e; stroke-linejoin: miter"/>
    </g>
   </g>
   <g id="line2d_33">
    <path d="M 232.075544 180.991246 
" clip-path="url(#pf41f02139b)" style="fill: none; stroke: #7f7f7f; stroke-width: 1.5; stroke-linecap: square"/>
    <defs>
     <path id="m1feeb82991" d="M 2.5 0 
C 2.5 -0.663008 2.236584 -1.29895 1.767767 -1.767767 
C 1.29895 -2.236584 0.663008 -2.5 0 -2.5 
C -0.663008 -2.5 -1.29895 -2.236584 -1.767767 -1.767767 
C -2.236584 -1.29895 -2.5 -0.663008 -2.5 -0 
C -2.5 0.663008 -2.236584 1.29895 -1.767767 1.767767 
C -1.29895 2.236584 -0.663008 2.5 -0 2.5 
C 0.663008 2.5 1.29895 2.236584 1.767767 1.767767 
C 2.236584 1.29895 2.5 0.663008 2.5 0 
z
" style="stroke: #ff7f0e"/>
    </defs>
    <g clip-path="url(#pf41f02139b)">
     <use xlink:href="#m1feeb82991" x="232.075544" y="180.991246" style="fill: #ff7f0e; stroke: #ff7f0e"/>
    </g>
   </g>
   <g id="line2d_34">
    <path d="M 145.95376 181.607115 
L 276.608601 180.375376 
" clip-path="url(#pf41f02139b)" style="fill: none; stroke: #808080; stroke-width: 0.5; stroke-linecap: square"/>
   </g>
   <g id="line2d_35">
    <path d="M 207.956924 160.834572 
" clip-path="url(#pf41f02139b)" style="fill: none; stroke: #2ca02c; stroke-width: 1.5; stroke-linecap: square"/>
    <defs>
     <path id="mbf11a394ea" d="M -2.377641 0.772542 
L 3.150184 1.605099 
L 1.605099 -3.150184 
z
" style="stroke: #2ca02c; stroke-linejoin: miter"/>
    </defs>
    <g clip-path="url(#pf41f02139b)">
     <use xlink:href="#mbf11a394ea" x="207.956924" y="160.834572" style="fill: #2ca02c; stroke: #2ca02c; stroke-linejoin: miter"/>
    </g>
   </g>
   <g id="line2d_36">
    <path d="M 227.693144 160.834572 
" clip-path="url(#pf41f02139b)" style="fill: none; stroke: #bcbd22; stroke-width: 1.5; stroke-linecap: square"/>
    <defs>
     <path id="mbb4de56428" d="M 2.377641 -0.772542 
C 2.172761 -1.4031 1.72572 -1.926517 1.134976 -2.227516 
C 0.544232 -2.528516 -0.141985 -2.582522 -0.772542 -2.377641 
C -1.4031 -2.172761 -1.926517 -1.72572 -2.227516 -1.134976 
C -2.528516 -0.544232 -2.582522 0.141985 -2.377641 0.772542 
C -2.172761 1.4031 -1.72572 1.926517 -1.134976 2.227516 
C -0.544232 2.528516 0.141985 2.582522 0.772542 2.377641 
C 1.4031 2.172761 1.926517 1.72572 2.227516 1.134976 
C 2.528516 0.544232 2.582522 -0.141985 2.377641 -0.772542 
z
" style="stroke: #2ca02c"/>
    </defs>
    <g clip-path="url(#pf41f02139b)">
     <use xlink:href="#mbb4de56428" x="227.693144" y="160.834572" style="fill: #2ca02c; stroke: #2ca02c"/>
    </g>
   </g>
   <g id="line2d_37">
    <path d="M 145.95376 181.607115 
L 269.960088 140.062028 
" clip-path="url(#pf41f02139b)" style="fill: none; stroke: #808080; stroke-width: 0.5; stroke-linecap: square"/>
   </g>
   <g id="line2d_38">
    <path d="M 198.563346 142.711266 
" clip-path="url(#pf41f02139b)" style="fill: none; stroke: #d62728; stroke-width: 1.5; stroke-linecap: square"/>
    <defs>
     <path id="m2ba4f01365" d="M -2.022542 1.469463 
L 3.492006 0.553079 
L 0.553079 -3.492006 
z
" style="stroke: #d62728; stroke-linejoin: miter"/>
    </defs>
    <g clip-path="url(#pf41f02139b)">
     <use xlink:href="#m2ba4f01365" x="198.563346" y="142.711266" style="fill: #d62728; stroke: #d62728; stroke-linejoin: miter"/>
    </g>
   </g>
   <g id="line2d_39">
    <path d="M 215.309497 142.711266 
" clip-path="url(#pf41f02139b)" style="fill: none; stroke: #17becf; stroke-width: 1.5; stroke-linecap: square"/>
    <defs>
     <path id="m267fe2d965" d="M 2.022542 -1.469463 
C 1.632836 -2.005848 1.045931 -2.365504 0.391086 -2.469221 
C -0.263759 -2.572938 -0.933079 -2.412249 -1.469463 -2.022542 
C -2.005848 -1.632836 -2.365504 -1.045931 -2.469221 -0.391086 
C -2.572938 0.263759 -2.412249 0.933079 -2.022542 1.469463 
C -1.632836 2.005848 -1.045931 2.365504 -0.391086 2.469221 
C 0.263759 2.572938 0.933079 2.412249 1.469463 2.022542 
C 2.005848 1.632836 2.365504 1.045931 2.469221 0.391086 
C 2.572938 -0.263759 2.412249 -0.933079 2.022542 -1.469463 
z
" style="stroke: #d62728"/>
    </defs>
    <g clip-path="url(#pf41f02139b)">
     <use xlink:href="#m267fe2d965" x="215.309497" y="142.711266" style="fill: #d62728; stroke: #d62728"/>
    </g>
   </g>
   <g id="line2d_40">
    <path d="M 145.95376 181.607115 
L 251.172932 103.815416 
" clip-path="url(#pf41f02139b)" style="fill: none; stroke: #808080; stroke-width: 0.5; stroke-linecap: square"/>
   </g>
   <g id="line2d_41">
    <path d="M 184.019958 128.395369 
" clip-path="url(#pf41f02139b)" style="fill: none; stroke: #9467bd; stroke-width: 1.5; stroke-linecap: square"/>
    <defs>
     <path id="mee21843e39" d="M -1.469463 2.022542 
L 3.492006 -0.553079 
L -0.553079 -3.492006 
z
" style="stroke: #9467bd; stroke-linejoin: miter"/>
    </defs>
    <g clip-path="url(#pf41f02139b)">
     <use xlink:href="#mee21843e39" x="184.019958" y="128.395369" style="fill: #9467bd; stroke: #9467bd; stroke-linejoin: miter"/>
    </g>
   </g>
   <g id="line2d_42">
    <path d="M 196.136805 128.395369 
" clip-path="url(#pf41f02139b)" style="fill: none; stroke: #1f77b4; stroke-width: 1.5; stroke-linecap: square"/>
    <defs>
     <path id="m4fac6e39ea" d="M 1.469463 -2.022542 
C 0.933079 -2.412249 0.263759 -2.572938 -0.391086 -2.469221 
C -1.045931 -2.365504 -1.632836 -2.005848 -2.022542 -1.469463 
C -2.412249 -0.933079 -2.572938 -0.263759 -2.469221 0.391086 
C -2.365504 1.045931 -2.005848 1.632836 -1.469463 2.022542 
C -0.933079 2.412249 -0.263759 2.572938 0.391086 2.469221 
C 1.045931 2.365504 1.632836 2.005848 2.022542 1.469463 
C 2.412249 0.933079 2.572938 0.263759 2.469221 -0.391086 
C 2.365504 -1.045931 2.005848 -1.632836 1.469463 -2.022542 
z
" style="stroke: #9467bd"/>
    </defs>
    <g clip-path="url(#pf41f02139b)">
     <use xlink:href="#m4fac6e39ea" x="196.136805" y="128.395369" style="fill: #9467bd; stroke: #9467bd"/>
    </g>
   </g>
   <g id="line2d_43">
    <path d="M 145.95376 181.607115 
L 222.086156 75.183622 
" clip-path="url(#pf41f02139b)" style="fill: none; stroke: #808080; stroke-width: 0.5; stroke-linecap: square"/>
   </g>
   <g id="line2d_44">
    <path d="M 165.750374 119.288225 
" clip-path="url(#pf41f02139b)" style="fill: none; stroke: #1f77b4; stroke-width: 1.5; stroke-linecap: square"/>
    <defs>
     <path id="m45b189d030" d="M -0.772542 2.377641 
L 3.150184 -1.605099 
L -1.605099 -3.150184 
z
" style="stroke: #1f77b4; stroke-linejoin: miter"/>
    </defs>
    <g clip-path="url(#pf41f02139b)">
     <use xlink:href="#m45b189d030" x="165.750374" y="119.288225" style="fill: #1f77b4; stroke: #1f77b4; stroke-linejoin: miter"/>
    </g>
   </g>
   <g id="line2d_45">
    <path d="M 172.051831 119.288225 
" clip-path="url(#pf41f02139b)" style="fill: none; stroke: #ff7f0e; stroke-width: 1.5; stroke-linecap: square"/>
    <defs>
     <path id="mcf5c039eeb" d="M 0.772542 -2.377641 
C 0.141985 -2.582522 -0.544232 -2.528516 -1.134976 -2.227516 
C -1.72572 -1.926517 -2.172761 -1.4031 -2.377641 -0.772542 
C -2.582522 -0.141985 -2.528516 0.544232 -2.227516 1.134976 
C -1.926517 1.72572 -1.4031 2.172761 -0.772542 2.377641 
C -0.141985 2.582522 0.544232 2.528516 1.134976 2.227516 
C 1.72572 1.926517 2.172761 1.4031 2.377641 0.772542 
C 2.582522 0.141985 2.528516 -0.544232 2.227516 -1.134976 
C 1.926517 -1.72572 1.4031 -2.172761 0.772542 -2.377641 
z
" style="stroke: #1f77b4"/>
    </defs>
    <g clip-path="url(#pf41f02139b)">
     <use xlink:href="#mcf5c039eeb" x="172.051831" y="119.288225" style="fill: #1f77b4; stroke: #1f77b4"/>
    </g>
   </g>
   <g id="line2d_46">
    <path d="M 145.95376 181.607115 
L 185.546987 56.969335 
" clip-path="url(#pf41f02139b)" style="fill: none; stroke: #808080; stroke-width: 0.5; stroke-linecap: square"/>
   </g>
   <g id="patch_5">
    <path d="M 47.961177 279.599698 
L 47.961177 83.614532 
" style="fill: none; stroke: #000000; stroke-width: 0.8; stroke-linejoin: miter; stroke-linecap: square"/>
   </g>
   <g id="patch_6">
    <path d="M 243.946343 279.599698 
L 243.946343 83.614532 
" style="fill: none; stroke: #000000; stroke-width: 0.8; stroke-linejoin: miter; stroke-linecap: square"/>
   </g>
   <g id="patch_7">
    <path d="M 47.961178 279.599698 
L 243.946343 279.599698 
" style="fill: none; stroke: #000000; stroke-width: 0.8; stroke-linejoin: miter; stroke-linecap: square"/>
   </g>
   <g id="patch_8">
    <path d="M 47.961178 83.614532 
L 243.946343 83.614532 
" style="fill: none; stroke: #000000; stroke-width: 0.8; stroke-linejoin: miter; stroke-linecap: square"/>
   </g>
   <g id="text_17">
    <!--  1 -->
    <g style="fill: #ff7f0e" transform="translate(146.494888 246.932925) scale(0.1 -0.1)">
     <use xlink:href="#DejaVuSans-20"/>
     <use xlink:href="#DejaVuSans-31" transform="translate(31.787109 0)"/>
    </g>
   </g>
   <g id="text_18">
    <!--  2 -->
    <g style="fill: #2ca02c" transform="translate(173.08154 243.545379) scale(0.1 -0.1)">
     <defs>
      <path id="DejaVuSans-32" d="M 1228 531 
L 3431 531 
L 3431 0 
L 469 0 
L 469 531 
Q 828 903 1448 1529 
Q 2069 2156 2228 2338 
Q 2531 2678 2651 2914 
Q 2772 3150 2772 3378 
Q 2772 3750 2511 3984 
Q 2250 4219 1831 4219 
Q 1534 4219 1204 4116 
Q 875 4013 500 3803 
L 500 4441 
Q 881 4594 1212 4672 
Q 1544 4750 1819 4750 
Q 2544 4750 2975 4387 
Q 3406 4025 3406 3419 
Q 3406 3131 3298 2873 
Q 3191 2616 2906 2266 
Q 2828 2175 2409 1742 
Q 1991 1309 1228 531 
z
" transform="scale(0.015625)"/>
     </defs>
     <use xlink:href="#DejaVuSans-20"/>
     <use xlink:href="#DejaVuSans-32" transform="translate(31.787109 0)"/>
    </g>
   </g>
   <g id="text_19">
    <!--  3 -->
    <g style="fill: #d62728" transform="translate(197.012729 234.094865) scale(0.1 -0.1)">
     <defs>
      <path id="DejaVuSans-33" d="M 2597 2516 
Q 3050 2419 3304 2112 
Q 3559 1806 3559 1356 
Q 3559 666 3084 287 
Q 2609 -91 1734 -91 
Q 1441 -91 1130 -33 
Q 819 25 488 141 
L 488 750 
Q 750 597 1062 519 
Q 1375 441 1716 441 
Q 2309 441 2620 675 
Q 2931 909 2931 1356 
Q 2931 1769 2642 2001 
Q 2353 2234 1838 2234 
L 1294 2234 
L 1294 2753 
L 1863 2753 
Q 2328 2753 2575 2939 
Q 2822 3125 2822 3475 
Q 2822 3834 2567 4026 
Q 2313 4219 1838 4219 
Q 1578 4219 1281 4162 
Q 984 4106 628 3988 
L 628 4550 
Q 988 4650 1302 4700 
Q 1616 4750 1894 4750 
Q 2613 4750 3031 4423 
Q 3450 4097 3450 3541 
Q 3450 3153 3228 2886 
Q 3006 2619 2597 2516 
z
" transform="scale(0.015625)"/>
     </defs>
     <use xlink:href="#DejaVuSans-20"/>
     <use xlink:href="#DejaVuSans-33" transform="translate(31.787109 0)"/>
    </g>
   </g>
   <g id="text_20">
    <!--  4 -->
    <g style="fill: #9467bd" transform="translate(215.945893 219.506468) scale(0.1 -0.1)">
     <defs>
      <path id="DejaVuSans-34" d="M 2419 4116 
L 825 1625 
L 2419 1625 
L 2419 4116 
z
M 2253 4666 
L 3047 4666 
L 3047 1625 
L 3713 1625 
L 3713 1100 
L 3047 1100 
L 3047 0 
L 2419 0 
L 2419 1100 
L 313 1100 
L 313 1709 
L 2253 4666 
z
" transform="scale(0.015625)"/>
     </defs>
     <use xlink:href="#DejaVuSans-20"/>
     <use xlink:href="#DejaVuSans-34" transform="translate(31.787109 0)"/>
    </g>
   </g>
   <g id="text_21">
    <!--  5 -->
    <g style="fill: #1f77b4" transform="translate(228.027717 201.208206) scale(0.1 -0.1)">
     <use xlink:href="#DejaVuSans-20"/>
     <use xlink:href="#DejaVuSans-35" transform="translate(31.787109 0)"/>
    </g>
   </g>
   <g id="text_22">
    <!--  6 -->
    <g style="fill: #ff7f0e" transform="translate(232.075544 180.991246) scale(0.1 -0.1)">
     <defs>
      <path id="DejaVuSans-36" d="M 2113 2584 
Q 1688 2584 1439 2293 
Q 1191 2003 1191 1497 
Q 1191 994 1439 701 
Q 1688 409 2113 409 
Q 2538 409 2786 701 
Q 3034 994 3034 1497 
Q 3034 2003 2786 2293 
Q 2538 2584 2113 2584 
z
M 3366 4563 
L 3366 3988 
Q 3128 4100 2886 4159 
Q 2644 4219 2406 4219 
Q 1781 4219 1451 3797 
Q 1122 3375 1075 2522 
Q 1259 2794 1537 2939 
Q 1816 3084 2150 3084 
Q 2853 3084 3261 2657 
Q 3669 2231 3669 1497 
Q 3669 778 3244 343 
Q 2819 -91 2113 -91 
Q 1303 -91 875 529 
Q 447 1150 447 2328 
Q 447 3434 972 4092 
Q 1497 4750 2381 4750 
Q 2619 4750 2861 4703 
Q 3103 4656 3366 4563 
z
" transform="scale(0.015625)"/>
     </defs>
     <use xlink:href="#DejaVuSans-20"/>
     <use xlink:href="#DejaVuSans-36" transform="translate(31.787109 0)"/>
    </g>
   </g>
   <g id="text_23">
    <!--  7 -->
    <g style="fill: #2ca02c" transform="translate(227.693144 160.834572) scale(0.1 -0.1)">
     <defs>
      <path id="DejaVuSans-37" d="M 525 4666 
L 3525 4666 
L 3525 4397 
L 1831 0 
L 1172 0 
L 2766 4134 
L 525 4134 
L 525 4666 
z
" transform="scale(0.015625)"/>
     </defs>
     <use xlink:href="#DejaVuSans-20"/>
     <use xlink:href="#DejaVuSans-37" transform="translate(31.787109 0)"/>
    </g>
   </g>
   <g id="text_24">
    <!--  8 -->
    <g style="fill: #d62728" transform="translate(215.309497 142.711266) scale(0.1 -0.1)">
     <defs>
      <path id="DejaVuSans-38" d="M 2034 2216 
Q 1584 2216 1326 1975 
Q 1069 1734 1069 1313 
Q 1069 891 1326 650 
Q 1584 409 2034 409 
Q 2484 409 2743 651 
Q 3003 894 3003 1313 
Q 3003 1734 2745 1975 
Q 2488 2216 2034 2216 
z
M 1403 2484 
Q 997 2584 770 2862 
Q 544 3141 544 3541 
Q 544 4100 942 4425 
Q 1341 4750 2034 4750 
Q 2731 4750 3128 4425 
Q 3525 4100 3525 3541 
Q 3525 3141 3298 2862 
Q 3072 2584 2669 2484 
Q 3125 2378 3379 2068 
Q 3634 1759 3634 1313 
Q 3634 634 3220 271 
Q 2806 -91 2034 -91 
Q 1263 -91 848 271 
Q 434 634 434 1313 
Q 434 1759 690 2068 
Q 947 2378 1403 2484 
z
M 1172 3481 
Q 1172 3119 1398 2916 
Q 1625 2713 2034 2713 
Q 2441 2713 2670 2916 
Q 2900 3119 2900 3481 
Q 2900 3844 2670 4047 
Q 2441 4250 2034 4250 
Q 1625 4250 1398 4047 
Q 1172 3844 1172 3481 
z
" transform="scale(0.015625)"/>
     </defs>
     <use xlink:href="#DejaVuSans-20"/>
     <use xlink:href="#DejaVuSans-38" transform="translate(31.787109 0)"/>
    </g>
   </g>
   <g id="text_25">
    <!--  9 -->
    <g style="fill: #9467bd" transform="translate(196.136805 128.395369) scale(0.1 -0.1)">
     <defs>
      <path id="DejaVuSans-39" d="M 703 97 
L 703 672 
Q 941 559 1184 500 
Q 1428 441 1663 441 
Q 2288 441 2617 861 
Q 2947 1281 2994 2138 
Q 2813 1869 2534 1725 
Q 2256 1581 1919 1581 
Q 1219 1581 811 2004 
Q 403 2428 403 3163 
Q 403 3881 828 4315 
Q 1253 4750 1959 4750 
Q 2769 4750 3195 4129 
Q 3622 3509 3622 2328 
Q 3622 1225 3098 567 
Q 2575 -91 1691 -91 
Q 1453 -91 1209 -44 
Q 966 3 703 97 
z
M 1959 2075 
Q 2384 2075 2632 2365 
Q 2881 2656 2881 3163 
Q 2881 3666 2632 3958 
Q 2384 4250 1959 4250 
Q 1534 4250 1286 3958 
Q 1038 3666 1038 3163 
Q 1038 2656 1286 2365 
Q 1534 2075 1959 2075 
z
" transform="scale(0.015625)"/>
     </defs>
     <use xlink:href="#DejaVuSans-20"/>
     <use xlink:href="#DejaVuSans-39" transform="translate(31.787109 0)"/>
    </g>
   </g>
   <g id="text_26">
    <!--  10 -->
    <g style="fill: #1f77b4" transform="translate(172.051831 119.288225) scale(0.1 -0.1)">
     <use xlink:href="#DejaVuSans-20"/>
     <use xlink:href="#DejaVuSans-31" transform="translate(31.787109 0)"/>
     <use xlink:href="#DejaVuSans-30" transform="translate(95.410156 0)"/>
    </g>
   </g>
   <g id="text_27">
    <!-- $\Omega$ -->
    <g style="fill: #808080" transform="translate(152.486599 178.385526) scale(0.12 -0.12)">
     <defs>
      <path id="DejaVuSans-3a9" d="M 4647 556 
L 4647 0 
L 2772 0 
L 2772 556 
Q 3325 859 3634 1378 
Q 3944 1897 3944 2528 
Q 3944 3278 3531 3731 
Q 3119 4184 2444 4184 
Q 1769 4184 1355 3729 
Q 941 3275 941 2528 
Q 941 1897 1250 1378 
Q 1563 859 2119 556 
L 2119 0 
L 244 0 
L 244 556 
L 1241 556 
Q 747 991 519 1456 
Q 294 1922 294 2497 
Q 294 3491 894 4106 
Q 1491 4722 2444 4722 
Q 3391 4722 3994 4106 
Q 4594 3494 4594 2528 
Q 4594 1922 4372 1459 
Q 4150 997 3647 556 
L 4647 556 
z
" transform="scale(0.015625)"/>
     </defs>
     <use xlink:href="#DejaVuSans-3a9" transform="translate(0 0.21875)"/>
    </g>
   </g>
   <g id="text_28">
    <!-- trajectory in inertial frame -->
    <g transform="translate(66.786573 77.614532) scale(0.12 -0.12)">
     <defs>
      <path id="DejaVuSans-74" d="M 1172 4494 
L 1172 3500 
L 2356 3500 
L 2356 3053 
L 1172 3053 
L 1172 1153 
Q 1172 725 1289 603 
Q 1406 481 1766 481 
L 2356 481 
L 2356 0 
L 1766 0 
Q 1100 0 847 248 
Q 594 497 594 1153 
L 594 3053 
L 172 3053 
L 172 3500 
L 594 3500 
L 594 4494 
L 1172 4494 
z
" transform="scale(0.015625)"/>
      <path id="DejaVuSans-72" d="M 2631 2963 
Q 2534 3019 2420 3045 
Q 2306 3072 2169 3072 
Q 1681 3072 1420 2755 
Q 1159 2438 1159 1844 
L 1159 0 
L 581 0 
L 581 3500 
L 1159 3500 
L 1159 2956 
Q 1341 3275 1631 3429 
Q 1922 3584 2338 3584 
Q 2397 3584 2469 3576 
Q 2541 3569 2628 3553 
L 2631 2963 
z
" transform="scale(0.015625)"/>
      <path id="DejaVuSans-61" d="M 2194 1759 
Q 1497 1759 1228 1600 
Q 959 1441 959 1056 
Q 959 750 1161 570 
Q 1363 391 1709 391 
Q 2188 391 2477 730 
Q 2766 1069 2766 1631 
L 2766 1759 
L 2194 1759 
z
M 3341 1997 
L 3341 0 
L 2766 0 
L 2766 531 
Q 2569 213 2275 61 
Q 1981 -91 1556 -91 
Q 1019 -91 701 211 
Q 384 513 384 1019 
Q 384 1609 779 1909 
Q 1175 2209 1959 2209 
L 2766 2209 
L 2766 2266 
Q 2766 2663 2505 2880 
Q 2244 3097 1772 3097 
Q 1472 3097 1187 3025 
Q 903 2953 641 2809 
L 641 3341 
Q 956 3463 1253 3523 
Q 1550 3584 1831 3584 
Q 2591 3584 2966 3190 
Q 3341 2797 3341 1997 
z
" transform="scale(0.015625)"/>
      <path id="DejaVuSans-6a" d="M 603 3500 
L 1178 3500 
L 1178 -63 
Q 1178 -731 923 -1031 
Q 669 -1331 103 -1331 
L -116 -1331 
L -116 -844 
L 38 -844 
Q 366 -844 484 -692 
Q 603 -541 603 -63 
L 603 3500 
z
M 603 4863 
L 1178 4863 
L 1178 4134 
L 603 4134 
L 603 4863 
z
" transform="scale(0.015625)"/>
      <path id="DejaVuSans-65" d="M 3597 1894 
L 3597 1613 
L 953 1613 
Q 991 1019 1311 708 
Q 1631 397 2203 397 
Q 2534 397 2845 478 
Q 3156 559 3463 722 
L 3463 178 
Q 3153 47 2828 -22 
Q 2503 -91 2169 -91 
Q 1331 -91 842 396 
Q 353 884 353 1716 
Q 353 2575 817 3079 
Q 1281 3584 2069 3584 
Q 2775 3584 3186 3129 
Q 3597 2675 3597 1894 
z
M 3022 2063 
Q 3016 2534 2758 2815 
Q 2500 3097 2075 3097 
Q 1594 3097 1305 2825 
Q 1016 2553 972 2059 
L 3022 2063 
z
" transform="scale(0.015625)"/>
      <path id="DejaVuSans-63" d="M 3122 3366 
L 3122 2828 
Q 2878 2963 2633 3030 
Q 2388 3097 2138 3097 
Q 1578 3097 1268 2742 
Q 959 2388 959 1747 
Q 959 1106 1268 751 
Q 1578 397 2138 397 
Q 2388 397 2633 464 
Q 2878 531 3122 666 
L 3122 134 
Q 2881 22 2623 -34 
Q 2366 -91 2075 -91 
Q 1284 -91 818 406 
Q 353 903 353 1747 
Q 353 2603 823 3093 
Q 1294 3584 2113 3584 
Q 2378 3584 2631 3529 
Q 2884 3475 3122 3366 
z
" transform="scale(0.015625)"/>
      <path id="DejaVuSans-6f" d="M 1959 3097 
Q 1497 3097 1228 2736 
Q 959 2375 959 1747 
Q 959 1119 1226 758 
Q 1494 397 1959 397 
Q 2419 397 2687 759 
Q 2956 1122 2956 1747 
Q 2956 2369 2687 2733 
Q 2419 3097 1959 3097 
z
M 1959 3584 
Q 2709 3584 3137 3096 
Q 3566 2609 3566 1747 
Q 3566 888 3137 398 
Q 2709 -91 1959 -91 
Q 1206 -91 779 398 
Q 353 888 353 1747 
Q 353 2609 779 3096 
Q 1206 3584 1959 3584 
z
" transform="scale(0.015625)"/>
      <path id="DejaVuSans-69" d="M 603 3500 
L 1178 3500 
L 1178 0 
L 603 0 
L 603 3500 
z
M 603 4863 
L 1178 4863 
L 1178 4134 
L 603 4134 
L 603 4863 
z
" transform="scale(0.015625)"/>
      <path id="DejaVuSans-6e" d="M 3513 2113 
L 3513 0 
L 2938 0 
L 2938 2094 
Q 2938 2591 2744 2837 
Q 2550 3084 2163 3084 
Q 1697 3084 1428 2787 
Q 1159 2491 1159 1978 
L 1159 0 
L 581 0 
L 581 3500 
L 1159 3500 
L 1159 2956 
Q 1366 3272 1645 3428 
Q 1925 3584 2291 3584 
Q 2894 3584 3203 3211 
Q 3513 2838 3513 2113 
z
" transform="scale(0.015625)"/>
      <path id="DejaVuSans-6c" d="M 603 4863 
L 1178 4863 
L 1178 0 
L 603 0 
L 603 4863 
z
" transform="scale(0.015625)"/>
      <path id="DejaVuSans-66" d="M 2375 4863 
L 2375 4384 
L 1825 4384 
Q 1516 4384 1395 4259 
Q 1275 4134 1275 3809 
L 1275 3500 
L 2222 3500 
L 2222 3053 
L 1275 3053 
L 1275 0 
L 697 0 
L 697 3053 
L 147 3053 
L 147 3500 
L 697 3500 
L 697 3744 
Q 697 4328 969 4595 
Q 1241 4863 1831 4863 
L 2375 4863 
z
" transform="scale(0.015625)"/>
     </defs>
     <use xlink:href="#DejaVuSans-74"/>
     <use xlink:href="#DejaVuSans-72" transform="translate(39.208984 0)"/>
     <use xlink:href="#DejaVuSans-61" transform="translate(80.322266 0)"/>
     <use xlink:href="#DejaVuSans-6a" transform="translate(141.601562 0)"/>
     <use xlink:href="#DejaVuSans-65" transform="translate(169.384766 0)"/>
     <use xlink:href="#DejaVuSans-63" transform="translate(230.908203 0)"/>
     <use xlink:href="#DejaVuSans-74" transform="translate(285.888672 0)"/>
     <use xlink:href="#DejaVuSans-6f" transform="translate(325.097656 0)"/>
     <use xlink:href="#DejaVuSans-72" transform="translate(386.279297 0)"/>
     <use xlink:href="#DejaVuSans-79" transform="translate(427.392578 0)"/>
     <use xlink:href="#DejaVuSans-20" transform="translate(486.572266 0)"/>
     <use xlink:href="#DejaVuSans-69" transform="translate(518.359375 0)"/>
     <use xlink:href="#DejaVuSans-6e" transform="translate(546.142578 0)"/>
     <use xlink:href="#DejaVuSans-20" transform="translate(609.521484 0)"/>
     <use xlink:href="#DejaVuSans-69" transform="translate(641.308594 0)"/>
     <use xlink:href="#DejaVuSans-6e" transform="translate(669.091797 0)"/>
     <use xlink:href="#DejaVuSans-65" transform="translate(732.470703 0)"/>
     <use xlink:href="#DejaVuSans-72" transform="translate(793.994141 0)"/>
     <use xlink:href="#DejaVuSans-74" transform="translate(835.107422 0)"/>
     <use xlink:href="#DejaVuSans-69" transform="translate(874.316406 0)"/>
     <use xlink:href="#DejaVuSans-61" transform="translate(902.099609 0)"/>
     <use xlink:href="#DejaVuSans-6c" transform="translate(963.378906 0)"/>
     <use xlink:href="#DejaVuSans-20" transform="translate(991.162109 0)"/>
     <use xlink:href="#DejaVuSans-66" transform="translate(1022.949219 0)"/>
     <use xlink:href="#DejaVuSans-72" transform="translate(1058.154297 0)"/>
     <use xlink:href="#DejaVuSans-61" transform="translate(1099.267578 0)"/>
     <use xlink:href="#DejaVuSans-6d" transform="translate(1160.546875 0)"/>
     <use xlink:href="#DejaVuSans-65" transform="translate(1257.958984 0)"/>
    </g>
   </g>
   <g id="patch_9">
    <path d="M 146.254203 217.877021 
L 147.914413 221.1298 
L 146.313922 221.143058 
L 146.527551 246.932654 
L 146.462224 246.933195 
L 146.248596 221.143599 
L 144.648105 221.156857 
z
" clip-path="url(#pf41f02139b)" style="fill: #ff7f0e; opacity: 0.5; stroke: #ff7f0e; stroke-linejoin: miter"/>
   </g>
   <g id="patch_10">
    <path d="M 191.683632 246.935504 
L 185.150794 248.895355 
L 185.150794 246.968168 
L 145.95376 246.968168 
L 145.95376 246.902839 
L 185.150794 246.902839 
L 185.150794 244.975652 
z
" clip-path="url(#pf41f02139b)" style="fill: #ff7f0e; opacity: 0.5; stroke: #ff7f0e; stroke-linejoin: miter"/>
   </g>
   <g id="patch_11">
    <path d="M 161.061472 216.101107 
L 163.867935 218.437908 
L 162.401842 219.080028 
L 173.111461 243.532275 
L 173.05162 243.558484 
L 162.342002 219.106237 
L 160.875909 219.748358 
z
" clip-path="url(#pf41f02139b)" style="fill: #2ca02c; opacity: 0.5; stroke: #2ca02c; stroke-linejoin: miter"/>
   </g>
   <g id="patch_12">
    <path d="M 191.683632 246.935504 
L 185.150794 248.895355 
L 185.150794 246.968168 
L 145.95376 246.968168 
L 145.95376 246.902839 
L 185.150794 246.902839 
L 185.150794 244.975652 
z
" clip-path="url(#pf41f02139b)" style="fill: #ff7f0e; opacity: 0.5; stroke: #ff7f0e; stroke-linejoin: miter"/>
   </g>
   <g id="patch_13">
    <path d="M 174.577836 211.032177 
L 178.026133 212.234722 
L 176.878869 213.350756 
L 197.036142 234.072089 
L 196.989315 234.117641 
L 176.832042 213.396308 
L 175.684778 214.512342 
z
" clip-path="url(#pf41f02139b)" style="fill: #d62728; opacity: 0.5; stroke: #d62728; stroke-linejoin: miter"/>
   </g>
   <g id="patch_14">
    <path d="M 191.683632 246.935504 
L 185.150794 248.895355 
L 185.150794 246.968168 
L 145.95376 246.968168 
L 145.95376 246.902839 
L 185.150794 246.902839 
L 185.150794 244.975652 
z
" clip-path="url(#pf41f02139b)" style="fill: #ff7f0e; opacity: 0.5; stroke: #ff7f0e; stroke-linejoin: miter"/>
   </g>
   <g id="patch_15">
    <path d="M 185.441746 202.989077 
L 189.09177 203.108223 
L 188.32966 204.515679 
L 215.961446 219.477744 
L 215.93034 219.535191 
L 188.298553 204.573127 
L 187.536443 205.980583 
z
" clip-path="url(#pf41f02139b)" style="fill: #9467bd; opacity: 0.5; stroke: #9467bd; stroke-linejoin: miter"/>
   </g>
   <g id="patch_16">
    <path d="M 191.683632 246.935504 
L 185.150794 248.895355 
L 185.150794 246.968168 
L 145.95376 246.968168 
L 145.95376 246.902839 
L 185.150794 246.902839 
L 185.150794 244.975652 
z
" clip-path="url(#pf41f02139b)" style="fill: #ff7f0e; opacity: 0.5; stroke: #ff7f0e; stroke-linejoin: miter"/>
   </g>
   <g id="patch_17">
    <path d="M 192.449146 192.71125 
L 196.005595 191.881469 
L 195.633805 193.438234 
L 228.035305 201.176435 
L 228.02013 201.239976 
L 195.61863 193.501776 
L 195.24684 195.058541 
z
" clip-path="url(#pf41f02139b)" style="fill: #1f77b4; opacity: 0.5; stroke: #1f77b4; stroke-linejoin: miter"/>
   </g>
   <g id="patch_18">
    <path d="M 191.683632 246.935504 
L 185.150794 248.895355 
L 185.150794 246.968168 
L 145.95376 246.968168 
L 145.95376 246.902839 
L 185.150794 246.902839 
L 185.150794 244.975652 
z
" clip-path="url(#pf41f02139b)" style="fill: #ff7f0e; opacity: 0.5; stroke: #ff7f0e; stroke-linejoin: miter"/>
   </g>
   <g id="patch_19">
    <path d="M 194.809691 181.257739 
L 198.064348 179.601213 
L 198.075793 181.201718 
L 232.075311 180.958582 
L 232.075778 181.023909 
L 198.07626 181.267045 
L 198.087706 182.867549 
z
" clip-path="url(#pf41f02139b)" style="fill: #ff7f0e; opacity: 0.5; stroke: #ff7f0e; stroke-linejoin: miter"/>
   </g>
   <g id="patch_20">
    <path d="M 191.683632 246.935504 
L 185.150794 248.895355 
L 185.150794 246.968168 
L 145.95376 246.968168 
L 145.95376 246.902839 
L 185.150794 246.902839 
L 185.150794 244.975652 
z
" clip-path="url(#pf41f02139b)" style="fill: #ff7f0e; opacity: 0.5; stroke: #ff7f0e; stroke-linejoin: miter"/>
   </g>
   <g id="patch_21">
    <path d="M 192.257938 169.83977 
L 195.021465 167.452348 
L 195.415684 169.003585 
L 227.685099 160.802914 
L 227.701189 160.86623 
L 195.431774 169.066901 
L 195.825992 170.618139 
z
" clip-path="url(#pf41f02139b)" style="fill: #2ca02c; opacity: 0.5; stroke: #2ca02c; stroke-linejoin: miter"/>
   </g>
   <g id="patch_22">
    <path d="M 191.683632 246.935504 
L 185.150794 248.895355 
L 185.150794 246.968168 
L 145.95376 246.968168 
L 145.95376 246.902839 
L 185.150794 246.902839 
L 185.150794 244.975652 
z
" clip-path="url(#pf41f02139b)" style="fill: #ff7f0e; opacity: 0.5; stroke: #ff7f0e; stroke-linejoin: miter"/>
   </g>
   <g id="patch_23">
    <path d="M 185.079972 159.664486 
L 187.130073 156.642242 
L 187.912972 158.038242 
L 215.29352 142.682776 
L 215.325475 142.739755 
L 187.944927 158.095221 
L 188.727827 159.491221 
z
" clip-path="url(#pf41f02139b)" style="fill: #d62728; opacity: 0.5; stroke: #d62728; stroke-linejoin: miter"/>
   </g>
   <g id="patch_24">
    <path d="M 191.683632 246.935504 
L 185.150794 248.895355 
L 185.150794 246.968168 
L 145.95376 246.968168 
L 145.95376 246.902839 
L 185.150794 246.902839 
L 185.150794 244.975652 
z
" clip-path="url(#pf41f02139b)" style="fill: #ff7f0e; opacity: 0.5; stroke: #ff7f0e; stroke-linejoin: miter"/>
   </g>
   <g id="patch_25">
    <path d="M 174.084245 151.778869 
L 175.137161 148.28198 
L 176.30157 149.380113 
L 196.113042 128.372958 
L 196.160569 128.417779 
L 176.349097 149.424935 
L 177.513506 150.523068 
z
" clip-path="url(#pf41f02139b)" style="fill: #9467bd; opacity: 0.5; stroke: #9467bd; stroke-linejoin: miter"/>
   </g>
   <g id="patch_26">
    <path d="M 191.683632 246.935504 
L 185.150794 248.895355 
L 185.150794 246.968168 
L 145.95376 246.968168 
L 145.95376 246.902839 
L 185.150794 246.902839 
L 185.150794 244.975652 
z
" clip-path="url(#pf41f02139b)" style="fill: #ff7f0e; opacity: 0.5; stroke: #ff7f0e; stroke-linejoin: miter"/>
   </g>
   <g id="patch_27">
    <path d="M 160.486981 146.903625 
L 160.242282 143.259864 
L 161.718597 143.878119 
L 172.021703 119.275608 
L 172.08196 119.300843 
L 161.778855 143.903354 
L 163.25517 144.521609 
z
" clip-path="url(#pf41f02139b)" style="fill: #1f77b4; opacity: 0.5; stroke: #1f77b4; stroke-linejoin: miter"/>
   </g>
   <g id="patch_28">
    <path d="M 191.683632 246.935504 
L 185.150794 248.895355 
L 185.150794 246.968168 
L 145.95376 246.968168 
L 145.95376 246.902839 
L 185.150794 246.902839 
L 185.150794 244.975652 
z
" clip-path="url(#pf41f02139b)" style="fill: #ff7f0e; opacity: 0.5; stroke: #ff7f0e; stroke-linejoin: miter"/>
   </g>
  </g>
  <g id="axes_2">
   <g id="patch_29">
    <path d="M 302.859323 255.101552 
L 449.848197 255.101552 
L 449.848197 108.112678 
L 302.859323 108.112678 
z
" style="fill: #ffffff"/>
   </g>
   <g id="matplotlib.axis_3">
    <g id="xtick_8">
     <g id="line2d_47">
      <g>
       <use xlink:href="#m23e3686825" x="302.859323" y="255.101552" style="stroke: #000000; stroke-width: 0.8"/>
      </g>
     </g>
     <g id="text_29">
      <!-- −0.4 -->
      <g transform="translate(290.717917 269.69999) scale(0.1 -0.1)">
       <use xlink:href="#DejaVuSans-2212"/>
       <use xlink:href="#DejaVuSans-30" transform="translate(83.789062 0)"/>
       <use xlink:href="#DejaVuSans-2e" transform="translate(147.412109 0)"/>
       <use xlink:href="#DejaVuSans-34" transform="translate(179.199219 0)"/>
      </g>
     </g>
    </g>
    <g id="xtick_9">
     <g id="line2d_48">
      <g>
       <use xlink:href="#m23e3686825" x="339.606542" y="255.101552" style="stroke: #000000; stroke-width: 0.8"/>
      </g>
     </g>
     <g id="text_30">
      <!-- −0.2 -->
      <g transform="translate(327.465136 269.69999) scale(0.1 -0.1)">
       <use xlink:href="#DejaVuSans-2212"/>
       <use xlink:href="#DejaVuSans-30" transform="translate(83.789062 0)"/>
       <use xlink:href="#DejaVuSans-2e" transform="translate(147.412109 0)"/>
       <use xlink:href="#DejaVuSans-32" transform="translate(179.199219 0)"/>
      </g>
     </g>
    </g>
    <g id="xtick_10">
     <g id="line2d_49">
      <g>
       <use xlink:href="#m23e3686825" x="376.35376" y="255.101552" style="stroke: #000000; stroke-width: 0.8"/>
      </g>
     </g>
     <g id="text_31">
      <!-- 0.0 -->
      <g transform="translate(368.402198 269.69999) scale(0.1 -0.1)">
       <use xlink:href="#DejaVuSans-30"/>
       <use xlink:href="#DejaVuSans-2e" transform="translate(63.623047 0)"/>
       <use xlink:href="#DejaVuSans-30" transform="translate(95.410156 0)"/>
      </g>
     </g>
    </g>
    <g id="xtick_11">
     <g id="line2d_50">
      <g>
       <use xlink:href="#m23e3686825" x="413.100979" y="255.101552" style="stroke: #000000; stroke-width: 0.8"/>
      </g>
     </g>
     <g id="text_32">
      <!-- 0.2 -->
      <g transform="translate(405.149416 269.69999) scale(0.1 -0.1)">
       <use xlink:href="#DejaVuSans-30"/>
       <use xlink:href="#DejaVuSans-2e" transform="translate(63.623047 0)"/>
       <use xlink:href="#DejaVuSans-32" transform="translate(95.410156 0)"/>
      </g>
     </g>
    </g>
    <g id="xtick_12">
     <g id="line2d_51">
      <g>
       <use xlink:href="#m23e3686825" x="449.848197" y="255.101552" style="stroke: #000000; stroke-width: 0.8"/>
      </g>
     </g>
     <g id="text_33">
      <!-- 0.4 -->
      <g transform="translate(441.896635 269.69999) scale(0.1 -0.1)">
       <use xlink:href="#DejaVuSans-30"/>
       <use xlink:href="#DejaVuSans-2e" transform="translate(63.623047 0)"/>
       <use xlink:href="#DejaVuSans-34" transform="translate(95.410156 0)"/>
      </g>
     </g>
    </g>
    <g id="text_34">
     <!-- EAST [m] -->
     <g transform="translate(353.18501 283.378115) scale(0.1 -0.1)">
      <defs>
       <path id="DejaVuSans-45" d="M 628 4666 
L 3578 4666 
L 3578 4134 
L 1259 4134 
L 1259 2753 
L 3481 2753 
L 3481 2222 
L 1259 2222 
L 1259 531 
L 3634 531 
L 3634 0 
L 628 0 
L 628 4666 
z
" transform="scale(0.015625)"/>
       <path id="DejaVuSans-41" d="M 2188 4044 
L 1331 1722 
L 3047 1722 
L 2188 4044 
z
M 1831 4666 
L 2547 4666 
L 4325 0 
L 3669 0 
L 3244 1197 
L 1141 1197 
L 716 0 
L 50 0 
L 1831 4666 
z
" transform="scale(0.015625)"/>
       <path id="DejaVuSans-53" d="M 3425 4513 
L 3425 3897 
Q 3066 4069 2747 4153 
Q 2428 4238 2131 4238 
Q 1616 4238 1336 4038 
Q 1056 3838 1056 3469 
Q 1056 3159 1242 3001 
Q 1428 2844 1947 2747 
L 2328 2669 
Q 3034 2534 3370 2195 
Q 3706 1856 3706 1288 
Q 3706 609 3251 259 
Q 2797 -91 1919 -91 
Q 1588 -91 1214 -16 
Q 841 59 441 206 
L 441 856 
Q 825 641 1194 531 
Q 1563 422 1919 422 
Q 2459 422 2753 634 
Q 3047 847 3047 1241 
Q 3047 1584 2836 1778 
Q 2625 1972 2144 2069 
L 1759 2144 
Q 1053 2284 737 2584 
Q 422 2884 422 3419 
Q 422 4038 858 4394 
Q 1294 4750 2059 4750 
Q 2388 4750 2728 4690 
Q 3069 4631 3425 4513 
z
" transform="scale(0.015625)"/>
       <path id="DejaVuSans-54" d="M -19 4666 
L 3928 4666 
L 3928 4134 
L 2272 4134 
L 2272 0 
L 1638 0 
L 1638 4134 
L -19 4134 
L -19 4666 
z
" transform="scale(0.015625)"/>
      </defs>
      <use xlink:href="#DejaVuSans-45"/>
      <use xlink:href="#DejaVuSans-41" transform="translate(63.183594 0)"/>
      <use xlink:href="#DejaVuSans-53" transform="translate(131.591797 0)"/>
      <use xlink:href="#DejaVuSans-54" transform="translate(195.068359 0)"/>
      <use xlink:href="#DejaVuSans-20" transform="translate(256.152344 0)"/>
      <use xlink:href="#DejaVuSans-5b" transform="translate(287.939453 0)"/>
      <use xlink:href="#DejaVuSans-6d" transform="translate(326.953125 0)"/>
      <use xlink:href="#DejaVuSans-5d" transform="translate(424.365234 0)"/>
     </g>
    </g>
   </g>
   <g id="matplotlib.axis_4">
    <g id="ytick_8">
     <g id="line2d_52">
      <g>
       <use xlink:href="#mcb4f7d5471" x="302.859323" y="255.101552" style="stroke: #000000; stroke-width: 0.8"/>
      </g>
     </g>
     <g id="text_35">
      <!-- −0.4 -->
      <g transform="translate(271.576511 258.900771) scale(0.1 -0.1)">
       <use xlink:href="#DejaVuSans-2212"/>
       <use xlink:href="#DejaVuSans-30" transform="translate(83.789062 0)"/>
       <use xlink:href="#DejaVuSans-2e" transform="translate(147.412109 0)"/>
       <use xlink:href="#DejaVuSans-34" transform="translate(179.199219 0)"/>
      </g>
     </g>
    </g>
    <g id="ytick_9">
     <g id="line2d_53">
      <g>
       <use xlink:href="#mcb4f7d5471" x="302.859323" y="218.354334" style="stroke: #000000; stroke-width: 0.8"/>
      </g>
     </g>
     <g id="text_36">
      <!-- −0.2 -->
      <g transform="translate(271.576511 222.153552) scale(0.1 -0.1)">
       <use xlink:href="#DejaVuSans-2212"/>
       <use xlink:href="#DejaVuSans-30" transform="translate(83.789062 0)"/>
       <use xlink:href="#DejaVuSans-2e" transform="translate(147.412109 0)"/>
       <use xlink:href="#DejaVuSans-32" transform="translate(179.199219 0)"/>
      </g>
     </g>
    </g>
    <g id="ytick_10">
     <g id="line2d_54">
      <g>
       <use xlink:href="#mcb4f7d5471" x="302.859323" y="181.607115" style="stroke: #000000; stroke-width: 0.8"/>
      </g>
     </g>
     <g id="text_37">
      <!-- 0.0 -->
      <g transform="translate(279.956198 185.406334) scale(0.1 -0.1)">
       <use xlink:href="#DejaVuSans-30"/>
       <use xlink:href="#DejaVuSans-2e" transform="translate(63.623047 0)"/>
       <use xlink:href="#DejaVuSans-30" transform="translate(95.410156 0)"/>
      </g>
     </g>
    </g>
    <g id="ytick_11">
     <g id="line2d_55">
      <g>
       <use xlink:href="#mcb4f7d5471" x="302.859323" y="144.859896" style="stroke: #000000; stroke-width: 0.8"/>
      </g>
     </g>
     <g id="text_38">
      <!-- 0.2 -->
      <g transform="translate(279.956198 148.659115) scale(0.1 -0.1)">
       <use xlink:href="#DejaVuSans-30"/>
       <use xlink:href="#DejaVuSans-2e" transform="translate(63.623047 0)"/>
       <use xlink:href="#DejaVuSans-32" transform="translate(95.410156 0)"/>
      </g>
     </g>
    </g>
    <g id="ytick_12">
     <g id="line2d_56">
      <g>
       <use xlink:href="#mcb4f7d5471" x="302.859323" y="108.112678" style="stroke: #000000; stroke-width: 0.8"/>
      </g>
     </g>
     <g id="text_39">
      <!-- 0.4 -->
      <g transform="translate(279.956198 111.911897) scale(0.1 -0.1)">
       <use xlink:href="#DejaVuSans-30"/>
       <use xlink:href="#DejaVuSans-2e" transform="translate(63.623047 0)"/>
       <use xlink:href="#DejaVuSans-34" transform="translate(95.410156 0)"/>
      </g>
     </g>
    </g>
    <g id="text_40">
     <!-- NORTH [m] -->
     <g transform="translate(265.496823 209.570396) rotate(-90) scale(0.1 -0.1)">
      <defs>
       <path id="DejaVuSans-4e" d="M 628 4666 
L 1478 4666 
L 3547 763 
L 3547 4666 
L 4159 4666 
L 4159 0 
L 3309 0 
L 1241 3903 
L 1241 0 
L 628 0 
L 628 4666 
z
" transform="scale(0.015625)"/>
       <path id="DejaVuSans-4f" d="M 2522 4238 
Q 1834 4238 1429 3725 
Q 1025 3213 1025 2328 
Q 1025 1447 1429 934 
Q 1834 422 2522 422 
Q 3209 422 3611 934 
Q 4013 1447 4013 2328 
Q 4013 3213 3611 3725 
Q 3209 4238 2522 4238 
z
M 2522 4750 
Q 3503 4750 4090 4092 
Q 4678 3434 4678 2328 
Q 4678 1225 4090 567 
Q 3503 -91 2522 -91 
Q 1538 -91 948 565 
Q 359 1222 359 2328 
Q 359 3434 948 4092 
Q 1538 4750 2522 4750 
z
" transform="scale(0.015625)"/>
       <path id="DejaVuSans-52" d="M 2841 2188 
Q 3044 2119 3236 1894 
Q 3428 1669 3622 1275 
L 4263 0 
L 3584 0 
L 2988 1197 
Q 2756 1666 2539 1819 
Q 2322 1972 1947 1972 
L 1259 1972 
L 1259 0 
L 628 0 
L 628 4666 
L 2053 4666 
Q 2853 4666 3247 4331 
Q 3641 3997 3641 3322 
Q 3641 2881 3436 2590 
Q 3231 2300 2841 2188 
z
M 1259 4147 
L 1259 2491 
L 2053 2491 
Q 2509 2491 2742 2702 
Q 2975 2913 2975 3322 
Q 2975 3731 2742 3939 
Q 2509 4147 2053 4147 
L 1259 4147 
z
" transform="scale(0.015625)"/>
       <path id="DejaVuSans-48" d="M 628 4666 
L 1259 4666 
L 1259 2753 
L 3553 2753 
L 3553 4666 
L 4184 4666 
L 4184 0 
L 3553 0 
L 3553 2222 
L 1259 2222 
L 1259 0 
L 628 0 
L 628 4666 
z
" transform="scale(0.015625)"/>
      </defs>
      <use xlink:href="#DejaVuSans-4e"/>
      <use xlink:href="#DejaVuSans-4f" transform="translate(74.804688 0)"/>
      <use xlink:href="#DejaVuSans-52" transform="translate(153.515625 0)"/>
      <use xlink:href="#DejaVuSans-54" transform="translate(215.748047 0)"/>
      <use xlink:href="#DejaVuSans-48" transform="translate(276.832031 0)"/>
      <use xlink:href="#DejaVuSans-20" transform="translate(352.027344 0)"/>
      <use xlink:href="#DejaVuSans-5b" transform="translate(383.814453 0)"/>
      <use xlink:href="#DejaVuSans-6d" transform="translate(422.828125 0)"/>
      <use xlink:href="#DejaVuSans-5d" transform="translate(520.240234 0)"/>
     </g>
    </g>
   </g>
   <g id="line2d_57">
    <path d="M 376.721233 181.607115 
L 379.289478 181.736318 
L 381.836442 182.090645 
L 384.342431 182.667355 
L 386.788066 183.46199 
L 389.154436 184.468405 
L 391.423241 185.678817 
L 393.576938 187.083866 
L 395.598873 188.672687 
L 397.47341 190.432995 
L 399.186054 192.351177 
L 400.723562 194.4124 
L 402.074044 196.600726 
L 403.227058 198.899232 
L 404.173686 201.290145 
L 404.90661 203.754976 
L 405.420162 206.274664 
L 405.71037 208.829727 
L 405.774991 211.400406 
L 405.613524 213.966822 
L 405.227219 216.509131 
L 404.619062 219.007672 
L 403.793757 221.443125 
L 402.757685 223.796658 
L 401.518858 226.05007 
L 400.086856 228.185937 
L 398.472752 230.187743 
L 396.689027 232.040008 
L 394.749475 233.728408 
L 392.669094 235.239888 
L 390.463972 236.56276 
L 388.151159 237.686794 
L 385.748541 238.603298 
L 383.274696 239.305186 
L 380.748754 239.787029 
L 378.190248 240.045102 
L 375.618962 240.077409 
L 373.05478 239.8837 
L 370.517529 239.465473 
L 368.02683 238.825962 
L 365.601944 237.970113 
L 363.26162 236.904543 
L 361.023956 235.637492 
L 358.906256 234.178759 
L 356.924896 232.539623 
L 355.095196 230.732759 
L 353.431306 228.772139 
L 351.946092 226.672925 
L 350.65104 224.45135 
L 349.556162 222.124591 
L 348.669927 219.710643 
L 347.999187 217.22817 
L 347.549128 214.69637 
L 347.323231 212.134821 
L 347.323244 209.56333 
L 347.549164 207.001782 
L 347.999247 204.469986 
L 348.670011 201.987519 
L 349.556269 199.573577 
L 350.651169 197.246827 
L 351.946243 195.025261 
L 353.431477 192.926059 
L 355.095386 190.965452 
L 356.925104 189.158603 
L 358.906482 187.519482 
L 361.024197 186.060765 
L 363.261875 184.793732 
L 365.602211 183.72818 
L 368.027109 182.872349 
L 370.517817 182.232858 
L 373.055075 181.814651 
L 375.619263 181.620962 
L 378.190553 181.653288 
L 380.749061 181.911381 
L 383.275003 182.393244 
L 385.748847 183.095151 
L 388.151463 184.011674 
L 390.464271 185.135726 
L 392.669387 186.458615 
L 394.749761 187.970111 
L 396.689304 189.658526 
L 398.473018 191.510805 
L 400.087111 193.512623 
L 401.519101 195.648501 
L 402.757915 197.901923 
L 403.793972 200.255464 
L 404.619263 202.690924 
L 405.227404 205.18947 
L 405.613694 207.731781 
L 405.775145 210.298199 
L 405.710509 212.868877 
L 405.420285 215.423937 
L 404.906718 217.943622 
L 404.173779 220.408447 
L 403.227136 222.799353 
L 402.074109 225.09785 
L 400.723614 227.286165 
L 399.186095 229.347376 
L 397.47344 231.265545 
L 395.598893 233.025838 
L 393.576951 234.614644 
L 391.423247 236.019676 
L 389.154436 237.230071 
L 386.788063 238.236467 
L 384.342426 239.031083 
L 381.836437 239.607774 
L 379.289474 239.962081 
L 376.721232 240.091264 
L 374.151571 239.994324 
L 371.600362 239.672011 
L 369.087332 239.126816 
L 366.631915 238.362957 
L 364.253097 237.386339 
L 361.969274 236.204515 
L 359.798106 234.826624 
L 357.756382 233.26332 
L 355.859891 231.526692 
L 354.123297 229.630169 
L 352.560029 227.588416 
L 351.182176 225.417223 
L 350.000393 223.133378 
L 349.023817 220.754542 
L 348.260001 218.29911 
L 347.714851 215.786069 
L 347.392583 213.234852 
L 347.295688 210.665187 
L 347.424916 208.096945 
L 347.779268 205.549986 
L 348.356004 203.044005 
L 349.150663 200.598379 
L 350.157101 198.23202 
L 351.367536 195.963228 
L 352.772606 193.809546 
L 354.361448 191.787627 
L 356.121775 189.913108 
L 358.039975 188.200484 
L 360.101214 186.662997 
L 362.289554 185.312536 
L 364.588073 184.159546 
L 366.978996 183.212941 
L 369.443835 182.480042 
L 371.963531 181.966515 
L 374.518599 181.676332 
L 376.354365 181.607111 
L 376.354365 181.607111 
" clip-path="url(#pfd4c48d581)" style="fill: none; stroke: #ff7f0e; stroke-opacity: 0.5; stroke-width: 1.5; stroke-linecap: square"/>
   </g>
   <g id="line2d_58">
    <defs>
     <path id="m8c001cffa7" d="M 0 -5 
L -5 5 
L 5 5 
z
" style="stroke: #ff7f0e; stroke-linejoin: miter"/>
    </defs>
    <g clip-path="url(#pfd4c48d581)">
     <use xlink:href="#m8c001cffa7" x="376.35376" y="181.607115" style="fill: #ff7f0e; stroke: #ff7f0e; stroke-linejoin: miter"/>
    </g>
   </g>
   <g id="line2d_59">
    <defs>
     <path id="mb8760db31c" d="M 0 3 
C 0.795609 3 1.55874 2.683901 2.12132 2.12132 
C 2.683901 1.55874 3 0.795609 3 0 
C 3 -0.795609 2.683901 -1.55874 2.12132 -2.12132 
C 1.55874 -2.683901 0.795609 -3 0 -3 
C -0.795609 -3 -1.55874 -2.683901 -2.12132 -2.12132 
C -2.683901 -1.55874 -3 -0.795609 -3 0 
C -3 0.795609 -2.683901 1.55874 -2.12132 2.12132 
C -1.55874 2.683901 -0.795609 3 0 3 
z
" style="stroke: #ff7f0e"/>
    </defs>
    <g clip-path="url(#pfd4c48d581)">
     <use xlink:href="#mb8760db31c" x="376.721535" y="181.607115" style="fill: #ff7f0e; stroke: #ff7f0e"/>
    </g>
   </g>
   <g id="line2d_60">
    <defs>
     <path id="mbb9a503f2b" d="M 0 3 
C 0.795609 3 1.55874 2.683901 2.12132 2.12132 
C 2.683901 1.55874 3 0.795609 3 0 
C 3 -0.795609 2.683901 -1.55874 2.12132 -2.12132 
C 1.55874 -2.683901 0.795609 -3 0 -3 
C -0.795609 -3 -1.55874 -2.683901 -2.12132 -2.12132 
C -2.683901 -1.55874 -3 -0.795609 -3 0 
C -3 0.795609 -2.683901 1.55874 -2.12132 2.12132 
C -1.55874 2.683901 -0.795609 3 0 3 
z
" style="stroke: #2ca02c"/>
    </defs>
    <g clip-path="url(#pfd4c48d581)">
     <use xlink:href="#mbb9a503f2b" x="393.874502" y="187.299949" style="fill: #2ca02c; stroke: #2ca02c"/>
    </g>
   </g>
   <g id="line2d_61">
    <defs>
     <path id="macfaaf9baf" d="M 0 3 
C 0.795609 3 1.55874 2.683901 2.12132 2.12132 
C 2.683901 1.55874 3 0.795609 3 0 
C 3 -0.795609 2.683901 -1.55874 2.12132 -2.12132 
C 1.55874 -2.683901 0.795609 -3 0 -3 
C -0.795609 -3 -1.55874 -2.683901 -2.12132 -2.12132 
C -2.683901 -1.55874 -3 -0.795609 -3 0 
C -3 0.795609 -2.683901 1.55874 -2.12132 2.12132 
C -1.55874 2.683901 -0.795609 3 0 3 
z
" style="stroke: #d62728"/>
    </defs>
    <g clip-path="url(#pfd4c48d581)">
     <use xlink:href="#macfaaf9baf" x="404.405376" y="201.987807" style="fill: #d62728; stroke: #d62728"/>
    </g>
   </g>
   <g id="line2d_62">
    <defs>
     <path id="m1c23e4187c" d="M 0 3 
C 0.795609 3 1.55874 2.683901 2.12132 2.12132 
C 2.683901 1.55874 3 0.795609 3 0 
C 3 -0.795609 2.683901 -1.55874 2.12132 -2.12132 
C 1.55874 -2.683901 0.795609 -3 0 -3 
C -0.795609 -3 -1.55874 -2.683901 -2.12132 -2.12132 
C -2.683901 -1.55874 -3 -0.795609 -3 0 
C -3 0.795609 -2.683901 1.55874 -2.12132 2.12132 
C -1.55874 2.683901 -0.795609 3 0 3 
z
" style="stroke: #9467bd"/>
    </defs>
    <g clip-path="url(#pfd4c48d581)">
     <use xlink:href="#m1c23e4187c" x="404.291719" y="220.060416" style="fill: #9467bd; stroke: #9467bd"/>
    </g>
   </g>
   <g id="line2d_63">
    <defs>
     <path id="me749f301cc" d="M 0 3 
C 0.795609 3 1.55874 2.683901 2.12132 2.12132 
C 2.683901 1.55874 3 0.795609 3 0 
C 3 -0.795609 2.683901 -1.55874 2.12132 -2.12132 
C 1.55874 -2.683901 0.795609 -3 0 -3 
C -0.795609 -3 -1.55874 -2.683901 -2.12132 -2.12132 
C -2.683901 -1.55874 -3 -0.795609 -3 0 
C -3 0.795609 -2.683901 1.55874 -2.12132 2.12132 
C -1.55874 2.683901 -0.795609 3 0 3 
z
" style="stroke: #1f77b4"/>
    </defs>
    <g clip-path="url(#pfd4c48d581)">
     <use xlink:href="#me749f301cc" x="393.576951" y="234.614644" style="fill: #1f77b4; stroke: #1f77b4"/>
    </g>
   </g>
   <g id="line2d_64">
    <g clip-path="url(#pfd4c48d581)">
     <use xlink:href="#mb8760db31c" x="376.35376" y="240.091261" style="fill: #ff7f0e; stroke: #ff7f0e"/>
    </g>
   </g>
   <g id="line2d_65">
    <g clip-path="url(#pfd4c48d581)">
     <use xlink:href="#mbb9a503f2b" x="359.200838" y="234.398382" style="fill: #2ca02c; stroke: #2ca02c"/>
    </g>
   </g>
   <g id="line2d_66">
    <g clip-path="url(#pfd4c48d581)">
     <use xlink:href="#macfaaf9baf" x="348.670032" y="219.710498" style="fill: #d62728; stroke: #d62728"/>
    </g>
   </g>
   <g id="line2d_67">
    <g clip-path="url(#pfd4c48d581)">
     <use xlink:href="#m1c23e4187c" x="348.783766" y="201.637888" style="fill: #9467bd; stroke: #9467bd"/>
    </g>
   </g>
   <g id="line2d_68">
    <g clip-path="url(#pfd4c48d581)">
     <use xlink:href="#me749f301cc" x="359.498602" y="187.083688" style="fill: #1f77b4; stroke: #1f77b4"/>
    </g>
   </g>
   <g id="patch_30">
    <path d="M 302.859323 255.101552 
L 302.859323 108.112678 
" style="fill: none; stroke: #000000; stroke-width: 0.8; stroke-linejoin: miter; stroke-linecap: square"/>
   </g>
   <g id="patch_31">
    <path d="M 449.848197 255.101552 
L 449.848197 108.112678 
" style="fill: none; stroke: #000000; stroke-width: 0.8; stroke-linejoin: miter; stroke-linecap: square"/>
   </g>
   <g id="patch_32">
    <path d="M 302.859323 255.101552 
L 449.848197 255.101552 
" style="fill: none; stroke: #000000; stroke-width: 0.8; stroke-linejoin: miter; stroke-linecap: square"/>
   </g>
   <g id="patch_33">
    <path d="M 302.859323 108.112678 
L 449.848197 108.112678 
" style="fill: none; stroke: #000000; stroke-width: 0.8; stroke-linejoin: miter; stroke-linecap: square"/>
   </g>
   <g id="text_41">
    <!--  1 -->
    <g style="fill: #ff7f0e" transform="translate(376.721535 181.607115) scale(0.1 -0.1)">
     <use xlink:href="#DejaVuSans-20"/>
     <use xlink:href="#DejaVuSans-31" transform="translate(31.787109 0)"/>
    </g>
   </g>
   <g id="text_42">
    <!--  2 -->
    <g style="fill: #2ca02c" transform="translate(393.874502 187.299949) scale(0.1 -0.1)">
     <use xlink:href="#DejaVuSans-20"/>
     <use xlink:href="#DejaVuSans-32" transform="translate(31.787109 0)"/>
    </g>
   </g>
   <g id="text_43">
    <!--  3 -->
    <g style="fill: #d62728" transform="translate(404.405376 201.987807) scale(0.1 -0.1)">
     <use xlink:href="#DejaVuSans-20"/>
     <use xlink:href="#DejaVuSans-33" transform="translate(31.787109 0)"/>
    </g>
   </g>
   <g id="text_44">
    <!--  4 -->
    <g style="fill: #9467bd" transform="translate(404.291719 220.060416) scale(0.1 -0.1)">
     <use xlink:href="#DejaVuSans-20"/>
     <use xlink:href="#DejaVuSans-34" transform="translate(31.787109 0)"/>
    </g>
   </g>
   <g id="text_45">
    <!--  5 -->
    <g style="fill: #1f77b4" transform="translate(393.576951 234.614644) scale(0.1 -0.1)">
     <use xlink:href="#DejaVuSans-20"/>
     <use xlink:href="#DejaVuSans-35" transform="translate(31.787109 0)"/>
    </g>
   </g>
   <g id="text_46">
    <!--  6 -->
    <g style="fill: #ff7f0e" transform="translate(376.35376 240.091261) scale(0.1 -0.1)">
     <use xlink:href="#DejaVuSans-20"/>
     <use xlink:href="#DejaVuSans-36" transform="translate(31.787109 0)"/>
    </g>
   </g>
   <g id="text_47">
    <!--  7 -->
    <g style="fill: #2ca02c" transform="translate(359.200838 234.398382) scale(0.1 -0.1)">
     <use xlink:href="#DejaVuSans-20"/>
     <use xlink:href="#DejaVuSans-37" transform="translate(31.787109 0)"/>
    </g>
   </g>
   <g id="text_48">
    <!--  8 -->
    <g style="fill: #d62728" transform="translate(348.670032 219.710498) scale(0.1 -0.1)">
     <use xlink:href="#DejaVuSans-20"/>
     <use xlink:href="#DejaVuSans-38" transform="translate(31.787109 0)"/>
    </g>
   </g>
   <g id="text_49">
    <!--  9 -->
    <g style="fill: #9467bd" transform="translate(348.783766 201.637888) scale(0.1 -0.1)">
     <use xlink:href="#DejaVuSans-20"/>
     <use xlink:href="#DejaVuSans-39" transform="translate(31.787109 0)"/>
    </g>
   </g>
   <g id="text_50">
    <!--  10 -->
    <g style="fill: #1f77b4" transform="translate(359.498602 187.083688) scale(0.1 -0.1)">
     <use xlink:href="#DejaVuSans-20"/>
     <use xlink:href="#DejaVuSans-31" transform="translate(31.787109 0)"/>
     <use xlink:href="#DejaVuSans-30" transform="translate(95.410156 0)"/>
    </g>
   </g>
   <g id="text_51">
    <!-- trajectory in rotating frame -->
    <g transform="translate(294.514698 102.112678) scale(0.12 -0.12)">
     <defs>
      <path id="DejaVuSans-67" d="M 2906 1791 
Q 2906 2416 2648 2759 
Q 2391 3103 1925 3103 
Q 1463 3103 1205 2759 
Q 947 2416 947 1791 
Q 947 1169 1205 825 
Q 1463 481 1925 481 
Q 2391 481 2648 825 
Q 2906 1169 2906 1791 
z
M 3481 434 
Q 3481 -459 3084 -895 
Q 2688 -1331 1869 -1331 
Q 1566 -1331 1297 -1286 
Q 1028 -1241 775 -1147 
L 775 -588 
Q 1028 -725 1275 -790 
Q 1522 -856 1778 -856 
Q 2344 -856 2625 -561 
Q 2906 -266 2906 331 
L 2906 616 
Q 2728 306 2450 153 
Q 2172 0 1784 0 
Q 1141 0 747 490 
Q 353 981 353 1791 
Q 353 2603 747 3093 
Q 1141 3584 1784 3584 
Q 2172 3584 2450 3431 
Q 2728 3278 2906 2969 
L 2906 3500 
L 3481 3500 
L 3481 434 
z
" transform="scale(0.015625)"/>
     </defs>
     <use xlink:href="#DejaVuSans-74"/>
     <use xlink:href="#DejaVuSans-72" transform="translate(39.208984 0)"/>
     <use xlink:href="#DejaVuSans-61" transform="translate(80.322266 0)"/>
     <use xlink:href="#DejaVuSans-6a" transform="translate(141.601562 0)"/>
     <use xlink:href="#DejaVuSans-65" transform="translate(169.384766 0)"/>
     <use xlink:href="#DejaVuSans-63" transform="translate(230.908203 0)"/>
     <use xlink:href="#DejaVuSans-74" transform="translate(285.888672 0)"/>
     <use xlink:href="#DejaVuSans-6f" transform="translate(325.097656 0)"/>
     <use xlink:href="#DejaVuSans-72" transform="translate(386.279297 0)"/>
     <use xlink:href="#DejaVuSans-79" transform="translate(427.392578 0)"/>
     <use xlink:href="#DejaVuSans-20" transform="translate(486.572266 0)"/>
     <use xlink:href="#DejaVuSans-69" transform="translate(518.359375 0)"/>
     <use xlink:href="#DejaVuSans-6e" transform="translate(546.142578 0)"/>
     <use xlink:href="#DejaVuSans-20" transform="translate(609.521484 0)"/>
     <use xlink:href="#DejaVuSans-72" transform="translate(641.308594 0)"/>
     <use xlink:href="#DejaVuSans-6f" transform="translate(680.171875 0)"/>
     <use xlink:href="#DejaVuSans-74" transform="translate(741.353516 0)"/>
     <use xlink:href="#DejaVuSans-61" transform="translate(780.5625 0)"/>
     <use xlink:href="#DejaVuSans-74" transform="translate(841.841797 0)"/>
     <use xlink:href="#DejaVuSans-69" transform="translate(881.050781 0)"/>
     <use xlink:href="#DejaVuSans-6e" transform="translate(908.833984 0)"/>
     <use xlink:href="#DejaVuSans-67" transform="translate(972.212891 0)"/>
     <use xlink:href="#DejaVuSans-20" transform="translate(1035.689453 0)"/>
     <use xlink:href="#DejaVuSans-66" transform="translate(1067.476562 0)"/>
     <use xlink:href="#DejaVuSans-72" transform="translate(1102.681641 0)"/>
     <use xlink:href="#DejaVuSans-61" transform="translate(1143.794922 0)"/>
     <use xlink:href="#DejaVuSans-6d" transform="translate(1205.074219 0)"/>
     <use xlink:href="#DejaVuSans-65" transform="translate(1302.486328 0)"/>
    </g>
   </g>
   <g id="patch_34">
    <path d="M 422.287784 181.607115 
L 413.100979 184.363156 
L 413.100979 181.698983 
L 376.35376 181.698983 
L 376.35376 181.515247 
L 413.100979 181.515247 
L 413.100979 178.851074 
z
" clip-path="url(#pfd4c48d581)" style="fill: #ff7f0e; opacity: 0.5; stroke: #ff7f0e; stroke-linejoin: miter"/>
   </g>
  </g>
  <g id="text_52">
   <!-- east initial u,v = 0.20, 0.00 m/s, period 10.00 s -->
   <g transform="translate(88.663125 12.118365) scale(0.12 -0.12)">
    <defs>
     <path id="DejaVuSans-73" d="M 2834 3397 
L 2834 2853 
Q 2591 2978 2328 3040 
Q 2066 3103 1784 3103 
Q 1356 3103 1142 2972 
Q 928 2841 928 2578 
Q 928 2378 1081 2264 
Q 1234 2150 1697 2047 
L 1894 2003 
Q 2506 1872 2764 1633 
Q 3022 1394 3022 966 
Q 3022 478 2636 193 
Q 2250 -91 1575 -91 
Q 1294 -91 989 -36 
Q 684 19 347 128 
L 347 722 
Q 666 556 975 473 
Q 1284 391 1588 391 
Q 1994 391 2212 530 
Q 2431 669 2431 922 
Q 2431 1156 2273 1281 
Q 2116 1406 1581 1522 
L 1381 1569 
Q 847 1681 609 1914 
Q 372 2147 372 2553 
Q 372 3047 722 3315 
Q 1072 3584 1716 3584 
Q 2034 3584 2315 3537 
Q 2597 3491 2834 3397 
z
" transform="scale(0.015625)"/>
     <path id="DejaVuSans-75" d="M 544 1381 
L 544 3500 
L 1119 3500 
L 1119 1403 
Q 1119 906 1312 657 
Q 1506 409 1894 409 
Q 2359 409 2629 706 
Q 2900 1003 2900 1516 
L 2900 3500 
L 3475 3500 
L 3475 0 
L 2900 0 
L 2900 538 
Q 2691 219 2414 64 
Q 2138 -91 1772 -91 
Q 1169 -91 856 284 
Q 544 659 544 1381 
z
M 1991 3584 
L 1991 3584 
z
" transform="scale(0.015625)"/>
     <path id="DejaVuSans-2c" d="M 750 794 
L 1409 794 
L 1409 256 
L 897 -744 
L 494 -744 
L 750 256 
L 750 794 
z
" transform="scale(0.015625)"/>
     <path id="DejaVuSans-76" d="M 191 3500 
L 800 3500 
L 1894 563 
L 2988 3500 
L 3597 3500 
L 2284 0 
L 1503 0 
L 191 3500 
z
" transform="scale(0.015625)"/>
     <path id="DejaVuSans-3d" d="M 678 2906 
L 4684 2906 
L 4684 2381 
L 678 2381 
L 678 2906 
z
M 678 1631 
L 4684 1631 
L 4684 1100 
L 678 1100 
L 678 1631 
z
" transform="scale(0.015625)"/>
     <path id="DejaVuSans-2f" d="M 1625 4666 
L 2156 4666 
L 531 -594 
L 0 -594 
L 1625 4666 
z
" transform="scale(0.015625)"/>
     <path id="DejaVuSans-70" d="M 1159 525 
L 1159 -1331 
L 581 -1331 
L 581 3500 
L 1159 3500 
L 1159 2969 
Q 1341 3281 1617 3432 
Q 1894 3584 2278 3584 
Q 2916 3584 3314 3078 
Q 3713 2572 3713 1747 
Q 3713 922 3314 415 
Q 2916 -91 2278 -91 
Q 1894 -91 1617 61 
Q 1341 213 1159 525 
z
M 3116 1747 
Q 3116 2381 2855 2742 
Q 2594 3103 2138 3103 
Q 1681 3103 1420 2742 
Q 1159 2381 1159 1747 
Q 1159 1113 1420 752 
Q 1681 391 2138 391 
Q 2594 391 2855 752 
Q 3116 1113 3116 1747 
z
" transform="scale(0.015625)"/>
     <path id="DejaVuSans-64" d="M 2906 2969 
L 2906 4863 
L 3481 4863 
L 3481 0 
L 2906 0 
L 2906 525 
Q 2725 213 2448 61 
Q 2172 -91 1784 -91 
Q 1150 -91 751 415 
Q 353 922 353 1747 
Q 353 2572 751 3078 
Q 1150 3584 1784 3584 
Q 2172 3584 2448 3432 
Q 2725 3281 2906 2969 
z
M 947 1747 
Q 947 1113 1208 752 
Q 1469 391 1925 391 
Q 2381 391 2643 752 
Q 2906 1113 2906 1747 
Q 2906 2381 2643 2742 
Q 2381 3103 1925 3103 
Q 1469 3103 1208 2742 
Q 947 2381 947 1747 
z
" transform="scale(0.015625)"/>
    </defs>
    <use xlink:href="#DejaVuSans-65"/>
    <use xlink:href="#DejaVuSans-61" transform="translate(61.523438 0)"/>
    <use xlink:href="#DejaVuSans-73" transform="translate(122.802734 0)"/>
    <use xlink:href="#DejaVuSans-74" transform="translate(174.902344 0)"/>
    <use xlink:href="#DejaVuSans-20" transform="translate(214.111328 0)"/>
    <use xlink:href="#DejaVuSans-69" transform="translate(245.898438 0)"/>
    <use xlink:href="#DejaVuSans-6e" transform="translate(273.681641 0)"/>
    <use xlink:href="#DejaVuSans-69" transform="translate(337.060547 0)"/>
    <use xlink:href="#DejaVuSans-74" transform="translate(364.84375 0)"/>
    <use xlink:href="#DejaVuSans-69" transform="translate(404.052734 0)"/>
    <use xlink:href="#DejaVuSans-61" transform="translate(431.835938 0)"/>
    <use xlink:href="#DejaVuSans-6c" transform="translate(493.115234 0)"/>
    <use xlink:href="#DejaVuSans-20" transform="translate(520.898438 0)"/>
    <use xlink:href="#DejaVuSans-75" transform="translate(552.685547 0)"/>
    <use xlink:href="#DejaVuSans-2c" transform="translate(616.064453 0)"/>
    <use xlink:href="#DejaVuSans-76" transform="translate(647.851562 0)"/>
    <use xlink:href="#DejaVuSans-20" transform="translate(707.03125 0)"/>
    <use xlink:href="#DejaVuSans-3d" transform="translate(738.818359 0)"/>
    <use xlink:href="#DejaVuSans-20" transform="translate(822.607422 0)"/>
    <use xlink:href="#DejaVuSans-30" transform="translate(854.394531 0)"/>
    <use xlink:href="#DejaVuSans-2e" transform="translate(918.017578 0)"/>
    <use xlink:href="#DejaVuSans-32" transform="translate(949.804688 0)"/>
    <use xlink:href="#DejaVuSans-30" transform="translate(1013.427734 0)"/>
    <use xlink:href="#DejaVuSans-2c" transform="translate(1077.050781 0)"/>
    <use xlink:href="#DejaVuSans-20" transform="translate(1108.837891 0)"/>
    <use xlink:href="#DejaVuSans-30" transform="translate(1140.625 0)"/>
    <use xlink:href="#DejaVuSans-2e" transform="translate(1204.248047 0)"/>
    <use xlink:href="#DejaVuSans-30" transform="translate(1236.035156 0)"/>
    <use xlink:href="#DejaVuSans-30" transform="translate(1299.658203 0)"/>
    <use xlink:href="#DejaVuSans-20" transform="translate(1363.28125 0)"/>
    <use xlink:href="#DejaVuSans-6d" transform="translate(1395.068359 0)"/>
    <use xlink:href="#DejaVuSans-2f" transform="translate(1492.480469 0)"/>
    <use xlink:href="#DejaVuSans-73" transform="translate(1526.171875 0)"/>
    <use xlink:href="#DejaVuSans-2c" transform="translate(1578.271484 0)"/>
    <use xlink:href="#DejaVuSans-20" transform="translate(1610.058594 0)"/>
    <use xlink:href="#DejaVuSans-70" transform="translate(1641.845703 0)"/>
    <use xlink:href="#DejaVuSans-65" transform="translate(1705.322266 0)"/>
    <use xlink:href="#DejaVuSans-72" transform="translate(1766.845703 0)"/>
    <use xlink:href="#DejaVuSans-69" transform="translate(1807.958984 0)"/>
    <use xlink:href="#DejaVuSans-6f" transform="translate(1835.742188 0)"/>
    <use xlink:href="#DejaVuSans-64" transform="translate(1896.923828 0)"/>
    <use xlink:href="#DejaVuSans-20" transform="translate(1960.400391 0)"/>
    <use xlink:href="#DejaVuSans-31" transform="translate(1992.1875 0)"/>
    <use xlink:href="#DejaVuSans-30" transform="translate(2055.810547 0)"/>
    <use xlink:href="#DejaVuSans-2e" transform="translate(2119.433594 0)"/>
    <use xlink:href="#DejaVuSans-30" transform="translate(2151.220703 0)"/>
    <use xlink:href="#DejaVuSans-30" transform="translate(2214.84375 0)"/>
    <use xlink:href="#DejaVuSans-20" transform="translate(2278.466797 0)"/>
    <use xlink:href="#DejaVuSans-73" transform="translate(2310.253906 0)"/>
   </g>
  </g>
 </g>
 <defs>
  <clipPath id="pf41f02139b">
   <rect x="47.961177" y="83.614532" width="195.985166" height="195.985166"/>
  </clipPath>
  <clipPath id="pfd4c48d581">
   <rect x="302.859323" y="108.112678" width="146.988874" height="146.988874"/>
  </clipPath>
 </defs>
</svg>
