<?xml version="1.0" encoding="utf-8" standalone="no"?>
<!DOCTYPE svg PUBLIC "-//W3C//DTD SVG 1.1//EN"
  "http://www.w3.org/Graphics/SVG/1.1/DTD/svg11.dtd">
<svg xmlns:xlink="http://www.w3.org/1999/xlink" width="460.8pt" height="345.6pt" viewBox="0 0 460.8 345.6" xmlns="http://www.w3.org/2000/svg" version="1.1">
 <metadata>
  <rdf:RDF xmlns:dc="http://purl.org/dc/elements/1.1/" xmlns:cc="http://creativecommons.org/ns#" xmlns:rdf="http://www.w3.org/1999/02/22-rdf-syntax-ns#">
   <cc:Work>
    <dc:type rdf:resource="http://purl.org/dc/dcmitype/StillImage"/>
    <dc:date>2025-06-01T16:28:03.666957</dc:date>
    <dc:format>image/svg+xml</dc:format>
    <dc:creator>
     <cc:Agent>
      <dc:title>Matplotlib v3.10.3, https://matplotlib.org/</dc:title>
     </cc:Agent>
    </dc:creator>
   </cc:Work>
  </rdf:RDF>
 </metadata>
 <defs>
  <style type="text/css">*{stroke-linejoin: round; stroke-linecap: butt}</style>
 </defs>
 <g id="figure_1">
  <g id="patch_1">
   <path d="M 0 345.6 
L 460.8 345.6 
L 460.8 0 
L 0 0 
z
" style="fill: #ffffff"/>
  </g>
  <g id="axes_1">
   <g id="patch_2">
    <path d="M 34.283052 287.415769 
L 245.900361 287.415769 
L 245.900361 75.798461 
L 34.283052 75.798461 
z
" style="fill: #ffffff"/>
   </g>
   <g id="line2d_1">
    <path d="M 140.534917 252.143433 
L 144.520923 251.99311 
L 148.492769 251.617769 
L 152.437757 251.01861 
L 156.343277 250.197549 
L 160.196841 249.15721 
L 163.986131 247.90092 
L 167.699033 246.432695 
L 171.323677 244.757228 
L 174.848475 242.879875 
L 178.262159 240.806639 
L 181.553815 238.544148 
L 184.71292 236.099634 
L 187.729376 233.480912 
L 190.593538 230.696355 
L 193.29625 227.754863 
L 195.828872 224.665842 
L 198.183308 221.439165 
L 200.35203 218.085149 
L 202.328105 214.614516 
L 204.105215 211.038361 
L 205.677681 207.368117 
L 207.040473 203.615518 
L 208.189237 199.79256 
L 209.120299 195.911464 
L 209.830683 191.984639 
L 210.318117 188.024638 
L 210.581044 184.04412 
L 210.618623 180.055812 
L 210.430734 176.072463 
L 210.017977 172.106807 
L 209.381672 168.171524 
L 208.523853 164.279193 
L 207.447263 160.442257 
L 206.155343 156.672984 
L 204.652224 152.983423 
L 202.94271 149.385369 
L 201.032268 145.890325 
L 198.927004 142.509465 
L 196.633648 139.253596 
L 194.159534 136.133128 
L 191.512569 133.158036 
L 188.701216 130.337832 
L 185.734463 127.68153 
L 182.621795 125.197624 
L 179.373161 122.894054 
L 175.998948 120.778185 
L 172.509943 118.85678 
L 168.9173 117.135982 
L 165.232504 115.621293 
L 161.467335 114.317554 
L 157.63383 113.228934 
L 153.744245 112.358913 
L 149.811013 111.710272 
L 145.84671 111.285086 
L 141.864008 111.084712 
L 137.875641 111.109792 
L 133.894358 111.360246 
L 129.932888 111.835273 
L 126.003894 112.533354 
L 122.119938 113.452258 
L 118.293436 114.589047 
L 114.536621 115.940086 
L 110.861504 117.501057 
L 107.279833 119.26697 
L 103.803058 121.232178 
L 100.442295 123.390399 
L 97.208288 125.734735 
L 94.111375 128.257689 
L 91.161457 130.951196 
L 88.367964 133.806646 
L 85.739828 136.81491 
L 83.28545 139.96637 
L 81.012677 143.250952 
L 78.928773 146.658155 
L 77.040403 150.177087 
L 75.353601 153.796498 
L 73.873761 157.504817 
L 72.605615 161.290189 
L 71.553215 165.140512 
L 70.719927 169.043478 
L 70.108414 172.986608 
L 69.720631 176.957297 
L 69.557818 180.942852 
L 69.620496 184.93053 
L 69.908464 188.907583 
L 70.420802 192.861297 
L 71.155871 196.779033 
L 72.111322 200.648266 
L 73.2841 204.456625 
L 74.670456 208.191937 
L 76.265958 211.84226 
L 78.065505 215.395923 
L 80.063344 218.841567 
L 82.253089 222.168175 
L 84.627738 225.365114 
L 87.179701 228.422162 
L 89.900819 231.329546 
L 92.782392 234.077973 
L 95.815209 236.658654 
L 98.989574 239.063341 
L 102.295339 241.284346 
L 105.721936 243.314567 
L 109.258409 245.147516 
L 112.893454 246.777332 
L 116.615449 248.198804 
L 120.412496 249.407388 
L 124.272455 250.399222 
L 128.182987 251.171133 
L 132.131591 251.720654 
L 136.105642 252.046028 
L 140.092436 252.146216 
L 140.092436 252.146216 
" clip-path="url(#p275025c408)" style="fill: none; stroke: #1f77b4; stroke-opacity: 0.5; stroke-width: 1.5; stroke-linecap: square"/>
   </g>
   <g id="line2d_2">
    <path d="M 140.534917 252.002355 
L 144.520923 250.583247 
L 148.492769 248.943628 
L 152.437757 247.08874 
L 156.343277 245.024514 
L 160.196841 242.757547 
L 164.402668 240.009751 
L 168.51255 237.031465 
L 172.510267 233.834444 
L 176.380043 230.431304 
L 180.106605 226.835478 
L 183.675245 223.061155 
L 187.071881 219.123231 
L 190.283107 215.037248 
L 193.29625 210.819331 
L 196.099418 206.486127 
L 198.681549 202.054736 
L 201.032451 197.542647 
L 203.142848 192.967668 
L 205.004409 188.347853 
L 206.460968 184.166753 
L 207.70535 179.97747 
L 208.733577 175.793397 
L 209.542363 171.627909 
L 210.129121 167.494324 
L 210.491975 163.405857 
L 210.629766 159.375577 
L 210.542054 155.41637 
L 210.229118 151.540892 
L 209.691959 147.761533 
L 208.932294 144.090375 
L 207.952552 140.539155 
L 206.755865 137.119226 
L 205.513094 134.198356 
L 204.105062 131.397246 
L 202.535327 128.72297 
L 200.807852 126.182285 
L 198.927004 123.781608 
L 196.897531 121.527004 
L 194.724562 119.424169 
L 192.413585 117.478413 
L 189.970438 115.694652 
L 187.401292 114.077392 
L 184.712638 112.630719 
L 181.911267 111.358287 
L 179.004256 110.26331 
L 175.998948 109.348555 
L 172.902935 108.616331 
L 169.321246 108.013047 
L 165.646113 107.645037 
L 161.889284 107.513477 
L 158.06277 107.618787 
L 154.178805 107.960632 
L 150.249804 108.537918 
L 146.288329 109.348799 
L 142.307044 110.390684 
L 138.318676 111.660242 
L 134.335977 113.153413 
L 130.371678 114.865425 
L 126.438454 116.790803 
L 122.548877 118.923394 
L 118.715384 121.256379 
L 114.536621 124.074523 
L 110.458714 127.119722 
L 106.497754 130.379958 
L 102.669375 133.842366 
L 98.988685 137.493279 
L 95.470211 141.318291 
L 92.127838 145.302304 
L 88.974757 149.429597 
L 86.023412 153.68388 
L 83.28545 158.048363 
L 80.771678 162.505822 
L 78.492015 167.038666 
L 76.455459 171.629005 
L 74.837078 175.794499 
L 73.42731 179.978576 
L 72.230663 184.167859 
L 71.250961 188.348955 
L 70.491336 192.508498 
L 69.954218 196.633191 
L 69.641323 200.709846 
L 69.553652 204.725432 
L 69.691484 208.667111 
L 70.05438 212.522281 
L 70.641178 216.278618 
L 71.450004 219.924114 
L 72.478271 223.447113 
L 73.722693 226.836354 
L 75.007107 229.727952 
L 76.455931 232.497992 
L 78.065505 235.139476 
L 79.831763 237.645733 
L 81.750243 240.010431 
L 83.8161 242.227597 
L 86.024114 244.29163 
L 88.368708 246.197315 
L 90.843959 247.93984 
L 93.443615 249.514802 
L 96.161108 250.918222 
L 98.989574 252.146556 
L 101.921868 253.196701 
L 104.950583 254.066004 
L 108.068067 254.752268 
L 111.671531 255.303388 
L 115.365852 255.618907 
L 119.139219 255.697818 
L 122.97957 255.539866 
L 126.874626 255.145559 
L 130.811937 254.516156 
L 134.778914 253.653669 
L 138.762875 252.560855 
L 140.092436 252.145983 
L 140.092436 252.145983 
" clip-path="url(#p275025c408)" style="fill: none; stroke: #ff7f0e; stroke-opacity: 0.5; stroke-width: 1.5; stroke-linecap: square"/>
   </g>
   <g id="patch_3">
    <path d="M 164.780393 181.607115 
C 164.780393 176.724739 163.332102 171.950364 160.619599 167.890816 
C 157.907096 163.831268 154.050385 160.666148 149.539658 158.797743 
C 145.02893 156.929339 140.063746 156.440311 135.275183 157.392815 
C 130.48662 158.34532 126.086531 160.697216 122.634169 164.149578 
C 119.181808 167.601939 116.829911 172.002028 115.877407 176.790591 
C 114.924903 181.579154 115.413931 186.544339 117.282335 191.055066 
C 119.15074 195.565794 122.31586 199.422504 126.375408 202.135007 
C 130.434955 204.84751 135.20933 206.295801 140.091707 206.295801 
" clip-path="url(#p275025c408)" style="fill: none; opacity: 0.5; stroke: #808080; stroke-width: 1.5; stroke-linejoin: miter"/>
   </g>
   <g id="patch_4">
    <path d="M 138.618662 203.795801 
Q 141.118662 205.045801 143.618662 206.295801 
Q 141.118662 207.545801 138.618662 208.795801 
z
" clip-path="url(#p275025c408)" style="fill: #808080; opacity: 0.5; stroke: #808080; stroke-linecap: round"/>
   </g>
   <g id="matplotlib.axis_1">
    <g id="xtick_1">
     <g id="line2d_3">
      <defs>
       <path id="mfcb6ef2ca5" d="M 0 0 
L 0 3.5 
" style="stroke: #000000; stroke-width: 0.8"/>
      </defs>
      <g>
       <use xlink:href="#mfcb6ef2ca5" x="34.283053" y="287.415769" style="stroke: #000000; stroke-width: 0.8"/>
      </g>
     </g>
     <g id="text_1">
      <!-- −1.5 -->
      <g transform="translate(22.141646 302.014207) scale(0.1 -0.1)">
       <defs>
        <path id="DejaVuSans-2212" d="M 678 2272 
L 4684 2272 
L 4684 1741 
L 678 1741 
L 678 2272 
z
" transform="scale(0.015625)"/>
        <path id="DejaVuSans-31" d="M 794 531 
L 1825 531 
L 1825 4091 
L 703 3866 
L 703 4441 
L 1819 4666 
L 2450 4666 
L 2450 531 
L 3481 531 
L 3481 0 
L 794 0 
L 794 531 
z
" transform="scale(0.015625)"/>
        <path id="DejaVuSans-2e" d="M 684 794 
L 1344 794 
L 1344 0 
L 684 0 
L 684 794 
z
" transform="scale(0.015625)"/>
        <path id="DejaVuSans-35" d="M 691 4666 
L 3169 4666 
L 3169 4134 
L 1269 4134 
L 1269 2991 
Q 1406 3038 1543 3061 
Q 1681 3084 1819 3084 
Q 2600 3084 3056 2656 
Q 3513 2228 3513 1497 
Q 3513 744 3044 326 
Q 2575 -91 1722 -91 
Q 1428 -91 1123 -41 
Q 819 9 494 109 
L 494 744 
Q 775 591 1075 516 
Q 1375 441 1709 441 
Q 2250 441 2565 725 
Q 2881 1009 2881 1497 
Q 2881 1984 2565 2268 
Q 2250 2553 1709 2553 
Q 1456 2553 1204 2497 
Q 953 2441 691 2322 
L 691 4666 
z
" transform="scale(0.015625)"/>
       </defs>
       <use xlink:href="#DejaVuSans-2212"/>
       <use xlink:href="#DejaVuSans-31" transform="translate(83.789062 0)"/>
       <use xlink:href="#DejaVuSans-2e" transform="translate(147.412109 0)"/>
       <use xlink:href="#DejaVuSans-35" transform="translate(179.199219 0)"/>
      </g>
     </g>
    </g>
    <g id="xtick_2">
     <g id="line2d_4">
      <g>
       <use xlink:href="#mfcb6ef2ca5" x="69.552604" y="287.415769" style="stroke: #000000; stroke-width: 0.8"/>
      </g>
     </g>
     <g id="text_2">
      <!-- −1.0 -->
      <g transform="translate(57.411198 302.014207) scale(0.1 -0.1)">
       <defs>
        <path id="DejaVuSans-30" d="M 2034 4250 
Q 1547 4250 1301 3770 
Q 1056 3291 1056 2328 
Q 1056 1369 1301 889 
Q 1547 409 2034 409 
Q 2525 409 2770 889 
Q 3016 1369 3016 2328 
Q 3016 3291 2770 3770 
Q 2525 4250 2034 4250 
z
M 2034 4750 
Q 2819 4750 3233 4129 
Q 3647 3509 3647 2328 
Q 3647 1150 3233 529 
Q 2819 -91 2034 -91 
Q 1250 -91 836 529 
Q 422 1150 422 2328 
Q 422 3509 836 4129 
Q 1250 4750 2034 4750 
z
" transform="scale(0.015625)"/>
       </defs>
       <use xlink:href="#DejaVuSans-2212"/>
       <use xlink:href="#DejaVuSans-31" transform="translate(83.789062 0)"/>
       <use xlink:href="#DejaVuSans-2e" transform="translate(147.412109 0)"/>
       <use xlink:href="#DejaVuSans-30" transform="translate(179.199219 0)"/>
      </g>
     </g>
    </g>
    <g id="xtick_3">
     <g id="line2d_5">
      <g>
       <use xlink:href="#mfcb6ef2ca5" x="104.822155" y="287.415769" style="stroke: #000000; stroke-width: 0.8"/>
      </g>
     </g>
     <g id="text_3">
      <!-- −0.5 -->
      <g transform="translate(92.680749 302.014207) scale(0.1 -0.1)">
       <use xlink:href="#DejaVuSans-2212"/>
       <use xlink:href="#DejaVuSans-30" transform="translate(83.789062 0)"/>
       <use xlink:href="#DejaVuSans-2e" transform="translate(147.412109 0)"/>
       <use xlink:href="#DejaVuSans-35" transform="translate(179.199219 0)"/>
      </g>
     </g>
    </g>
    <g id="xtick_4">
     <g id="line2d_6">
      <g>
       <use xlink:href="#mfcb6ef2ca5" x="140.091707" y="287.415769" style="stroke: #000000; stroke-width: 0.8"/>
      </g>
     </g>
     <g id="text_4">
      <!-- 0.0 -->
      <g transform="translate(132.140144 302.014207) scale(0.1 -0.1)">
       <use xlink:href="#DejaVuSans-30"/>
       <use xlink:href="#DejaVuSans-2e" transform="translate(63.623047 0)"/>
       <use xlink:href="#DejaVuSans-30" transform="translate(95.410156 0)"/>
      </g>
     </g>
    </g>
    <g id="xtick_5">
     <g id="line2d_7">
      <g>
       <use xlink:href="#mfcb6ef2ca5" x="175.361258" y="287.415769" style="stroke: #000000; stroke-width: 0.8"/>
      </g>
     </g>
     <g id="text_5">
      <!-- 0.5 -->
      <g transform="translate(167.409696 302.014207) scale(0.1 -0.1)">
       <use xlink:href="#DejaVuSans-30"/>
       <use xlink:href="#DejaVuSans-2e" transform="translate(63.623047 0)"/>
       <use xlink:href="#DejaVuSans-35" transform="translate(95.410156 0)"/>
      </g>
     </g>
    </g>
    <g id="xtick_6">
     <g id="line2d_8">
      <g>
       <use xlink:href="#mfcb6ef2ca5" x="210.63081" y="287.415769" style="stroke: #000000; stroke-width: 0.8"/>
      </g>
     </g>
     <g id="text_6">
      <!-- 1.0 -->
      <g transform="translate(202.679247 302.014207) scale(0.1 -0.1)">
       <use xlink:href="#DejaVuSans-31"/>
       <use xlink:href="#DejaVuSans-2e" transform="translate(63.623047 0)"/>
       <use xlink:href="#DejaVuSans-30" transform="translate(95.410156 0)"/>
      </g>
     </g>
    </g>
    <g id="xtick_7">
     <g id="line2d_9">
      <g>
       <use xlink:href="#mfcb6ef2ca5" x="245.900361" y="287.415769" style="stroke: #000000; stroke-width: 0.8"/>
      </g>
     </g>
     <g id="text_7">
      <!-- 1.5 -->
      <g transform="translate(237.948799 302.014207) scale(0.1 -0.1)">
       <use xlink:href="#DejaVuSans-31"/>
       <use xlink:href="#DejaVuSans-2e" transform="translate(63.623047 0)"/>
       <use xlink:href="#DejaVuSans-35" transform="translate(95.410156 0)"/>
      </g>
     </g>
    </g>
   </g>
   <g id="matplotlib.axis_2">
    <g id="ytick_1">
     <g id="line2d_10">
      <defs>
       <path id="m885cdb4e3a" d="M 0 0 
L -3.5 0 
" style="stroke: #000000; stroke-width: 0.8"/>
      </defs>
      <g>
       <use xlink:href="#m885cdb4e3a" x="34.283052" y="287.415769" style="stroke: #000000; stroke-width: 0.8"/>
      </g>
     </g>
     <g id="text_8">
      <!-- −1.5 -->
      <g transform="translate(3.00024 291.214988) scale(0.1 -0.1)">
       <use xlink:href="#DejaVuSans-2212"/>
       <use xlink:href="#DejaVuSans-31" transform="translate(83.789062 0)"/>
       <use xlink:href="#DejaVuSans-2e" transform="translate(147.412109 0)"/>
       <use xlink:href="#DejaVuSans-35" transform="translate(179.199219 0)"/>
      </g>
     </g>
    </g>
    <g id="ytick_2">
     <g id="line2d_11">
      <g>
       <use xlink:href="#m885cdb4e3a" x="34.283052" y="252.146218" style="stroke: #000000; stroke-width: 0.8"/>
      </g>
     </g>
     <g id="text_9">
      <!-- −1.0 -->
      <g transform="translate(3.00024 255.945437) scale(0.1 -0.1)">
       <use xlink:href="#DejaVuSans-2212"/>
       <use xlink:href="#DejaVuSans-31" transform="translate(83.789062 0)"/>
       <use xlink:href="#DejaVuSans-2e" transform="translate(147.412109 0)"/>
       <use xlink:href="#DejaVuSans-30" transform="translate(179.199219 0)"/>
      </g>
     </g>
    </g>
    <g id="ytick_3">
     <g id="line2d_12">
      <g>
       <use xlink:href="#m885cdb4e3a" x="34.283052" y="216.876666" style="stroke: #000000; stroke-width: 0.8"/>
      </g>
     </g>
     <g id="text_10">
      <!-- −0.5 -->
      <g transform="translate(3.00024 220.675885) scale(0.1 -0.1)">
       <use xlink:href="#DejaVuSans-2212"/>
       <use xlink:href="#DejaVuSans-30" transform="translate(83.789062 0)"/>
       <use xlink:href="#DejaVuSans-2e" transform="translate(147.412109 0)"/>
       <use xlink:href="#DejaVuSans-35" transform="translate(179.199219 0)"/>
      </g>
     </g>
    </g>
    <g id="ytick_4">
     <g id="line2d_13">
      <g>
       <use xlink:href="#m885cdb4e3a" x="34.283052" y="181.607115" style="stroke: #000000; stroke-width: 0.8"/>
      </g>
     </g>
     <g id="text_11">
      <!-- 0.0 -->
      <g transform="translate(11.379927 185.406334) scale(0.1 -0.1)">
       <use xlink:href="#DejaVuSans-30"/>
       <use xlink:href="#DejaVuSans-2e" transform="translate(63.623047 0)"/>
       <use xlink:href="#DejaVuSans-30" transform="translate(95.410156 0)"/>
      </g>
     </g>
    </g>
    <g id="ytick_5">
     <g id="line2d_14">
      <g>
       <use xlink:href="#m885cdb4e3a" x="34.283052" y="146.337564" style="stroke: #000000; stroke-width: 0.8"/>
      </g>
     </g>
     <g id="text_12">
      <!-- 0.5 -->
      <g transform="translate(11.379927 150.136782) scale(0.1 -0.1)">
       <use xlink:href="#DejaVuSans-30"/>
       <use xlink:href="#DejaVuSans-2e" transform="translate(63.623047 0)"/>
       <use xlink:href="#DejaVuSans-35" transform="translate(95.410156 0)"/>
      </g>
     </g>
    </g>
    <g id="ytick_6">
     <g id="line2d_15">
      <g>
       <use xlink:href="#m885cdb4e3a" x="34.283052" y="111.068012" style="stroke: #000000; stroke-width: 0.8"/>
      </g>
     </g>
     <g id="text_13">
      <!-- 1.0 -->
      <g transform="translate(11.379927 114.867231) scale(0.1 -0.1)">
       <use xlink:href="#DejaVuSans-31"/>
       <use xlink:href="#DejaVuSans-2e" transform="translate(63.623047 0)"/>
       <use xlink:href="#DejaVuSans-30" transform="translate(95.410156 0)"/>
      </g>
     </g>
    </g>
    <g id="ytick_7">
     <g id="line2d_16">
      <g>
       <use xlink:href="#m885cdb4e3a" x="34.283052" y="75.798461" style="stroke: #000000; stroke-width: 0.8"/>
      </g>
     </g>
     <g id="text_14">
      <!-- 1.5 -->
      <g transform="translate(11.379927 79.597679) scale(0.1 -0.1)">
       <use xlink:href="#DejaVuSans-31"/>
       <use xlink:href="#DejaVuSans-2e" transform="translate(63.623047 0)"/>
       <use xlink:href="#DejaVuSans-35" transform="translate(95.410156 0)"/>
      </g>
     </g>
    </g>
   </g>
   <g id="line2d_17">
    <path d="M 140.534917 252.143433 
" clip-path="url(#p275025c408)" style="fill: none; stroke: #ff7f0e; stroke-width: 1.5; stroke-linecap: square"/>
    <defs>
     <path id="mb21a51e2c0" d="M 0 -2.5 
L -2.5 2.5 
L 2.5 2.5 
z
" style="stroke: #ff7f0e; stroke-linejoin: miter"/>
    </defs>
    <g clip-path="url(#p275025c408)">
     <use xlink:href="#mb21a51e2c0" x="140.534917" y="252.143433" style="fill: #ff7f0e; stroke: #ff7f0e; stroke-linejoin: miter"/>
    </g>
   </g>
   <g id="line2d_18">
    <path d="M 140.534917 252.002355 
" clip-path="url(#p275025c408)" style="fill: none; stroke: #2ca02c; stroke-width: 1.5; stroke-linecap: square"/>
    <defs>
     <path id="m17c7d5fad9" d="M 0 2.5 
C 0.663008 2.5 1.29895 2.236584 1.767767 1.767767 
C 2.236584 1.29895 2.5 0.663008 2.5 0 
C 2.5 -0.663008 2.236584 -1.29895 1.767767 -1.767767 
C 1.29895 -2.236584 0.663008 -2.5 0 -2.5 
C -0.663008 -2.5 -1.29895 -2.236584 -1.767767 -1.767767 
C -2.236584 -1.29895 -2.5 -0.663008 -2.5 0 
C -2.5 0.663008 -2.236584 1.29895 -1.767767 1.767767 
C -1.29895 2.236584 -0.663008 2.5 0 2.5 
z
" style="stroke: #ff7f0e"/>
    </defs>
    <g clip-path="url(#p275025c408)">
     <use xlink:href="#m17c7d5fad9" x="140.534917" y="252.002355" style="fill: #ff7f0e; stroke: #ff7f0e"/>
    </g>
   </g>
   <g id="line2d_19">
    <path d="M 140.091707 181.607115 
L 140.978127 322.679751 
" clip-path="url(#p275025c408)" style="fill: none; stroke: #808080; stroke-width: 0.5; stroke-linecap: square"/>
   </g>
   <g id="line2d_20">
    <path d="M 162.310718 248.485691 
" clip-path="url(#p275025c408)" style="fill: none; stroke: #2ca02c; stroke-width: 1.5; stroke-linecap: square"/>
    <defs>
     <path id="maa5f87a871" d="M -0.772542 -2.377641 
L -1.605099 3.150184 
L 3.150184 1.605099 
z
" style="stroke: #2ca02c; stroke-linejoin: miter"/>
    </defs>
    <g clip-path="url(#p275025c408)">
     <use xlink:href="#maa5f87a871" x="162.310718" y="248.485691" style="fill: #2ca02c; stroke: #2ca02c; stroke-linejoin: miter"/>
    </g>
   </g>
   <g id="line2d_21">
    <path d="M 162.310718 241.41316 
" clip-path="url(#p275025c408)" style="fill: none; stroke: #d62728; stroke-width: 1.5; stroke-linecap: square"/>
    <defs>
     <path id="md2b8d35015" d="M 0.772542 2.377641 
C 1.4031 2.172761 1.926517 1.72572 2.227516 1.134976 
C 2.528516 0.544232 2.582522 -0.141985 2.377641 -0.772542 
C 2.172761 -1.4031 1.72572 -1.926517 1.134976 -2.227516 
C 0.544232 -2.528516 -0.141985 -2.582522 -0.772542 -2.377641 
C -1.4031 -2.172761 -1.926517 -1.72572 -2.227516 -1.134976 
C -2.528516 -0.544232 -2.582522 0.141985 -2.377641 0.772542 
C -2.172761 1.4031 -1.72572 1.926517 -1.134976 2.227516 
C -0.544232 2.528516 0.141985 2.582522 0.772542 2.377641 
z
" style="stroke: #2ca02c"/>
    </defs>
    <g clip-path="url(#p275025c408)">
     <use xlink:href="#md2b8d35015" x="162.310718" y="241.41316" style="fill: #2ca02c; stroke: #2ca02c"/>
    </g>
   </g>
   <g id="line2d_22">
    <path d="M 140.091707 181.607115 
L 184.52973 315.364267 
" clip-path="url(#p275025c408)" style="fill: none; stroke: #808080; stroke-width: 0.5; stroke-linecap: square"/>
   </g>
   <g id="line2d_23">
    <path d="M 181.911561 238.281386 
" clip-path="url(#p275025c408)" style="fill: none; stroke: #d62728; stroke-width: 1.5; stroke-linecap: square"/>
    <defs>
     <path id="m738e17dd1a" d="M -1.469463 -2.022542 
L -0.553079 3.492006 
L 3.492006 0.553079 
z
" style="stroke: #d62728; stroke-linejoin: miter"/>
    </defs>
    <g clip-path="url(#p275025c408)">
     <use xlink:href="#m738e17dd1a" x="181.911561" y="238.281386" style="fill: #d62728; stroke: #d62728; stroke-linejoin: miter"/>
    </g>
   </g>
   <g id="line2d_24">
    <path d="M 181.911561 224.969713 
" clip-path="url(#p275025c408)" style="fill: none; stroke: #9467bd; stroke-width: 1.5; stroke-linecap: square"/>
    <defs>
     <path id="m3a798e7e04" d="M 1.469463 2.022542 
C 2.005848 1.632836 2.365504 1.045931 2.469221 0.391086 
C 2.572938 -0.263759 2.412249 -0.933079 2.022542 -1.469463 
C 1.632836 -2.005848 1.045931 -2.365504 0.391086 -2.469221 
C -0.263759 -2.572938 -0.933079 -2.412249 -1.469463 -2.022542 
C -2.005848 -1.632836 -2.365504 -1.045931 -2.469221 -0.391086 
C -2.572938 0.263759 -2.412249 0.933079 -2.022542 1.469463 
C -1.632836 2.005848 -1.045931 2.365504 -0.391086 2.469221 
C 0.263759 2.572938 0.933079 2.412249 1.469463 2.022542 
z
" style="stroke: #d62728"/>
    </defs>
    <g clip-path="url(#p275025c408)">
     <use xlink:href="#m3a798e7e04" x="181.911561" y="224.969713" style="fill: #d62728; stroke: #d62728"/>
    </g>
   </g>
   <g id="line2d_25">
    <path d="M 140.091707 181.607115 
L 223.731415 294.955657 
" clip-path="url(#p275025c408)" style="fill: none; stroke: #808080; stroke-width: 0.5; stroke-linecap: square"/>
   </g>
   <g id="line2d_26">
    <path d="M 197.418771 222.529391 
" clip-path="url(#p275025c408)" style="fill: none; stroke: #9467bd; stroke-width: 1.5; stroke-linecap: square"/>
    <defs>
     <path id="m33b2a4e2d6" d="M -2.022542 -1.469463 
L 0.553079 3.492006 
L 3.492006 -0.553079 
z
" style="stroke: #9467bd; stroke-linejoin: miter"/>
    </defs>
    <g clip-path="url(#p275025c408)">
     <use xlink:href="#m33b2a4e2d6" x="197.418771" y="222.529391" style="fill: #9467bd; stroke: #9467bd; stroke-linejoin: miter"/>
    </g>
   </g>
   <g id="line2d_27">
    <path d="M 197.418771 204.28162 
" clip-path="url(#p275025c408)" style="fill: none; stroke: #8c564b; stroke-width: 1.5; stroke-linecap: square"/>
    <defs>
     <path id="mbb324f64b8" d="M 2.022542 1.469463 
C 2.412249 0.933079 2.572938 0.263759 2.469221 -0.391086 
C 2.365504 -1.045931 2.005848 -1.632836 1.469463 -2.022542 
C 0.933079 -2.412249 0.263759 -2.572938 -0.391086 -2.469221 
C -1.045931 -2.365504 -1.632836 -2.005848 -2.022542 -1.469463 
C -2.412249 -0.933079 -2.572938 -0.263759 -2.469221 0.391086 
C -2.365504 1.045931 -2.005848 1.632836 -1.469463 2.022542 
C -0.933079 2.412249 -0.263759 2.572938 0.391086 2.469221 
C 1.045931 2.365504 1.632836 2.005848 2.022542 1.469463 
z
" style="stroke: #9467bd"/>
    </defs>
    <g clip-path="url(#p275025c408)">
     <use xlink:href="#mbb324f64b8" x="197.418771" y="204.28162" style="fill: #9467bd; stroke: #9467bd"/>
    </g>
   </g>
   <g id="line2d_28">
    <path d="M 140.091707 181.607115 
L 254.745835 263.451667 
" clip-path="url(#p275025c408)" style="fill: none; stroke: #808080; stroke-width: 0.5; stroke-linecap: square"/>
   </g>
   <g id="line2d_29">
    <path d="M 207.314391 202.771625 
" clip-path="url(#p275025c408)" style="fill: none; stroke: #1f77b4; stroke-width: 1.5; stroke-linecap: square"/>
    <defs>
     <path id="m684a216489" d="M -2.377641 -0.772542 
L 1.605099 3.150184 
L 3.150184 -1.605099 
z
" style="stroke: #1f77b4; stroke-linejoin: miter"/>
    </defs>
    <g clip-path="url(#p275025c408)">
     <use xlink:href="#m684a216489" x="207.314391" y="202.771625" style="fill: #1f77b4; stroke: #1f77b4; stroke-linejoin: miter"/>
    </g>
   </g>
   <g id="line2d_30">
    <path d="M 207.314391 181.37398 
" clip-path="url(#p275025c408)" style="fill: none; stroke: #e377c2; stroke-width: 1.5; stroke-linecap: square"/>
    <defs>
     <path id="m64b427a9c3" d="M 2.377641 0.772542 
C 2.582522 0.141985 2.528516 -0.544232 2.227516 -1.134976 
C 1.926517 -1.72572 1.4031 -2.172761 0.772542 -2.377641 
C 0.141985 -2.582522 -0.544232 -2.528516 -1.134976 -2.227516 
C -1.72572 -1.926517 -2.172761 -1.4031 -2.377641 -0.772542 
C -2.582522 -0.141985 -2.528516 0.544232 -2.227516 1.134976 
C -1.926517 1.72572 -1.4031 2.172761 -0.772542 2.377641 
C -0.141985 2.582522 0.544232 2.528516 1.134976 2.227516 
C 1.72572 1.926517 2.172761 1.4031 2.377641 0.772542 
z
" style="stroke: #1f77b4"/>
    </defs>
    <g clip-path="url(#p275025c408)">
     <use xlink:href="#m64b427a9c3" x="207.314391" y="181.37398" style="fill: #1f77b4; stroke: #1f77b4"/>
    </g>
   </g>
   <g id="line2d_31">
    <path d="M 140.091707 181.607115 
L 274.537075 223.936135 
" clip-path="url(#p275025c408)" style="fill: none; stroke: #808080; stroke-width: 0.5; stroke-linecap: square"/>
   </g>
   <g id="line2d_32">
    <path d="M 210.629764 180.942123 
" clip-path="url(#p275025c408)" style="fill: none; stroke: #ff7f0e; stroke-width: 1.5; stroke-linecap: square"/>
    <defs>
     <path id="m70932caec9" d="M -2.5 -0 
L 2.5 2.5 
L 2.5 -2.5 
z
" style="stroke: #ff7f0e; stroke-linejoin: miter"/>
    </defs>
    <g clip-path="url(#p275025c408)">
     <use xlink:href="#m70932caec9" x="210.629764" y="180.942123" style="fill: #ff7f0e; stroke: #ff7f0e; stroke-linejoin: miter"/>
    </g>
   </g>
   <g id="line2d_33">
    <path d="M 210.629764 158.489162 
" clip-path="url(#p275025c408)" style="fill: none; stroke: #7f7f7f; stroke-width: 1.5; stroke-linecap: square"/>
    <defs>
     <path id="m543c3c6b9e" d="M 2.5 0 
C 2.5 -0.663008 2.236584 -1.29895 1.767767 -1.767767 
C 1.29895 -2.236584 0.663008 -2.5 0 -2.5 
C -0.663008 -2.5 -1.29895 -2.236584 -1.767767 -1.767767 
C -2.236584 -1.29895 -2.5 -0.663008 -2.5 -0 
C -2.5 0.663008 -2.236584 1.29895 -1.767767 1.767767 
C -1.29895 2.236584 -0.663008 2.5 -0 2.5 
C 0.663008 2.5 1.29895 2.236584 1.767767 1.767767 
C 2.236584 1.29895 2.5 0.663008 2.5 0 
z
" style="stroke: #ff7f0e"/>
    </defs>
    <g clip-path="url(#p275025c408)">
     <use xlink:href="#m543c3c6b9e" x="210.629764" y="158.489162" style="fill: #ff7f0e; stroke: #ff7f0e"/>
    </g>
   </g>
   <g id="line2d_34">
    <path d="M 140.091707 181.607115 
L 281.167822 180.277131 
" clip-path="url(#p275025c408)" style="fill: none; stroke: #808080; stroke-width: 0.5; stroke-linecap: square"/>
   </g>
   <g id="line2d_35">
    <path d="M 207.040359 159.177715 
" clip-path="url(#p275025c408)" style="fill: none; stroke: #2ca02c; stroke-width: 1.5; stroke-linecap: square"/>
    <defs>
     <path id="ma8e0a33dca" d="M -2.377641 0.772542 
L 3.150184 1.605099 
L 1.605099 -3.150184 
z
" style="stroke: #2ca02c; stroke-linejoin: miter"/>
    </defs>
    <g clip-path="url(#p275025c408)">
     <use xlink:href="#ma8e0a33dca" x="207.040359" y="159.177715" style="fill: #2ca02c; stroke: #2ca02c; stroke-linejoin: miter"/>
    </g>
   </g>
   <g id="line2d_36">
    <path d="M 207.040359 137.867297 
" clip-path="url(#p275025c408)" style="fill: none; stroke: #bcbd22; stroke-width: 1.5; stroke-linecap: square"/>
    <defs>
     <path id="m3f312c3d3c" d="M 2.377641 -0.772542 
C 2.172761 -1.4031 1.72572 -1.926517 1.134976 -2.227516 
C 0.544232 -2.528516 -0.141985 -2.582522 -0.772542 -2.377641 
C -1.4031 -2.172761 -1.926517 -1.72572 -2.227516 -1.134976 
C -2.528516 -0.544232 -2.582522 0.141985 -2.377641 0.772542 
C -2.172761 1.4031 -1.72572 1.926517 -1.134976 2.227516 
C -0.544232 2.528516 0.141985 2.582522 0.772542 2.377641 
C 1.4031 2.172761 1.926517 1.72572 2.227516 1.134976 
C 2.528516 0.544232 2.582522 -0.141985 2.377641 -0.772542 
z
" style="stroke: #2ca02c"/>
    </defs>
    <g clip-path="url(#p275025c408)">
     <use xlink:href="#m3f312c3d3c" x="207.040359" y="137.867297" style="fill: #2ca02c; stroke: #2ca02c"/>
    </g>
   </g>
   <g id="line2d_37">
    <path d="M 140.091707 181.607115 
L 273.98901 136.748315 
" clip-path="url(#p275025c408)" style="fill: none; stroke: #808080; stroke-width: 0.5; stroke-linecap: square"/>
   </g>
   <g id="line2d_38">
    <path d="M 196.897531 139.60886 
" clip-path="url(#p275025c408)" style="fill: none; stroke: #d62728; stroke-width: 1.5; stroke-linecap: square"/>
    <defs>
     <path id="m1450dcf624" d="M -2.022542 1.469463 
L 3.492006 0.553079 
L 0.553079 -3.492006 
z
" style="stroke: #d62728; stroke-linejoin: miter"/>
    </defs>
    <g clip-path="url(#p275025c408)">
     <use xlink:href="#m1450dcf624" x="196.897531" y="139.60886" style="fill: #d62728; stroke: #d62728; stroke-linejoin: miter"/>
    </g>
   </g>
   <g id="line2d_39">
    <path d="M 196.897531 121.527004 
" clip-path="url(#p275025c408)" style="fill: none; stroke: #17becf; stroke-width: 1.5; stroke-linecap: square"/>
    <defs>
     <path id="m7c43e7a4c5" d="M 2.022542 -1.469463 
C 1.632836 -2.005848 1.045931 -2.365504 0.391086 -2.469221 
C -0.263759 -2.572938 -0.933079 -2.412249 -1.469463 -2.022542 
C -2.005848 -1.632836 -2.365504 -1.045931 -2.469221 -0.391086 
C -2.572938 0.263759 -2.412249 0.933079 -2.022542 1.469463 
C -1.632836 2.005848 -1.045931 2.365504 -0.391086 2.469221 
C 0.263759 2.572938 0.933079 2.412249 1.469463 2.022542 
C 2.005848 1.632836 2.365504 1.045931 2.469221 0.391086 
C 2.572938 -0.263759 2.412249 -0.933079 2.022542 -1.469463 
z
" style="stroke: #d62728"/>
    </defs>
    <g clip-path="url(#p275025c408)">
     <use xlink:href="#m7c43e7a4c5" x="196.897531" y="121.527004" style="fill: #d62728; stroke: #d62728"/>
    </g>
   </g>
   <g id="line2d_40">
    <path d="M 140.091707 181.607115 
L 253.703356 97.610605 
" clip-path="url(#p275025c408)" style="fill: none; stroke: #808080; stroke-width: 0.5; stroke-linecap: square"/>
   </g>
   <g id="line2d_41">
    <path d="M 181.194136 124.1511 
" clip-path="url(#p275025c408)" style="fill: none; stroke: #9467bd; stroke-width: 1.5; stroke-linecap: square"/>
    <defs>
     <path id="ma820375e8e" d="M -1.469463 2.022542 
L 3.492006 -0.553079 
L -0.553079 -3.492006 
z
" style="stroke: #9467bd; stroke-linejoin: miter"/>
    </defs>
    <g clip-path="url(#p275025c408)">
     <use xlink:href="#ma820375e8e" x="181.194136" y="124.1511" style="fill: #9467bd; stroke: #9467bd; stroke-linejoin: miter"/>
    </g>
   </g>
   <g id="line2d_42">
    <path d="M 181.194136 111.067791 
" clip-path="url(#p275025c408)" style="fill: none; stroke: #1f77b4; stroke-width: 1.5; stroke-linecap: square"/>
    <defs>
     <path id="m3c63f352d7" d="M 1.469463 -2.022542 
C 0.933079 -2.412249 0.263759 -2.572938 -0.391086 -2.469221 
C -1.045931 -2.365504 -1.632836 -2.005848 -2.022542 -1.469463 
C -2.412249 -0.933079 -2.572938 -0.263759 -2.469221 0.391086 
C -2.365504 1.045931 -2.005848 1.632836 -1.469463 2.022542 
C -0.933079 2.412249 -0.263759 2.572938 0.391086 2.469221 
C 1.045931 2.365504 1.632836 2.005848 2.022542 1.469463 
C 2.412249 0.933079 2.572938 0.263759 2.469221 -0.391086 
C 2.365504 -1.045931 2.005848 -1.632836 1.469463 -2.022542 
z
" style="stroke: #9467bd"/>
    </defs>
    <g clip-path="url(#p275025c408)">
     <use xlink:href="#m3c63f352d7" x="181.194136" y="111.067791" style="fill: #9467bd; stroke: #9467bd"/>
    </g>
   </g>
   <g id="line2d_43">
    <path d="M 140.091707 181.607115 
L 222.296565 66.695086 
" clip-path="url(#p275025c408)" style="fill: none; stroke: #808080; stroke-width: 0.5; stroke-linecap: square"/>
   </g>
   <g id="line2d_44">
    <path d="M 161.467335 114.317554 
" clip-path="url(#p275025c408)" style="fill: none; stroke: #1f77b4; stroke-width: 1.5; stroke-linecap: square"/>
    <defs>
     <path id="m29bcaf28cf" d="M -0.772542 2.377641 
L 3.150184 -1.605099 
L -1.605099 -3.150184 
z
" style="stroke: #1f77b4; stroke-linejoin: miter"/>
    </defs>
    <g clip-path="url(#p275025c408)">
     <use xlink:href="#m29bcaf28cf" x="161.467335" y="114.317554" style="fill: #1f77b4; stroke: #1f77b4; stroke-linejoin: miter"/>
    </g>
   </g>
   <g id="line2d_45">
    <path d="M 161.467335 107.51348 
" clip-path="url(#p275025c408)" style="fill: none; stroke: #ff7f0e; stroke-width: 1.5; stroke-linecap: square"/>
    <defs>
     <path id="m5f92440500" d="M 0.772542 -2.377641 
C 0.141985 -2.582522 -0.544232 -2.528516 -1.134976 -2.227516 
C -1.72572 -1.926517 -2.172761 -1.4031 -2.377641 -0.772542 
C -2.582522 -0.141985 -2.528516 0.544232 -2.227516 1.134976 
C -1.926517 1.72572 -1.4031 2.172761 -0.772542 2.377641 
C -0.141985 2.582522 0.544232 2.528516 1.134976 2.227516 
C 1.72572 1.926517 2.172761 1.4031 2.377641 0.772542 
C 2.582522 0.141985 2.528516 -0.544232 2.227516 -1.134976 
C 1.926517 -1.72572 1.4031 -2.172761 0.772542 -2.377641 
z
" style="stroke: #1f77b4"/>
    </defs>
    <g clip-path="url(#p275025c408)">
     <use xlink:href="#m5f92440500" x="161.467335" y="107.51348" style="fill: #1f77b4; stroke: #1f77b4"/>
    </g>
   </g>
   <g id="line2d_46">
    <path d="M 140.091707 181.607115 
L 182.842963 47.027993 
" clip-path="url(#p275025c408)" style="fill: none; stroke: #808080; stroke-width: 0.5; stroke-linecap: square"/>
   </g>
   <g id="patch_5">
    <path d="M 34.283052 287.415769 
L 34.283052 75.798461 
" style="fill: none; stroke: #000000; stroke-width: 0.8; stroke-linejoin: miter; stroke-linecap: square"/>
   </g>
   <g id="patch_6">
    <path d="M 245.900361 287.415769 
L 245.900361 75.798461 
" style="fill: none; stroke: #000000; stroke-width: 0.8; stroke-linejoin: miter; stroke-linecap: square"/>
   </g>
   <g id="patch_7">
    <path d="M 34.283053 287.415769 
L 245.900361 287.415769 
" style="fill: none; stroke: #000000; stroke-width: 0.8; stroke-linejoin: miter; stroke-linecap: square"/>
   </g>
   <g id="patch_8">
    <path d="M 34.283053 75.798461 
L 245.900361 75.798461 
" style="fill: none; stroke: #000000; stroke-width: 0.8; stroke-linejoin: miter; stroke-linecap: square"/>
   </g>
   <g id="text_15">
    <!--  1 -->
    <g style="fill: #ff7f0e" transform="translate(140.534917 252.002355) scale(0.1 -0.1)">
     <defs>
      <path id="DejaVuSans-20" transform="scale(0.015625)"/>
     </defs>
     <use xlink:href="#DejaVuSans-20"/>
     <use xlink:href="#DejaVuSans-31" transform="translate(31.787109 0)"/>
    </g>
   </g>
   <g id="text_16">
    <!--  2 -->
    <g style="fill: #2ca02c" transform="translate(162.310718 241.41316) scale(0.1 -0.1)">
     <defs>
      <path id="DejaVuSans-32" d="M 1228 531 
L 3431 531 
L 3431 0 
L 469 0 
L 469 531 
Q 828 903 1448 1529 
Q 2069 2156 2228 2338 
Q 2531 2678 2651 2914 
Q 2772 3150 2772 3378 
Q 2772 3750 2511 3984 
Q 2250 4219 1831 4219 
Q 1534 4219 1204 4116 
Q 875 4013 500 3803 
L 500 4441 
Q 881 4594 1212 4672 
Q 1544 4750 1819 4750 
Q 2544 4750 2975 4387 
Q 3406 4025 3406 3419 
Q 3406 3131 3298 2873 
Q 3191 2616 2906 2266 
Q 2828 2175 2409 1742 
Q 1991 1309 1228 531 
z
" transform="scale(0.015625)"/>
     </defs>
     <use xlink:href="#DejaVuSans-20"/>
     <use xlink:href="#DejaVuSans-32" transform="translate(31.787109 0)"/>
    </g>
   </g>
   <g id="text_17">
    <!--  3 -->
    <g style="fill: #d62728" transform="translate(181.911561 224.969713) scale(0.1 -0.1)">
     <defs>
      <path id="DejaVuSans-33" d="M 2597 2516 
Q 3050 2419 3304 2112 
Q 3559 1806 3559 1356 
Q 3559 666 3084 287 
Q 2609 -91 1734 -91 
Q 1441 -91 1130 -33 
Q 819 25 488 141 
L 488 750 
Q 750 597 1062 519 
Q 1375 441 1716 441 
Q 2309 441 2620 675 
Q 2931 909 2931 1356 
Q 2931 1769 2642 2001 
Q 2353 2234 1838 2234 
L 1294 2234 
L 1294 2753 
L 1863 2753 
Q 2328 2753 2575 2939 
Q 2822 3125 2822 3475 
Q 2822 3834 2567 4026 
Q 2313 4219 1838 4219 
Q 1578 4219 1281 4162 
Q 984 4106 628 3988 
L 628 4550 
Q 988 4650 1302 4700 
Q 1616 4750 1894 4750 
Q 2613 4750 3031 4423 
Q 3450 4097 3450 3541 
Q 3450 3153 3228 2886 
Q 3006 2619 2597 2516 
z
" transform="scale(0.015625)"/>
     </defs>
     <use xlink:href="#DejaVuSans-20"/>
     <use xlink:href="#DejaVuSans-33" transform="translate(31.787109 0)"/>
    </g>
   </g>
   <g id="text_18">
    <!--  4 -->
    <g style="fill: #9467bd" transform="translate(197.418771 204.28162) scale(0.1 -0.1)">
     <defs>
      <path id="DejaVuSans-34" d="M 2419 4116 
L 825 1625 
L 2419 1625 
L 2419 4116 
z
M 2253 4666 
L 3047 4666 
L 3047 1625 
L 3713 1625 
L 3713 1100 
L 3047 1100 
L 3047 0 
L 2419 0 
L 2419 1100 
L 313 1100 
L 313 1709 
L 2253 4666 
z
" transform="scale(0.015625)"/>
     </defs>
     <use xlink:href="#DejaVuSans-20"/>
     <use xlink:href="#DejaVuSans-34" transform="translate(31.787109 0)"/>
    </g>
   </g>
   <g id="text_19">
    <!--  5 -->
    <g style="fill: #1f77b4" transform="translate(207.314391 181.37398) scale(0.1 -0.1)">
     <use xlink:href="#DejaVuSans-20"/>
     <use xlink:href="#DejaVuSans-35" transform="translate(31.787109 0)"/>
    </g>
   </g>
   <g id="text_20">
    <!--  6 -->
    <g style="fill: #ff7f0e" transform="translate(210.629764 158.489162) scale(0.1 -0.1)">
     <defs>
      <path id="DejaVuSans-36" d="M 2113 2584 
Q 1688 2584 1439 2293 
Q 1191 2003 1191 1497 
Q 1191 994 1439 701 
Q 1688 409 2113 409 
Q 2538 409 2786 701 
Q 3034 994 3034 1497 
Q 3034 2003 2786 2293 
Q 2538 2584 2113 2584 
z
M 3366 4563 
L 3366 3988 
Q 3128 4100 2886 4159 
Q 2644 4219 2406 4219 
Q 1781 4219 1451 3797 
Q 1122 3375 1075 2522 
Q 1259 2794 1537 2939 
Q 1816 3084 2150 3084 
Q 2853 3084 3261 2657 
Q 3669 2231 3669 1497 
Q 3669 778 3244 343 
Q 2819 -91 2113 -91 
Q 1303 -91 875 529 
Q 447 1150 447 2328 
Q 447 3434 972 4092 
Q 1497 4750 2381 4750 
Q 2619 4750 2861 4703 
Q 3103 4656 3366 4563 
z
" transform="scale(0.015625)"/>
     </defs>
     <use xlink:href="#DejaVuSans-20"/>
     <use xlink:href="#DejaVuSans-36" transform="translate(31.787109 0)"/>
    </g>
   </g>
   <g id="text_21">
    <!--  7 -->
    <g style="fill: #2ca02c" transform="translate(207.040359 137.867297) scale(0.1 -0.1)">
     <defs>
      <path id="DejaVuSans-37" d="M 525 4666 
L 3525 4666 
L 3525 4397 
L 1831 0 
L 1172 0 
L 2766 4134 
L 525 4134 
L 525 4666 
z
" transform="scale(0.015625)"/>
     </defs>
     <use xlink:href="#DejaVuSans-20"/>
     <use xlink:href="#DejaVuSans-37" transform="translate(31.787109 0)"/>
    </g>
   </g>
   <g id="text_22">
    <!--  8 -->
    <g style="fill: #d62728" transform="translate(196.897531 121.527004) scale(0.1 -0.1)">
     <defs>
      <path id="DejaVuSans-38" d="M 2034 2216 
Q 1584 2216 1326 1975 
Q 1069 1734 1069 1313 
Q 1069 891 1326 650 
Q 1584 409 2034 409 
Q 2484 409 2743 651 
Q 3003 894 3003 1313 
Q 3003 1734 2745 1975 
Q 2488 2216 2034 2216 
z
M 1403 2484 
Q 997 2584 770 2862 
Q 544 3141 544 3541 
Q 544 4100 942 4425 
Q 1341 4750 2034 4750 
Q 2731 4750 3128 4425 
Q 3525 4100 3525 3541 
Q 3525 3141 3298 2862 
Q 3072 2584 2669 2484 
Q 3125 2378 3379 2068 
Q 3634 1759 3634 1313 
Q 3634 634 3220 271 
Q 2806 -91 2034 -91 
Q 1263 -91 848 271 
Q 434 634 434 1313 
Q 434 1759 690 2068 
Q 947 2378 1403 2484 
z
M 1172 3481 
Q 1172 3119 1398 2916 
Q 1625 2713 2034 2713 
Q 2441 2713 2670 2916 
Q 2900 3119 2900 3481 
Q 2900 3844 2670 4047 
Q 2441 4250 2034 4250 
Q 1625 4250 1398 4047 
Q 1172 3844 1172 3481 
z
" transform="scale(0.015625)"/>
     </defs>
     <use xlink:href="#DejaVuSans-20"/>
     <use xlink:href="#DejaVuSans-38" transform="translate(31.787109 0)"/>
    </g>
   </g>
   <g id="text_23">
    <!--  9 -->
    <g style="fill: #9467bd" transform="translate(181.194136 111.067791) scale(0.1 -0.1)">
     <defs>
      <path id="DejaVuSans-39" d="M 703 97 
L 703 672 
Q 941 559 1184 500 
Q 1428 441 1663 441 
Q 2288 441 2617 861 
Q 2947 1281 2994 2138 
Q 2813 1869 2534 1725 
Q 2256 1581 1919 1581 
Q 1219 1581 811 2004 
Q 403 2428 403 3163 
Q 403 3881 828 4315 
Q 1253 4750 1959 4750 
Q 2769 4750 3195 4129 
Q 3622 3509 3622 2328 
Q 3622 1225 3098 567 
Q 2575 -91 1691 -91 
Q 1453 -91 1209 -44 
Q 966 3 703 97 
z
M 1959 2075 
Q 2384 2075 2632 2365 
Q 2881 2656 2881 3163 
Q 2881 3666 2632 3958 
Q 2384 4250 1959 4250 
Q 1534 4250 1286 3958 
Q 1038 3666 1038 3163 
Q 1038 2656 1286 2365 
Q 1534 2075 1959 2075 
z
" transform="scale(0.015625)"/>
     </defs>
     <use xlink:href="#DejaVuSans-20"/>
     <use xlink:href="#DejaVuSans-39" transform="translate(31.787109 0)"/>
    </g>
   </g>
   <g id="text_24">
    <!--  10 -->
    <g style="fill: #1f77b4" transform="translate(161.467335 107.51348) scale(0.1 -0.1)">
     <use xlink:href="#DejaVuSans-20"/>
     <use xlink:href="#DejaVuSans-31" transform="translate(31.787109 0)"/>
     <use xlink:href="#DejaVuSans-30" transform="translate(95.410156 0)"/>
    </g>
   </g>
   <g id="text_25">
    <!-- $\Omega$ -->
    <g style="fill: #808080" transform="translate(147.145617 177.864455) scale(0.12 -0.12)">
     <defs>
      <path id="DejaVuSans-3a9" d="M 4647 556 
L 4647 0 
L 2772 0 
L 2772 556 
Q 3325 859 3634 1378 
Q 3944 1897 3944 2528 
Q 3944 3278 3531 3731 
Q 3119 4184 2444 4184 
Q 1769 4184 1355 3729 
Q 941 3275 941 2528 
Q 941 1897 1250 1378 
Q 1563 859 2119 556 
L 2119 0 
L 244 0 
L 244 556 
L 1241 556 
Q 747 991 519 1456 
Q 294 1922 294 2497 
Q 294 3491 894 4106 
Q 1491 4722 2444 4722 
Q 3391 4722 3994 4106 
Q 4594 3494 4594 2528 
Q 4594 1922 4372 1459 
Q 4150 997 3647 556 
L 4647 556 
z
" transform="scale(0.015625)"/>
     </defs>
     <use xlink:href="#DejaVuSans-3a9" transform="translate(0 0.21875)"/>
    </g>
   </g>
   <g id="text_26">
    <!-- trajectory in inertial frame -->
    <g transform="translate(60.924519 69.798461) scale(0.12 -0.12)">
     <defs>
      <path id="DejaVuSans-74" d="M 1172 4494 
L 1172 3500 
L 2356 3500 
L 2356 3053 
L 1172 3053 
L 1172 1153 
Q 1172 725 1289 603 
Q 1406 481 1766 481 
L 2356 481 
L 2356 0 
L 1766 0 
Q 1100 0 847 248 
Q 594 497 594 1153 
L 594 3053 
L 172 3053 
L 172 3500 
L 594 3500 
L 594 4494 
L 1172 4494 
z
" transform="scale(0.015625)"/>
      <path id="DejaVuSans-72" d="M 2631 2963 
Q 2534 3019 2420 3045 
Q 2306 3072 2169 3072 
Q 1681 3072 1420 2755 
Q 1159 2438 1159 1844 
L 1159 0 
L 581 0 
L 581 3500 
L 1159 3500 
L 1159 2956 
Q 1341 3275 1631 3429 
Q 1922 3584 2338 3584 
Q 2397 3584 2469 3576 
Q 2541 3569 2628 3553 
L 2631 2963 
z
" transform="scale(0.015625)"/>
      <path id="DejaVuSans-61" d="M 2194 1759 
Q 1497 1759 1228 1600 
Q 959 1441 959 1056 
Q 959 750 1161 570 
Q 1363 391 1709 391 
Q 2188 391 2477 730 
Q 2766 1069 2766 1631 
L 2766 1759 
L 2194 1759 
z
M 3341 1997 
L 3341 0 
L 2766 0 
L 2766 531 
Q 2569 213 2275 61 
Q 1981 -91 1556 -91 
Q 1019 -91 701 211 
Q 384 513 384 1019 
Q 384 1609 779 1909 
Q 1175 2209 1959 2209 
L 2766 2209 
L 2766 2266 
Q 2766 2663 2505 2880 
Q 2244 3097 1772 3097 
Q 1472 3097 1187 3025 
Q 903 2953 641 2809 
L 641 3341 
Q 956 3463 1253 3523 
Q 1550 3584 1831 3584 
Q 2591 3584 2966 3190 
Q 3341 2797 3341 1997 
z
" transform="scale(0.015625)"/>
      <path id="DejaVuSans-6a" d="M 603 3500 
L 1178 3500 
L 1178 -63 
Q 1178 -731 923 -1031 
Q 669 -1331 103 -1331 
L -116 -1331 
L -116 -844 
L 38 -844 
Q 366 -844 484 -692 
Q 603 -541 603 -63 
L 603 3500 
z
M 603 4863 
L 1178 4863 
L 1178 4134 
L 603 4134 
L 603 4863 
z
" transform="scale(0.015625)"/>
      <path id="DejaVuSans-65" d="M 3597 1894 
L 3597 1613 
L 953 1613 
Q 991 1019 1311 708 
Q 1631 397 2203 397 
Q 2534 397 2845 478 
Q 3156 559 3463 722 
L 3463 178 
Q 3153 47 2828 -22 
Q 2503 -91 2169 -91 
Q 1331 -91 842 396 
Q 353 884 353 1716 
Q 353 2575 817 3079 
Q 1281 3584 2069 3584 
Q 2775 3584 3186 3129 
Q 3597 2675 3597 1894 
z
M 3022 2063 
Q 3016 2534 2758 2815 
Q 2500 3097 2075 3097 
Q 1594 3097 1305 2825 
Q 1016 2553 972 2059 
L 3022 2063 
z
" transform="scale(0.015625)"/>
      <path id="DejaVuSans-63" d="M 3122 3366 
L 3122 2828 
Q 2878 2963 2633 3030 
Q 2388 3097 2138 3097 
Q 1578 3097 1268 2742 
Q 959 2388 959 1747 
Q 959 1106 1268 751 
Q 1578 397 2138 397 
Q 2388 397 2633 464 
Q 2878 531 3122 666 
L 3122 134 
Q 2881 22 2623 -34 
Q 2366 -91 2075 -91 
Q 1284 -91 818 406 
Q 353 903 353 1747 
Q 353 2603 823 3093 
Q 1294 3584 2113 3584 
Q 2378 3584 2631 3529 
Q 2884 3475 3122 3366 
z
" transform="scale(0.015625)"/>
      <path id="DejaVuSans-6f" d="M 1959 3097 
Q 1497 3097 1228 2736 
Q 959 2375 959 1747 
Q 959 1119 1226 758 
Q 1494 397 1959 397 
Q 2419 397 2687 759 
Q 2956 1122 2956 1747 
Q 2956 2369 2687 2733 
Q 2419 3097 1959 3097 
z
M 1959 3584 
Q 2709 3584 3137 3096 
Q 3566 2609 3566 1747 
Q 3566 888 3137 398 
Q 2709 -91 1959 -91 
Q 1206 -91 779 398 
Q 353 888 353 1747 
Q 353 2609 779 3096 
Q 1206 3584 1959 3584 
z
" transform="scale(0.015625)"/>
      <path id="DejaVuSans-79" d="M 2059 -325 
Q 1816 -950 1584 -1140 
Q 1353 -1331 966 -1331 
L 506 -1331 
L 506 -850 
L 844 -850 
Q 1081 -850 1212 -737 
Q 1344 -625 1503 -206 
L 1606 56 
L 191 3500 
L 800 3500 
L 1894 763 
L 2988 3500 
L 3597 3500 
L 2059 -325 
z
" transform="scale(0.015625)"/>
      <path id="DejaVuSans-69" d="M 603 3500 
L 1178 3500 
L 1178 0 
L 603 0 
L 603 3500 
z
M 603 4863 
L 1178 4863 
L 1178 4134 
L 603 4134 
L 603 4863 
z
" transform="scale(0.015625)"/>
      <path id="DejaVuSans-6e" d="M 3513 2113 
L 3513 0 
L 2938 0 
L 2938 2094 
Q 2938 2591 2744 2837 
Q 2550 3084 2163 3084 
Q 1697 3084 1428 2787 
Q 1159 2491 1159 1978 
L 1159 0 
L 581 0 
L 581 3500 
L 1159 3500 
L 1159 2956 
Q 1366 3272 1645 3428 
Q 1925 3584 2291 3584 
Q 2894 3584 3203 3211 
Q 3513 2838 3513 2113 
z
" transform="scale(0.015625)"/>
      <path id="DejaVuSans-6c" d="M 603 4863 
L 1178 4863 
L 1178 0 
L 603 0 
L 603 4863 
z
" transform="scale(0.015625)"/>
      <path id="DejaVuSans-66" d="M 2375 4863 
L 2375 4384 
L 1825 4384 
Q 1516 4384 1395 4259 
Q 1275 4134 1275 3809 
L 1275 3500 
L 2222 3500 
L 2222 3053 
L 1275 3053 
L 1275 0 
L 697 0 
L 697 3053 
L 147 3053 
L 147 3500 
L 697 3500 
L 697 3744 
Q 697 4328 969 4595 
Q 1241 4863 1831 4863 
L 2375 4863 
z
" transform="scale(0.015625)"/>
      <path id="DejaVuSans-6d" d="M 3328 2828 
Q 3544 3216 3844 3400 
Q 4144 3584 4550 3584 
Q 5097 3584 5394 3201 
Q 5691 2819 5691 2113 
L 5691 0 
L 5113 0 
L 5113 2094 
Q 5113 2597 4934 2840 
Q 4756 3084 4391 3084 
Q 3944 3084 3684 2787 
Q 3425 2491 3425 1978 
L 3425 0 
L 2847 0 
L 2847 2094 
Q 2847 2600 2669 2842 
Q 2491 3084 2119 3084 
Q 1678 3084 1418 2786 
Q 1159 2488 1159 1978 
L 1159 0 
L 581 0 
L 581 3500 
L 1159 3500 
L 1159 2956 
Q 1356 3278 1631 3431 
Q 1906 3584 2284 3584 
Q 2666 3584 2933 3390 
Q 3200 3197 3328 2828 
z
" transform="scale(0.015625)"/>
     </defs>
     <use xlink:href="#DejaVuSans-74"/>
     <use xlink:href="#DejaVuSans-72" transform="translate(39.208984 0)"/>
     <use xlink:href="#DejaVuSans-61" transform="translate(80.322266 0)"/>
     <use xlink:href="#DejaVuSans-6a" transform="translate(141.601562 0)"/>
     <use xlink:href="#DejaVuSans-65" transform="translate(169.384766 0)"/>
     <use xlink:href="#DejaVuSans-63" transform="translate(230.908203 0)"/>
     <use xlink:href="#DejaVuSans-74" transform="translate(285.888672 0)"/>
     <use xlink:href="#DejaVuSans-6f" transform="translate(325.097656 0)"/>
     <use xlink:href="#DejaVuSans-72" transform="translate(386.279297 0)"/>
     <use xlink:href="#DejaVuSans-79" transform="translate(427.392578 0)"/>
     <use xlink:href="#DejaVuSans-20" transform="translate(486.572266 0)"/>
     <use xlink:href="#DejaVuSans-69" transform="translate(518.359375 0)"/>
     <use xlink:href="#DejaVuSans-6e" transform="translate(546.142578 0)"/>
     <use xlink:href="#DejaVuSans-20" transform="translate(609.521484 0)"/>
     <use xlink:href="#DejaVuSans-69" transform="translate(641.308594 0)"/>
     <use xlink:href="#DejaVuSans-6e" transform="translate(669.091797 0)"/>
     <use xlink:href="#DejaVuSans-65" transform="translate(732.470703 0)"/>
     <use xlink:href="#DejaVuSans-72" transform="translate(793.994141 0)"/>
     <use xlink:href="#DejaVuSans-74" transform="translate(835.107422 0)"/>
     <use xlink:href="#DejaVuSans-69" transform="translate(874.316406 0)"/>
     <use xlink:href="#DejaVuSans-61" transform="translate(902.099609 0)"/>
     <use xlink:href="#DejaVuSans-6c" transform="translate(963.378906 0)"/>
     <use xlink:href="#DejaVuSans-20" transform="translate(991.162109 0)"/>
     <use xlink:href="#DejaVuSans-66" transform="translate(1022.949219 0)"/>
     <use xlink:href="#DejaVuSans-72" transform="translate(1058.154297 0)"/>
     <use xlink:href="#DejaVuSans-61" transform="translate(1099.267578 0)"/>
     <use xlink:href="#DejaVuSans-6d" transform="translate(1160.546875 0)"/>
     <use xlink:href="#DejaVuSans-65" transform="translate(1257.958984 0)"/>
    </g>
   </g>
   <g id="patch_9">
    <path d="M 140.337739 220.684543 
L 142.123387 224.200325 
L 140.395213 224.211206 
L 140.570186 252.002133 
L 140.499648 252.002577 
L 140.324676 224.21165 
L 138.596502 224.222531 
z
" clip-path="url(#p275025c408)" style="fill: #ff7f0e; opacity: 0.5; stroke: #ff7f0e; stroke-linejoin: miter"/>
   </g>
   <g id="patch_10">
    <path d="M 140.091707 202.768846 
L 142.20788 209.822756 
L 140.126976 209.822756 
L 140.126976 252.146218 
L 140.056437 252.146218 
L 140.056437 209.822756 
L 137.975534 209.822756 
z
" clip-path="url(#p275025c408)" style="fill: #ff7f0e; opacity: 0.5; stroke: #ff7f0e; stroke-linejoin: miter"/>
   </g>
   <g id="patch_11">
    <path d="M 152.310707 214.496519 
L 155.192084 217.188531 
L 153.572066 217.790397 
L 162.34378 241.400877 
L 162.277657 241.425443 
L 153.505942 217.814963 
L 151.885924 218.416828 
z
" clip-path="url(#p275025c408)" style="fill: #2ca02c; opacity: 0.5; stroke: #2ca02c; stroke-linejoin: miter"/>
   </g>
   <g id="patch_12">
    <path d="M 140.091707 202.768846 
L 142.20788 209.822756 
L 140.126976 209.822756 
L 140.126976 252.146218 
L 140.056437 252.146218 
L 140.056437 209.822756 
L 137.975534 209.822756 
z
" clip-path="url(#p275025c408)" style="fill: #ff7f0e; opacity: 0.5; stroke: #ff7f0e; stroke-linejoin: miter"/>
   </g>
   <g id="patch_13">
    <path d="M 162.95338 205.31216 
L 166.671087 206.626663 
L 165.427131 207.826362 
L 181.936948 224.94523 
L 181.886174 224.994197 
L 165.376357 207.875329 
L 164.132401 209.075028 
z
" clip-path="url(#p275025c408)" style="fill: #d62728; opacity: 0.5; stroke: #d62728; stroke-linejoin: miter"/>
   </g>
   <g id="patch_14">
    <path d="M 140.091707 202.768846 
L 142.20788 209.822756 
L 140.126976 209.822756 
L 140.126976 252.146218 
L 140.056437 252.146218 
L 140.056437 209.822756 
L 137.975534 209.822756 
z
" clip-path="url(#p275025c408)" style="fill: #ff7f0e; opacity: 0.5; stroke: #ff7f0e; stroke-linejoin: miter"/>
   </g>
   <g id="patch_15">
    <path d="M 171.507225 194.032857 
L 175.435567 193.69022 
L 174.799926 195.297287 
L 197.431743 204.248822 
L 197.405799 204.314417 
L 174.773981 195.362881 
L 174.13834 196.969948 
z
" clip-path="url(#p275025c408)" style="fill: #9467bd; opacity: 0.5; stroke: #9467bd; stroke-linejoin: miter"/>
   </g>
   <g id="patch_16">
    <path d="M 140.091707 202.768846 
L 142.20788 209.822756 
L 140.126976 209.822756 
L 140.126976 252.146218 
L 140.056437 252.146218 
L 140.056437 209.822756 
L 137.975534 209.822756 
z
" clip-path="url(#p275025c408)" style="fill: #ff7f0e; opacity: 0.5; stroke: #ff7f0e; stroke-linejoin: miter"/>
   </g>
   <g id="patch_17">
    <path d="M 177.249005 181.47825 
L 180.769823 179.702551 
L 180.775817 181.430749 
L 207.314268 181.338711 
L 207.314513 181.40925 
L 180.776061 181.501287 
L 180.782055 183.229485 
z
" clip-path="url(#p275025c408)" style="fill: #1f77b4; opacity: 0.5; stroke: #1f77b4; stroke-linejoin: miter"/>
   </g>
   <g id="patch_18">
    <path d="M 140.091707 202.768846 
L 142.20788 209.822756 
L 140.126976 209.822756 
L 140.126976 252.146218 
L 140.056437 252.146218 
L 140.056437 209.822756 
L 137.975534 209.822756 
z
" clip-path="url(#p275025c408)" style="fill: #ff7f0e; opacity: 0.5; stroke: #ff7f0e; stroke-linejoin: miter"/>
   </g>
   <g id="patch_19">
    <path d="M 179.430908 168.714191 
L 182.233242 165.93999 
L 182.771471 167.582248 
L 210.61878 158.455646 
L 210.640748 158.522677 
L 182.79344 167.649279 
L 183.331669 169.291538 
z
" clip-path="url(#p275025c408)" style="fill: #ff7f0e; opacity: 0.5; stroke: #ff7f0e; stroke-linejoin: miter"/>
   </g>
   <g id="patch_20">
    <path d="M 140.091707 202.768846 
L 142.20788 209.822756 
L 140.126976 209.822756 
L 140.126976 252.146218 
L 140.056437 252.146218 
L 140.056437 209.822756 
L 137.975534 209.822756 
z
" clip-path="url(#p275025c408)" style="fill: #ff7f0e; opacity: 0.5; stroke: #ff7f0e; stroke-linejoin: miter"/>
   </g>
   <g id="patch_21">
    <path d="M 177.657443 157.064149 
L 179.645558 153.658762 
L 180.5908 155.105559 
L 207.021068 137.837771 
L 207.059649 137.896824 
L 180.629381 155.164612 
L 181.574622 156.611409 
z
" clip-path="url(#p275025c408)" style="fill: #2ca02c; opacity: 0.5; stroke: #2ca02c; stroke-linejoin: miter"/>
   </g>
   <g id="patch_22">
    <path d="M 140.091707 202.768846 
L 142.20788 209.822756 
L 140.126976 209.822756 
L 140.126976 252.146218 
L 140.056437 252.146218 
L 140.056437 209.822756 
L 137.975534 209.822756 
z
" clip-path="url(#p275025c408)" style="fill: #ff7f0e; opacity: 0.5; stroke: #ff7f0e; stroke-linejoin: miter"/>
   </g>
   <g id="patch_23">
    <path d="M 172.048369 147.808472 
L 173.190095 144.034121 
L 174.445863 145.22145 
L 196.871903 121.502773 
L 196.923159 121.551236 
L 174.497119 145.269913 
L 175.752886 146.457242 
z
" clip-path="url(#p275025c408)" style="fill: #d62728; opacity: 0.5; stroke: #d62728; stroke-linejoin: miter"/>
   </g>
   <g id="patch_24">
    <path d="M 140.091707 202.768846 
L 142.20788 209.822756 
L 140.126976 209.822756 
L 140.126976 252.146218 
L 140.056437 252.146218 
L 140.056437 209.822756 
L 137.975534 209.822756 
z
" clip-path="url(#p275025c408)" style="fill: #ff7f0e; opacity: 0.5; stroke: #ff7f0e; stroke-linejoin: miter"/>
   </g>
   <g id="patch_25">
    <path d="M 163.191884 141.962965 
L 163.443865 138.027768 
L 164.937074 138.897843 
L 181.163662 111.050034 
L 181.224609 111.085547 
L 164.998021 138.933356 
L 166.49123 139.803431 
z
" clip-path="url(#p275025c408)" style="fill: #9467bd; opacity: 0.5; stroke: #9467bd; stroke-linejoin: miter"/>
   </g>
   <g id="patch_26">
    <path d="M 140.091707 202.768846 
L 142.20788 209.822756 
L 140.126976 209.822756 
L 140.126976 252.146218 
L 140.056437 252.146218 
L 140.056437 209.822756 
L 137.975534 209.822756 
z
" clip-path="url(#p275025c408)" style="fill: #ff7f0e; opacity: 0.5; stroke: #ff7f0e; stroke-linejoin: miter"/>
   </g>
   <g id="patch_27">
    <path d="M 152.050938 140.153227 
L 151.334199 136.275656 
L 152.994688 136.754698 
L 161.433447 107.503704 
L 161.501222 107.523257 
L 153.062463 136.774251 
L 154.722951 137.253293 
z
" clip-path="url(#p275025c408)" style="fill: #1f77b4; opacity: 0.5; stroke: #1f77b4; stroke-linejoin: miter"/>
   </g>
   <g id="patch_28">
    <path d="M 140.091707 202.768846 
L 142.20788 209.822756 
L 140.126976 209.822756 
L 140.126976 252.146218 
L 140.056437 252.146218 
L 140.056437 209.822756 
L 137.975534 209.822756 
z
" clip-path="url(#p275025c408)" style="fill: #ff7f0e; opacity: 0.5; stroke: #ff7f0e; stroke-linejoin: miter"/>
   </g>
  </g>
  <g id="axes_2">
   <g id="patch_29">
    <path d="M 291.135216 260.963606 
L 449.848197 260.963606 
L 449.848197 102.250624 
L 291.135216 102.250624 
z
" style="fill: #ffffff"/>
   </g>
   <g id="matplotlib.axis_3">
    <g id="xtick_8">
     <g id="line2d_47">
      <g>
       <use xlink:href="#mfcb6ef2ca5" x="291.135216" y="260.963606" style="stroke: #000000; stroke-width: 0.8"/>
      </g>
     </g>
     <g id="text_27">
      <!-- −0.4 -->
      <g transform="translate(278.99381 275.562043) scale(0.1 -0.1)">
       <use xlink:href="#DejaVuSans-2212"/>
       <use xlink:href="#DejaVuSans-30" transform="translate(83.789062 0)"/>
       <use xlink:href="#DejaVuSans-2e" transform="translate(147.412109 0)"/>
       <use xlink:href="#DejaVuSans-34" transform="translate(179.199219 0)"/>
      </g>
     </g>
    </g>
    <g id="xtick_9">
     <g id="line2d_48">
      <g>
       <use xlink:href="#mfcb6ef2ca5" x="330.813461" y="260.963606" style="stroke: #000000; stroke-width: 0.8"/>
      </g>
     </g>
     <g id="text_28">
      <!-- −0.2 -->
      <g transform="translate(318.672055 275.562043) scale(0.1 -0.1)">
       <use xlink:href="#DejaVuSans-2212"/>
       <use xlink:href="#DejaVuSans-30" transform="translate(83.789062 0)"/>
       <use xlink:href="#DejaVuSans-2e" transform="translate(147.412109 0)"/>
       <use xlink:href="#DejaVuSans-32" transform="translate(179.199219 0)"/>
      </g>
     </g>
    </g>
    <g id="xtick_10">
     <g id="line2d_49">
      <g>
       <use xlink:href="#mfcb6ef2ca5" x="370.491707" y="260.963606" style="stroke: #000000; stroke-width: 0.8"/>
      </g>
     </g>
     <g id="text_29">
      <!-- 0.0 -->
      <g transform="translate(362.540144 275.562043) scale(0.1 -0.1)">
       <use xlink:href="#DejaVuSans-30"/>
       <use xlink:href="#DejaVuSans-2e" transform="translate(63.623047 0)"/>
       <use xlink:href="#DejaVuSans-30" transform="translate(95.410156 0)"/>
      </g>
     </g>
    </g>
    <g id="xtick_11">
     <g id="line2d_50">
      <g>
       <use xlink:href="#mfcb6ef2ca5" x="410.169952" y="260.963606" style="stroke: #000000; stroke-width: 0.8"/>
      </g>
     </g>
     <g id="text_30">
      <!-- 0.2 -->
      <g transform="translate(402.21839 275.562043) scale(0.1 -0.1)">
       <use xlink:href="#DejaVuSans-30"/>
       <use xlink:href="#DejaVuSans-2e" transform="translate(63.623047 0)"/>
       <use xlink:href="#DejaVuSans-32" transform="translate(95.410156 0)"/>
      </g>
     </g>
    </g>
    <g id="xtick_12">
     <g id="line2d_51">
      <g>
       <use xlink:href="#mfcb6ef2ca5" x="449.848197" y="260.963606" style="stroke: #000000; stroke-width: 0.8"/>
      </g>
     </g>
     <g id="text_31">
      <!-- 0.4 -->
      <g transform="translate(441.896635 275.562043) scale(0.1 -0.1)">
       <use xlink:href="#DejaVuSans-30"/>
       <use xlink:href="#DejaVuSans-2e" transform="translate(63.623047 0)"/>
       <use xlink:href="#DejaVuSans-34" transform="translate(95.410156 0)"/>
      </g>
     </g>
    </g>
   </g>
   <g id="matplotlib.axis_4">
    <g id="ytick_8">
     <g id="line2d_52">
      <g>
       <use xlink:href="#m885cdb4e3a" x="291.135216" y="260.963606" style="stroke: #000000; stroke-width: 0.8"/>
      </g>
     </g>
     <g id="text_32">
      <!-- −0.4 -->
      <g transform="translate(259.852404 264.762824) scale(0.1 -0.1)">
       <use xlink:href="#DejaVuSans-2212"/>
       <use xlink:href="#DejaVuSans-30" transform="translate(83.789062 0)"/>
       <use xlink:href="#DejaVuSans-2e" transform="translate(147.412109 0)"/>
       <use xlink:href="#DejaVuSans-34" transform="translate(179.199219 0)"/>
      </g>
     </g>
    </g>
    <g id="ytick_9">
     <g id="line2d_53">
      <g>
       <use xlink:href="#m885cdb4e3a" x="291.135216" y="221.28536" style="stroke: #000000; stroke-width: 0.8"/>
      </g>
     </g>
     <g id="text_33">
      <!-- −0.2 -->
      <g transform="translate(259.852404 225.084579) scale(0.1 -0.1)">
       <use xlink:href="#DejaVuSans-2212"/>
       <use xlink:href="#DejaVuSans-30" transform="translate(83.789062 0)"/>
       <use xlink:href="#DejaVuSans-2e" transform="translate(147.412109 0)"/>
       <use xlink:href="#DejaVuSans-32" transform="translate(179.199219 0)"/>
      </g>
     </g>
    </g>
    <g id="ytick_10">
     <g id="line2d_54">
      <g>
       <use xlink:href="#m885cdb4e3a" x="291.135216" y="181.607115" style="stroke: #000000; stroke-width: 0.8"/>
      </g>
     </g>
     <g id="text_34">
      <!-- 0.0 -->
      <g transform="translate(268.232091 185.406334) scale(0.1 -0.1)">
       <use xlink:href="#DejaVuSans-30"/>
       <use xlink:href="#DejaVuSans-2e" transform="translate(63.623047 0)"/>
       <use xlink:href="#DejaVuSans-30" transform="translate(95.410156 0)"/>
      </g>
     </g>
    </g>
    <g id="ytick_11">
     <g id="line2d_55">
      <g>
       <use xlink:href="#m885cdb4e3a" x="291.135216" y="141.92887" style="stroke: #000000; stroke-width: 0.8"/>
      </g>
     </g>
     <g id="text_35">
      <!-- 0.2 -->
      <g transform="translate(268.232091 145.728088) scale(0.1 -0.1)">
       <use xlink:href="#DejaVuSans-30"/>
       <use xlink:href="#DejaVuSans-2e" transform="translate(63.623047 0)"/>
       <use xlink:href="#DejaVuSans-32" transform="translate(95.410156 0)"/>
      </g>
     </g>
    </g>
    <g id="ytick_12">
     <g id="line2d_56">
      <g>
       <use xlink:href="#m885cdb4e3a" x="291.135216" y="102.250624" style="stroke: #000000; stroke-width: 0.8"/>
      </g>
     </g>
     <g id="text_36">
      <!-- 0.4 -->
      <g transform="translate(268.232091 106.049843) scale(0.1 -0.1)">
       <use xlink:href="#DejaVuSans-30"/>
       <use xlink:href="#DejaVuSans-2e" transform="translate(63.623047 0)"/>
       <use xlink:href="#DejaVuSans-34" transform="translate(95.410156 0)"/>
      </g>
     </g>
    </g>
   </g>
   <g id="line2d_57">
    <path d="M 370.491707 181.210333 
L 370.631215 178.437239 
L 371.013804 175.687124 
L 371.636514 172.981253 
L 372.49453 170.340549 
L 373.581219 167.785434 
L 374.888175 165.335664 
L 376.405293 163.010184 
L 378.120842 160.826976 
L 380.021555 158.802922 
L 382.092735 156.953675 
L 384.318366 155.293532 
L 386.681236 153.835333 
L 389.163075 152.590353 
L 391.744692 151.56822 
L 394.406122 150.776837 
L 397.126786 150.222323 
L 399.885645 149.908967 
L 402.661366 149.839192 
L 405.432485 150.013538 
L 408.177572 150.430656 
L 410.875402 151.08732 
L 413.505112 151.978453 
L 416.046366 153.097164 
L 418.479515 154.434802 
L 420.785743 155.981024 
L 422.947217 157.723872 
L 424.947221 159.649869 
L 426.770292 161.744124 
L 428.40233 163.990439 
L 429.830717 166.371447 
L 431.044406 168.868734 
L 432.034012 171.462989 
L 432.791884 174.134153 
L 433.31216 176.861568 
L 433.590817 179.624146 
L 433.6257 182.400522 
L 433.416541 185.169228 
L 432.964955 187.908855 
L 432.274436 190.598216 
L 431.350323 193.216517 
L 430.199761 195.743509 
L 428.831648 198.159653 
L 427.256563 200.446265 
L 425.486686 202.585662 
L 423.535704 204.561302 
L 421.418701 206.357907 
L 419.15205 207.961584 
L 416.753278 209.359933 
L 414.240933 210.542139 
L 411.634443 211.499062 
L 408.953964 212.223302 
L 406.220223 212.709258 
L 403.454359 212.953173 
L 400.677762 212.95316 
L 397.9119 212.709219 
L 395.178163 212.223237 
L 392.49769 211.498972 
L 389.891207 210.542024 
L 387.378871 209.359794 
L 384.98011 207.961422 
L 382.713471 206.357723 
L 380.596483 204.561097 
L 378.645515 202.585437 
L 376.875655 200.446021 
L 375.300588 198.159393 
L 373.932494 195.743234 
L 372.781952 193.216228 
L 371.857859 190.597916 
L 371.16736 187.908544 
L 370.715796 185.16891 
L 370.506658 182.400197 
L 370.541563 179.623816 
L 370.820242 176.861237 
L 371.340539 174.133821 
L 372.098431 171.462659 
L 373.088057 168.868406 
L 374.301766 166.371124 
L 375.730171 163.990123 
L 377.362227 161.743815 
L 379.185314 159.649571 
L 381.185333 157.723584 
L 383.34682 155.980748 
L 385.65306 154.43454 
L 388.086219 153.096916 
L 390.627483 151.97822 
L 393.257199 151.087103 
L 395.955034 150.430455 
L 398.700125 150.013354 
L 401.471245 149.839026 
L 404.246965 149.908818 
L 407.005822 150.22219 
L 409.726482 150.77672 
L 412.387906 151.56812 
L 414.969514 152.590269 
L 417.451344 153.835263 
L 419.814203 155.293476 
L 422.03982 156.953631 
L 424.110986 158.80289 
L 426.011683 160.826954 
L 427.727215 163.010171 
L 429.244316 165.335658 
L 430.551253 167.785433 
L 431.637921 170.340553 
L 432.495917 172.981258 
L 433.118607 175.68713 
L 433.501174 178.437244 
L 433.640661 181.210333 
L 433.535989 183.984955 
L 433.187967 186.739653 
L 432.599287 189.453127 
L 431.774501 192.104393 
L 430.719986 194.672949 
L 429.443898 197.138934 
L 427.956103 199.483279 
L 426.268107 201.687855 
L 424.392962 203.735614 
L 422.345169 205.610722 
L 420.140562 207.298679 
L 417.796191 208.786432 
L 415.330182 210.062477 
L 412.761605 211.116946 
L 410.110323 211.941685 
L 407.396838 212.530317 
L 404.642131 212.87829 
L 401.867505 212.982913 
L 399.094416 212.843378 
L 396.344306 212.460762 
L 393.638443 211.838025 
L 390.997749 210.979982 
L 388.442646 209.893269 
L 385.99289 208.586288 
L 383.667426 207.069146 
L 381.484236 205.353575 
L 379.460202 203.452841 
L 377.610975 201.381643 
L 375.950855 199.155995 
L 374.49268 196.793109 
L 373.247724 194.311256 
L 372.225617 191.729628 
L 371.43426 189.068188 
L 370.879773 186.347517 
L 370.566444 183.588653 
L 370.491703 181.606462 
L 370.491703 181.606462 
" clip-path="url(#p203635b5da)" style="fill: none; stroke: #ff7f0e; stroke-opacity: 0.5; stroke-width: 1.5; stroke-linecap: square"/>
   </g>
   <g id="line2d_58">
    <defs>
     <path id="m3526f01028" d="M 0 -5 
L -5 5 
L 5 5 
z
" style="stroke: #ff7f0e; stroke-linejoin: miter"/>
    </defs>
    <g clip-path="url(#p203635b5da)">
     <use xlink:href="#m3526f01028" x="370.491707" y="181.607115" style="fill: #ff7f0e; stroke: #ff7f0e; stroke-linejoin: miter"/>
    </g>
   </g>
   <g id="line2d_59">
    <defs>
     <path id="mf49336607c" d="M 0 3 
C 0.795609 3 1.55874 2.683901 2.12132 2.12132 
C 2.683901 1.55874 3 0.795609 3 0 
C 3 -0.795609 2.683901 -1.55874 2.12132 -2.12132 
C 1.55874 -2.683901 0.795609 -3 0 -3 
C -0.795609 -3 -1.55874 -2.683901 -2.12132 -2.12132 
C -2.683901 -1.55874 -3 -0.795609 -3 0 
C -3 0.795609 -2.683901 1.55874 -2.12132 2.12132 
C -1.55874 2.683901 -0.795609 3 0 3 
z
" style="stroke: #ff7f0e"/>
    </defs>
    <g clip-path="url(#p203635b5da)">
     <use xlink:href="#mf49336607c" x="370.491707" y="181.210006" style="fill: #ff7f0e; stroke: #ff7f0e"/>
    </g>
   </g>
   <g id="line2d_60">
    <defs>
     <path id="m44ba388540" d="M 0 3 
C 0.795609 3 1.55874 2.683901 2.12132 2.12132 
C 2.683901 1.55874 3 0.795609 3 0 
C 3 -0.795609 2.683901 -1.55874 2.12132 -2.12132 
C 1.55874 -2.683901 0.795609 -3 0 -3 
C -0.795609 -3 -1.55874 -2.683901 -2.12132 -2.12132 
C -2.683901 -1.55874 -3 -0.795609 -3 0 
C -3 0.795609 -2.683901 1.55874 -2.12132 2.12132 
C -1.55874 2.683901 -0.795609 3 0 3 
z
" style="stroke: #2ca02c"/>
    </defs>
    <g clip-path="url(#p203635b5da)">
     <use xlink:href="#m44ba388540" x="376.638612" y="162.688886" style="fill: #2ca02c; stroke: #2ca02c"/>
    </g>
   </g>
   <g id="line2d_61">
    <defs>
     <path id="mfed2ae96c3" d="M 0 3 
C 0.795609 3 1.55874 2.683901 2.12132 2.12132 
C 2.683901 1.55874 3 0.795609 3 0 
C 3 -0.795609 2.683901 -1.55874 2.12132 -2.12132 
C 1.55874 -2.683901 0.795609 -3 0 -3 
C -0.795609 -3 -1.55874 -2.683901 -2.12132 -2.12132 
C -2.683901 -1.55874 -3 -0.795609 -3 0 
C -3 0.795609 -2.683901 1.55874 -2.12132 2.12132 
C -1.55874 2.683901 -0.795609 3 0 3 
z
" style="stroke: #d62728"/>
    </defs>
    <g clip-path="url(#p203635b5da)">
     <use xlink:href="#mfed2ae96c3" x="392.498" y="151.31805" style="fill: #d62728; stroke: #d62728"/>
    </g>
   </g>
   <g id="line2d_62">
    <defs>
     <path id="mcb0a8dd195" d="M 0 3 
C 0.795609 3 1.55874 2.683901 2.12132 2.12132 
C 2.683901 1.55874 3 0.795609 3 0 
C 3 -0.795609 2.683901 -1.55874 2.12132 -2.12132 
C 1.55874 -2.683901 0.795609 -3 0 -3 
C -0.795609 -3 -1.55874 -2.683901 -2.12132 -2.12132 
C -2.683901 -1.55874 -3 -0.795609 -3 0 
C -3 0.795609 -2.683901 1.55874 -2.12132 2.12132 
C -1.55874 2.683901 -0.795609 3 0 3 
z
" style="stroke: #9467bd"/>
    </defs>
    <g clip-path="url(#p203635b5da)">
     <use xlink:href="#mcb0a8dd195" x="412.012115" y="151.440773" style="fill: #9467bd; stroke: #9467bd"/>
    </g>
   </g>
   <g id="line2d_63">
    <defs>
     <path id="m69ed14ed5b" d="M 0 3 
C 0.795609 3 1.55874 2.683901 2.12132 2.12132 
C 2.683901 1.55874 3 0.795609 3 0 
C 3 -0.795609 2.683901 -1.55874 2.12132 -2.12132 
C 1.55874 -2.683901 0.795609 -3 0 -3 
C -0.795609 -3 -1.55874 -2.683901 -2.12132 -2.12132 
C -2.683901 -1.55874 -3 -0.795609 -3 0 
C -3 0.795609 -2.683901 1.55874 -2.12132 2.12132 
C -1.55874 2.683901 -0.795609 3 0 3 
z
" style="stroke: #1f77b4"/>
    </defs>
    <g clip-path="url(#p203635b5da)">
     <use xlink:href="#m69ed14ed5b" x="427.727215" y="163.010171" style="fill: #1f77b4; stroke: #1f77b4"/>
    </g>
   </g>
   <g id="line2d_64">
    <g clip-path="url(#p203635b5da)">
     <use xlink:href="#mf49336607c" x="433.640658" y="181.607115" style="fill: #ff7f0e; stroke: #ff7f0e"/>
    </g>
   </g>
   <g id="line2d_65">
    <g clip-path="url(#p203635b5da)">
     <use xlink:href="#m44ba388540" x="427.493704" y="200.128187" style="fill: #2ca02c; stroke: #2ca02c"/>
    </g>
   </g>
   <g id="line2d_66">
    <g clip-path="url(#p203635b5da)">
     <use xlink:href="#mfed2ae96c3" x="411.634286" y="211.498949" style="fill: #d62728; stroke: #d62728"/>
    </g>
   </g>
   <g id="line2d_67">
    <g clip-path="url(#p203635b5da)">
     <use xlink:href="#mcb0a8dd195" x="392.120172" y="211.376143" style="fill: #9467bd; stroke: #9467bd"/>
    </g>
   </g>
   <g id="line2d_68">
    <g clip-path="url(#p203635b5da)">
     <use xlink:href="#m69ed14ed5b" x="376.405101" y="199.806672" style="fill: #1f77b4; stroke: #1f77b4"/>
    </g>
   </g>
   <g id="patch_30">
    <path d="M 291.135216 260.963606 
L 291.135216 102.250624 
" style="fill: none; stroke: #000000; stroke-width: 0.8; stroke-linejoin: miter; stroke-linecap: square"/>
   </g>
   <g id="patch_31">
    <path d="M 449.848197 260.963606 
L 449.848197 102.250624 
" style="fill: none; stroke: #000000; stroke-width: 0.8; stroke-linejoin: miter; stroke-linecap: square"/>
   </g>
   <g id="patch_32">
    <path d="M 291.135216 260.963606 
L 449.848197 260.963606 
" style="fill: none; stroke: #000000; stroke-width: 0.8; stroke-linejoin: miter; stroke-linecap: square"/>
   </g>
   <g id="patch_33">
    <path d="M 291.135216 102.250624 
L 449.848197 102.250624 
" style="fill: none; stroke: #000000; stroke-width: 0.8; stroke-linejoin: miter; stroke-linecap: square"/>
   </g>
   <g id="text_37">
    <!--  1 -->
    <g style="fill: #ff7f0e" transform="translate(370.491707 181.210006) scale(0.1 -0.1)">
     <use xlink:href="#DejaVuSans-20"/>
     <use xlink:href="#DejaVuSans-31" transform="translate(31.787109 0)"/>
    </g>
   </g>
   <g id="text_38">
    <!--  2 -->
    <g style="fill: #2ca02c" transform="translate(376.638612 162.688886) scale(0.1 -0.1)">
     <use xlink:href="#DejaVuSans-20"/>
     <use xlink:href="#DejaVuSans-32" transform="translate(31.787109 0)"/>
    </g>
   </g>
   <g id="text_39">
    <!--  3 -->
    <g style="fill: #d62728" transform="translate(392.498 151.31805) scale(0.1 -0.1)">
     <use xlink:href="#DejaVuSans-20"/>
     <use xlink:href="#DejaVuSans-33" transform="translate(31.787109 0)"/>
    </g>
   </g>
   <g id="text_40">
    <!--  4 -->
    <g style="fill: #9467bd" transform="translate(412.012115 151.440773) scale(0.1 -0.1)">
     <use xlink:href="#DejaVuSans-20"/>
     <use xlink:href="#DejaVuSans-34" transform="translate(31.787109 0)"/>
    </g>
   </g>
   <g id="text_41">
    <!--  5 -->
    <g style="fill: #1f77b4" transform="translate(427.727215 163.010171) scale(0.1 -0.1)">
     <use xlink:href="#DejaVuSans-20"/>
     <use xlink:href="#DejaVuSans-35" transform="translate(31.787109 0)"/>
    </g>
   </g>
   <g id="text_42">
    <!--  6 -->
    <g style="fill: #ff7f0e" transform="translate(433.640658 181.607115) scale(0.1 -0.1)">
     <use xlink:href="#DejaVuSans-20"/>
     <use xlink:href="#DejaVuSans-36" transform="translate(31.787109 0)"/>
    </g>
   </g>
   <g id="text_43">
    <!--  7 -->
    <g style="fill: #2ca02c" transform="translate(427.493704 200.128187) scale(0.1 -0.1)">
     <use xlink:href="#DejaVuSans-20"/>
     <use xlink:href="#DejaVuSans-37" transform="translate(31.787109 0)"/>
    </g>
   </g>
   <g id="text_44">
    <!--  8 -->
    <g style="fill: #d62728" transform="translate(411.634286 211.498949) scale(0.1 -0.1)">
     <use xlink:href="#DejaVuSans-20"/>
     <use xlink:href="#DejaVuSans-38" transform="translate(31.787109 0)"/>
    </g>
   </g>
   <g id="text_45">
    <!--  9 -->
    <g style="fill: #9467bd" transform="translate(392.120172 211.376143) scale(0.1 -0.1)">
     <use xlink:href="#DejaVuSans-20"/>
     <use xlink:href="#DejaVuSans-39" transform="translate(31.787109 0)"/>
    </g>
   </g>
   <g id="text_46">
    <!--  10 -->
    <g style="fill: #1f77b4" transform="translate(376.405101 199.806672) scale(0.1 -0.1)">
     <use xlink:href="#DejaVuSans-20"/>
     <use xlink:href="#DejaVuSans-31" transform="translate(31.787109 0)"/>
     <use xlink:href="#DejaVuSans-30" transform="translate(95.410156 0)"/>
    </g>
   </g>
   <g id="text_47">
    <!-- trajectory in rotating frame -->
    <g transform="translate(288.652644 96.250624) scale(0.12 -0.12)">
     <defs>
      <path id="DejaVuSans-67" d="M 2906 1791 
Q 2906 2416 2648 2759 
Q 2391 3103 1925 3103 
Q 1463 3103 1205 2759 
Q 947 2416 947 1791 
Q 947 1169 1205 825 
Q 1463 481 1925 481 
Q 2391 481 2648 825 
Q 2906 1169 2906 1791 
z
M 3481 434 
Q 3481 -459 3084 -895 
Q 2688 -1331 1869 -1331 
Q 1566 -1331 1297 -1286 
Q 1028 -1241 775 -1147 
L 775 -588 
Q 1028 -725 1275 -790 
Q 1522 -856 1778 -856 
Q 2344 -856 2625 -561 
Q 2906 -266 2906 331 
L 2906 616 
Q 2728 306 2450 153 
Q 2172 0 1784 0 
Q 1141 0 747 490 
Q 353 981 353 1791 
Q 353 2603 747 3093 
Q 1141 3584 1784 3584 
Q 2172 3584 2450 3431 
Q 2728 3278 2906 2969 
L 2906 3500 
L 3481 3500 
L 3481 434 
z
" transform="scale(0.015625)"/>
     </defs>
     <use xlink:href="#DejaVuSans-74"/>
     <use xlink:href="#DejaVuSans-72" transform="translate(39.208984 0)"/>
     <use xlink:href="#DejaVuSans-61" transform="translate(80.322266 0)"/>
     <use xlink:href="#DejaVuSans-6a" transform="translate(141.601562 0)"/>
     <use xlink:href="#DejaVuSans-65" transform="translate(169.384766 0)"/>
     <use xlink:href="#DejaVuSans-63" transform="translate(230.908203 0)"/>
     <use xlink:href="#DejaVuSans-74" transform="translate(285.888672 0)"/>
     <use xlink:href="#DejaVuSans-6f" transform="translate(325.097656 0)"/>
     <use xlink:href="#DejaVuSans-72" transform="translate(386.279297 0)"/>
     <use xlink:href="#DejaVuSans-79" transform="translate(427.392578 0)"/>
     <use xlink:href="#DejaVuSans-20" transform="translate(486.572266 0)"/>
     <use xlink:href="#DejaVuSans-69" transform="translate(518.359375 0)"/>
     <use xlink:href="#DejaVuSans-6e" transform="translate(546.142578 0)"/>
     <use xlink:href="#DejaVuSans-20" transform="translate(609.521484 0)"/>
     <use xlink:href="#DejaVuSans-72" transform="translate(641.308594 0)"/>
     <use xlink:href="#DejaVuSans-6f" transform="translate(680.171875 0)"/>
     <use xlink:href="#DejaVuSans-74" transform="translate(741.353516 0)"/>
     <use xlink:href="#DejaVuSans-61" transform="translate(780.5625 0)"/>
     <use xlink:href="#DejaVuSans-74" transform="translate(841.841797 0)"/>
     <use xlink:href="#DejaVuSans-69" transform="translate(881.050781 0)"/>
     <use xlink:href="#DejaVuSans-6e" transform="translate(908.833984 0)"/>
     <use xlink:href="#DejaVuSans-67" transform="translate(972.212891 0)"/>
     <use xlink:href="#DejaVuSans-20" transform="translate(1035.689453 0)"/>
     <use xlink:href="#DejaVuSans-66" transform="translate(1067.476562 0)"/>
     <use xlink:href="#DejaVuSans-72" transform="translate(1102.681641 0)"/>
     <use xlink:href="#DejaVuSans-61" transform="translate(1143.794922 0)"/>
     <use xlink:href="#DejaVuSans-6d" transform="translate(1205.074219 0)"/>
     <use xlink:href="#DejaVuSans-65" transform="translate(1302.486328 0)"/>
    </g>
   </g>
   <g id="patch_34">
    <path d="M 370.491707 132.009308 
L 373.467575 141.92887 
L 370.590902 141.92887 
L 370.590902 181.607115 
L 370.392511 181.607115 
L 370.392511 141.92887 
L 367.515838 141.92887 
z
" clip-path="url(#p203635b5da)" style="fill: #ff7f0e; opacity: 0.5; stroke: #ff7f0e; stroke-linejoin: miter"/>
   </g>
  </g>
  <g id="text_48">
   <!-- initial u,v = 1.26, 0.20 m/s, period 10.00 s -->
   <g transform="translate(103.416563 12.118365) scale(0.12 -0.12)">
    <defs>
     <path id="DejaVuSans-75" d="M 544 1381 
L 544 3500 
L 1119 3500 
L 1119 1403 
Q 1119 906 1312 657 
Q 1506 409 1894 409 
Q 2359 409 2629 706 
Q 2900 1003 2900 1516 
L 2900 3500 
L 3475 3500 
L 3475 0 
L 2900 0 
L 2900 538 
Q 2691 219 2414 64 
Q 2138 -91 1772 -91 
Q 1169 -91 856 284 
Q 544 659 544 1381 
z
M 1991 3584 
L 1991 3584 
z
" transform="scale(0.015625)"/>
     <path id="DejaVuSans-2c" d="M 750 794 
L 1409 794 
L 1409 256 
L 897 -744 
L 494 -744 
L 750 256 
L 750 794 
z
" transform="scale(0.015625)"/>
     <path id="DejaVuSans-76" d="M 191 3500 
L 800 3500 
L 1894 563 
L 2988 3500 
L 3597 3500 
L 2284 0 
L 1503 0 
L 191 3500 
z
" transform="scale(0.015625)"/>
     <path id="DejaVuSans-3d" d="M 678 2906 
L 4684 2906 
L 4684 2381 
L 678 2381 
L 678 2906 
z
M 678 1631 
L 4684 1631 
L 4684 1100 
L 678 1100 
L 678 1631 
z
" transform="scale(0.015625)"/>
     <path id="DejaVuSans-2f" d="M 1625 4666 
L 2156 4666 
L 531 -594 
L 0 -594 
L 1625 4666 
z
" transform="scale(0.015625)"/>
     <path id="DejaVuSans-73" d="M 2834 3397 
L 2834 2853 
Q 2591 2978 2328 3040 
Q 2066 3103 1784 3103 
Q 1356 3103 1142 2972 
Q 928 2841 928 2578 
Q 928 2378 1081 2264 
Q 1234 2150 1697 2047 
L 1894 2003 
Q 2506 1872 2764 1633 
Q 3022 1394 3022 966 
Q 3022 478 2636 193 
Q 2250 -91 1575 -91 
Q 1294 -91 989 -36 
Q 684 19 347 128 
L 347 722 
Q 666 556 975 473 
Q 1284 391 1588 391 
Q 1994 391 2212 530 
Q 2431 669 2431 922 
Q 2431 1156 2273 1281 
Q 2116 1406 1581 1522 
L 1381 1569 
Q 847 1681 609 1914 
Q 372 2147 372 2553 
Q 372 3047 722 3315 
Q 1072 3584 1716 3584 
Q 2034 3584 2315 3537 
Q 2597 3491 2834 3397 
z
" transform="scale(0.015625)"/>
     <path id="DejaVuSans-70" d="M 1159 525 
L 1159 -1331 
L 581 -1331 
L 581 3500 
L 1159 3500 
L 1159 2969 
Q 1341 3281 1617 3432 
Q 1894 3584 2278 3584 
Q 2916 3584 3314 3078 
Q 3713 2572 3713 1747 
Q 3713 922 3314 415 
Q 2916 -91 2278 -91 
Q 1894 -91 1617 61 
Q 1341 213 1159 525 
z
M 3116 1747 
Q 3116 2381 2855 2742 
Q 2594 3103 2138 3103 
Q 1681 3103 1420 2742 
Q 1159 2381 1159 1747 
Q 1159 1113 1420 752 
Q 1681 391 2138 391 
Q 2594 391 2855 752 
Q 3116 1113 3116 1747 
z
" transform="scale(0.015625)"/>
     <path id="DejaVuSans-64" d="M 2906 2969 
L 2906 4863 
L 3481 4863 
L 3481 0 
L 2906 0 
L 2906 525 
Q 2725 213 2448 61 
Q 2172 -91 1784 -91 
Q 1150 -91 751 415 
Q 353 922 353 1747 
Q 353 2572 751 3078 
Q 1150 3584 1784 3584 
Q 2172 3584 2448 3432 
Q 2725 3281 2906 2969 
z
M 947 1747 
Q 947 1113 1208 752 
Q 1469 391 1925 391 
Q 2381 391 2643 752 
Q 2906 1113 2906 1747 
Q 2906 2381 2643 2742 
Q 2381 3103 1925 3103 
Q 1469 3103 1208 2742 
Q 947 2381 947 1747 
z
" transform="scale(0.015625)"/>
    </defs>
    <use xlink:href="#DejaVuSans-69"/>
    <use xlink:href="#DejaVuSans-6e" transform="translate(27.783203 0)"/>
    <use xlink:href="#DejaVuSans-69" transform="translate(91.162109 0)"/>
    <use xlink:href="#DejaVuSans-74" transform="translate(118.945312 0)"/>
    <use xlink:href="#DejaVuSans-69" transform="translate(158.154297 0)"/>
    <use xlink:href="#DejaVuSans-61" transform="translate(185.9375 0)"/>
    <use xlink:href="#DejaVuSans-6c" transform="translate(247.216797 0)"/>
    <use xlink:href="#DejaVuSans-20" transform="translate(275 0)"/>
    <use xlink:href="#DejaVuSans-75" transform="translate(306.787109 0)"/>
    <use xlink:href="#DejaVuSans-2c" transform="translate(370.166016 0)"/>
    <use xlink:href="#DejaVuSans-76" transform="translate(401.953125 0)"/>
    <use xlink:href="#DejaVuSans-20" transform="translate(461.132812 0)"/>
    <use xlink:href="#DejaVuSans-3d" transform="translate(492.919922 0)"/>
    <use xlink:href="#DejaVuSans-20" transform="translate(576.708984 0)"/>
    <use xlink:href="#DejaVuSans-31" transform="translate(608.496094 0)"/>
    <use xlink:href="#DejaVuSans-2e" transform="translate(672.119141 0)"/>
    <use xlink:href="#DejaVuSans-32" transform="translate(703.90625 0)"/>
    <use xlink:href="#DejaVuSans-36" transform="translate(767.529297 0)"/>
    <use xlink:href="#DejaVuSans-2c" transform="translate(831.152344 0)"/>
    <use xlink:href="#DejaVuSans-20" transform="translate(862.939453 0)"/>
    <use xlink:href="#DejaVuSans-30" transform="translate(894.726562 0)"/>
    <use xlink:href="#DejaVuSans-2e" transform="translate(958.349609 0)"/>
    <use xlink:href="#DejaVuSans-32" transform="translate(990.136719 0)"/>
    <use xlink:href="#DejaVuSans-30" transform="translate(1053.759766 0)"/>
    <use xlink:href="#DejaVuSans-20" transform="translate(1117.382812 0)"/>
    <use xlink:href="#DejaVuSans-6d" transform="translate(1149.169922 0)"/>
    <use xlink:href="#DejaVuSans-2f" transform="translate(1246.582031 0)"/>
    <use xlink:href="#DejaVuSans-73" transform="translate(1280.273438 0)"/>
    <use xlink:href="#DejaVuSans-2c" transform="translate(1332.373047 0)"/>
    <use xlink:href="#DejaVuSans-20" transform="translate(1364.160156 0)"/>
    <use xlink:href="#DejaVuSans-70" transform="translate(1395.947266 0)"/>
    <use xlink:href="#DejaVuSans-65" transform="translate(1459.423828 0)"/>
    <use xlink:href="#DejaVuSans-72" transform="translate(1520.947266 0)"/>
    <use xlink:href="#DejaVuSans-69" transform="translate(1562.060547 0)"/>
    <use xlink:href="#DejaVuSans-6f" transform="translate(1589.84375 0)"/>
    <use xlink:href="#DejaVuSans-64" transform="translate(1651.025391 0)"/>
    <use xlink:href="#DejaVuSans-20" transform="translate(1714.501953 0)"/>
    <use xlink:href="#DejaVuSans-31" transform="translate(1746.289062 0)"/>
    <use xlink:href="#DejaVuSans-30" transform="translate(1809.912109 0)"/>
    <use xlink:href="#DejaVuSans-2e" transform="translate(1873.535156 0)"/>
    <use xlink:href="#DejaVuSans-30" transform="translate(1905.322266 0)"/>
    <use xlink:href="#DejaVuSans-30" transform="translate(1968.945312 0)"/>
    <use xlink:href="#DejaVuSans-20" transform="translate(2032.568359 0)"/>
    <use xlink:href="#DejaVuSans-73" transform="translate(2064.355469 0)"/>
   </g>
  </g>
 </g>
 <defs>
  <clipPath id="p275025c408">
   <rect x="34.283052" y="75.798461" width="211.617309" height="211.617309"/>
  </clipPath>
  <clipPath id="p203635b5da">
   <rect x="291.135216" y="102.250624" width="158.712981" height="158.712981"/>
  </clipPath>
 </defs>
</svg>
